<svg xmlns="http://www.w3.org/2000/svg" id="prefix__ico-doradztwo" width="59.698" height="47.616" viewBox="0 0 59.698 47.616">
    <defs>
        <style>
            .prefix__cls-2{fill:#163767}
        </style>
    </defs>
    <g id="prefix__Group_62" data-name="Group 62" transform="translate(-49.003 -89.5)">
        <g id="prefix__Group_43" data-name="Group 43" transform="translate(49.723 101.22)" style="opacity:.1">
            <path id="prefix__Path_189" d="M118.035 243.411a2.223 2.223 0 0 1 3.144 3.144l1.9-1.9a2.217 2.217 0 0 1 1.584-.651L113.456 232.8l-2.616 2.616 4.068 4.068 2.532 4.52z" class="prefix__cls-2" data-name="Path 189" transform="translate(-102.644 -223.857)"/>
            <path id="prefix__Path_190" d="M264.822 375.357l-1.105-1.105-.084.108a2.224 2.224 0 0 1-2.425 3.119l-.241.31.712.712a2.223 2.223 0 1 0 3.144-3.144z" class="prefix__cls-2" data-name="Path 190" transform="translate(-231.121 -344.91)"/>
            <path id="prefix__Path_191" d="M283.5 364.132l-.083.02a1.794 1.794 0 0 0-1.152.943 2.219 2.219 0 0 1-.5.636 2.274 2.274 0 0 1-3.1-.146l-.226-.226 1.916 1.915a2.223 2.223 0 0 0 3.144-3.144z" class="prefix__cls-2" data-name="Path 191" transform="translate(-246.077 -336.249)"/>
            <path id="prefix__Path_192" d="M309.607 344.96l-.114.02a1.5 1.5 0 0 0-1.083.865 2.224 2.224 0 0 1-3.583.623l2.556 2.556a1.3 1.3 0 0 0 2.223-.921 2.223 2.223 0 0 0 0-3.144z" class="prefix__cls-2" data-name="Path 192" transform="translate(-268.658 -319.842)"/>
            <path id="prefix__Path_193" d="M330.909 327.934l-.048.005a1.442 1.442 0 0 0-1.14.861 2.221 2.221 0 0 1-.483.677 2.28 2.28 0 0 1-3.17-.095l-.829-.829 2.459 2.459a2.285 2.285 0 0 0 3.161.114 2.223 2.223 0 0 0 .049-3.192z" class="prefix__cls-2" data-name="Path 193" transform="translate(-286.127 -305.271)"/>
            <path id="prefix__Path_194" d="M181.968 328.178l-.1.1z" class="prefix__cls-2" data-name="Path 194" transform="translate(-163.433 -305.48)"/>
            <path id="prefix__Path_195" d="M146.66 310.191a2.223 2.223 0 0 1-3.145-3.143l-2.137 2.137a2.223 2.223 0 0 0 3.144 3.144z" class="prefix__cls-2" data-name="Path 195" transform="translate(-128.221 -287.397)"/>
            <path id="prefix__Path_196" d="M207.828 377.175a2.223 2.223 0 0 1-.075-3.065c-.027.024-.053.049-.079.075l-1.984 1.984a2.223 2.223 0 0 0 3.144 3.144l1.984-1.984c.026-.026.051-.052.075-.079a2.224 2.224 0 0 1-3.065-.075z" class="prefix__cls-2" data-name="Path 196" transform="translate(-183.259 -344.789)"/>
            <path id="prefix__Path_197" d="M163.826 336.64a2.223 2.223 0 0 1-3.144-3.144l-2.138 2.138a2.223 2.223 0 0 0 3.144 3.144z" class="prefix__cls-2" data-name="Path 197" transform="translate(-142.912 -310.031)"/>
            <path id="prefix__Path_198" d="M187.27 347.048l-1.644 1.644a2.223 2.223 0 0 1-3.144-3.144l1.643-1.643-3.782 3.782a2.223 2.223 0 1 0 3.144 3.144z" class="prefix__cls-2" data-name="Path 198" transform="translate(-161.568 -318.938)"/>
            <path id="prefix__Path_199" d="M66.783 177.75l-5.658 5.657a.507.507 0 0 1-.718 0l-6.258-6.258a.507.507 0 0 1 0-.718l5.658-5.658z" class="prefix__cls-2" data-name="Path 199" transform="translate(-54.002 -170.774)"/>
            <path id="prefix__Path_200" d="M383.343 186.1l-4.255-4.255 6.976-6.976 4.255 4.255a.507.507 0 0 1 0 .718l-6.258 6.258a.508.508 0 0 1-.718 0z" class="prefix__cls-2" data-name="Path 200" transform="translate(-332.21 -174.278)"/>
            <path id="prefix__Path_201" d="M328.43 223.975l-.733-.733-8.659 8.659 4.128 4.128 4.2-6.479 3.322-3.322z" class="prefix__cls-2" data-name="Path 201" transform="translate(-280.819 -215.676)"/>
        </g>
        <g id="prefix__Group_44" data-name="Group 44" transform="translate(49.003 90.844)">
            <path id="prefix__Path_202" d="M108.342 113.532L93.989 99.179a1.23 1.23 0 0 0-1.737 0l-6.258 6.258a1.23 1.23 0 0 0 0 1.737l.352.352-3.6 3.6h-4.635a3.075 3.075 0 0 0-2.067.795l-2.294-.742-2.614-2.614.575-.575a1.229 1.229 0 0 0 0-1.738l-6.258-6.258a1.228 1.228 0 0 0-1.737 0l-14.354 14.349a1.23 1.23 0 0 0 0 1.737l6.258 6.258a1.23 1.23 0 0 0 1.737 0l.563-.563 3.488 3.488 1.27 2.266a.721.721 0 1 0 1.258-.7l-1.318-2.353a.721.721 0 0 0-.119-.157l-3.558-3.558 11.174-11.181 2.737 2.737a.722.722 0 0 0 .288.176l1.749.566-5.108 5.108a2.972 2.972 0 1 0 4.179 4.228l4.969-4.969 12.631 12.631a.72.72 0 0 0 .51.211.672.672 0 0 0 .076 0 .721.721 0 0 0 .53-.325l4.155-6.414 2.758-2.758.759.759a1.231 1.231 0 0 0 1.737 0l6.258-6.257a1.229 1.229 0 0 0 0-1.737zm-57.809 1.681l14.051-14.051 5.956 5.956-14.05 14.051zm45.223 7.348a.723.723 0 0 0-.1.118l-3.711 5.73L79.438 115.9a.721.721 0 0 0-1.02 0l-5.479 5.479a1.533 1.533 0 0 1-2.365-.245 1.543 1.543 0 0 1 .226-1.944l6.137-6.138a1.647 1.647 0 0 1 1.172-.486h4.937a.721.721 0 0 0 .51-.211l3.808-3.808 5.6 5.6 5.6 5.6zm5.61-2.053zm-.151-.151l-1.118-1.118-7.473-7.473-5.46-5.46 5.956-5.956 14.051 14.05z" class="prefix__cls-2" data-name="Path 202" transform="translate(-49.002 -98.82)"/>
            <path id="prefix__Path_203" d="M150.573 306.784a2.938 2.938 0 0 0-1.964-4.454 2.943 2.943 0 0 0-4.735-3.353l-.111.111a2.938 2.938 0 0 0-4.932-1.358l-2.234 2.234a2.941 2.941 0 0 0 1.751 5 2.942 2.942 0 0 0 2.806 3.835c.071 0 .141-.005.211-.01a2.932 2.932 0 0 0 3.654 3.062 2.942 2.942 0 0 0 5.015 1.865l1.984-1.984a2.948 2.948 0 0 0 0-4.164 2.916 2.916 0 0 0-1.444-.789zm-12.957-5.8l2.234-2.234a1.5 1.5 0 1 1 2.124 2.124l-2.234 2.234a1.5 1.5 0 0 1-2.124-2.124zm2.475 5.938a1.5 1.5 0 0 1 0-2.124l4.8-4.8a1.5 1.5 0 0 1 2.124 2.124l-4.8 4.8a1.5 1.5 0 0 1-2.123.001zm3.144 3.145a1.5 1.5 0 0 1 0-2.125l3.782-3.782a1.5 1.5 0 0 1 2.124 2.125l-3.782 3.782a1.5 1.5 0 0 1-2.123.001zm7.763.649l-1.984 1.984a1.5 1.5 0 0 1-2.124-2.125l1.984-1.984a1.5 1.5 0 0 1 2.126 2.126z" class="prefix__cls-2" data-name="Path 203" transform="translate(-123.229 -268.311)"/>
            <path id="prefix__Path_204" d="M271.112 323.146a.72.72 0 0 0 0 1.02 1.5 1.5 0 1 1-2.125 2.124l-2.525-2.525a.721.721 0 0 0-1.02 1.02l1.836 1.835a1.5 1.5 0 0 1-2.125 2.125l-2.194-2.194a.721.721 0 1 0-1.02 1.02l1.813 1.813a1.5 1.5 0 1 1-2.125 2.124l-1.916-1.915a.721.721 0 1 0-1.02 1.02l.229.229 1.105 1.105a1.5 1.5 0 0 1-2.125 2.125l-.712-.712a.721.721 0 0 0-1.02 1.02l.712.712a2.942 2.942 0 0 0 5.012-1.813 2.938 2.938 0 0 0 3.733-2.712 2.963 2.963 0 0 0 .585.058 2.941 2.941 0 0 0 2.923-2.6 2.944 2.944 0 0 0 2.992-4.881.72.72 0 0 0-1.019 0z" class="prefix__cls-2" data-name="Path 204" transform="translate(-226.119 -290.617)"/>
        </g>
        <path id="prefix__Path_205" d="M221.907 89.5a5.745 5.745 0 1 0 5.745 5.745 5.745 5.745 0 0 0-5.745-5.745zm3.6 4.982l-1.6 1.161a.407.407 0 0 0-.148.455l.611 1.879a.407.407 0 0 1-.626.455l-1.6-1.161a.407.407 0 0 0-.478 0l-1.6 1.161a.407.407 0 0 1-.626-.455l.611-1.879a.407.407 0 0 0-.148-.455l-1.6-1.161a.407.407 0 0 1 .239-.736h1.976a.407.407 0 0 0 .387-.281l.611-1.879a.407.407 0 0 1 .774 0l.611 1.879a.407.407 0 0 0 .387.281h1.976a.407.407 0 0 1 .239.736z" data-name="Path 205" transform="translate(-143.055)" style="fill:#00a19a"/>
    </g>
</svg>
