<svg xmlns="http://www.w3.org/2000/svg" id="prefix__ico-raport" width="77.556" height="62.418" viewBox="0 0 77.556 62.418">
    <defs>
        <style>
            .prefix__cls-1{fill:#00a19a}.prefix__cls-3{fill:#163767}
        </style>
    </defs>
    <path id="prefix__Path_161" d="M999.314 600.093H972.1a2.038 2.038 0 0 1 0-4.076h27.216a2.038 2.038 0 0 1 0 4.076z" class="prefix__cls-1" data-name="Path 161" transform="translate(-945.687 -570.777)"/>
    <g id="prefix__Group_36" data-name="Group 36" transform="translate(-945.687 -570.777)" style="opacity:.15">
        <path id="prefix__Path_162" d="M1008 627.047h-44.013a7.487 7.487 0 0 1-7.118 5.192H1008a7.493 7.493 0 0 0 7.483-7.5v-5.192a7.493 7.493 0 0 1-7.483 7.5z" class="prefix__cls-3" data-name="Path 162"/>
        <path id="prefix__Path_163" d="M958.148 582.166v42.571a7.5 7.5 0 0 1-5.752 7.292 7.534 7.534 0 0 0 1.731.21h2.744a7.492 7.492 0 0 0 7.483-7.5v-42.573z" class="prefix__cls-3" data-name="Path 163"/>
        <path id="prefix__Path_164" d="M1002.95 585.591a9.735 9.735 0 0 1 .056-1.039 9.667 9.667 0 0 0 19.228 0 9.693 9.693 0 0 1-9.614 10.733 9.62 9.62 0 0 1-5.434-1.675l-4.029 1.441 2.843-2.4a9.675 9.675 0 0 1-3.05-7.063z" class="prefix__cls-3" data-name="Path 164"/>
        <path id="prefix__Path_165" d="M970.065 588.286h28.8v3.314h-28.8z" class="prefix__cls-3" data-name="Path 165"/>
    </g>
    <g id="prefix__Group_37" data-name="Group 37" transform="translate(-945.687 -570.777)">
        <path id="prefix__Path_166" d="M1015.487 597.146a.954.954 0 0 0-.954.956v26.635a6.546 6.546 0 0 1-6.529 6.545H962.2l.012-.01c.111-.092.22-.187.327-.283l.07-.067c.082-.076.163-.154.242-.234.037-.037.072-.076.109-.115.064-.067.127-.133.188-.2q.059-.066.114-.132c.056-.066.113-.133.167-.2l.112-.142c.052-.068.1-.137.154-.206.036-.049.071-.1.105-.148.05-.072.1-.144.145-.217.032-.049.064-.1.1-.149.049-.079.1-.159.141-.24.026-.046.054-.091.079-.138.056-.1.108-.2.159-.308l.042-.081c.063-.134.123-.267.18-.4l.046-.118c.039-.1.078-.2.113-.294.019-.052.036-.106.053-.158.029-.088.059-.176.085-.265l.049-.173c.024-.086.047-.172.068-.26.015-.06.029-.121.042-.182.019-.087.037-.174.053-.262.011-.061.023-.122.033-.184.015-.091.028-.183.04-.275.008-.059.016-.117.022-.176.011-.1.019-.206.027-.309 0-.05.009-.1.011-.15.008-.154.013-.309.013-.465v-52.052h50.181a.956.956 0 0 0 .954-.956.955.955 0 0 0-.954-.956h-51.131a.954.954 0 0 0-.954.956v9.477h-16.756a.954.954 0 0 0-.954.956v42.571a8.457 8.457 0 0 0 8.437 8.458H1008a8.457 8.457 0 0 0 8.437-8.458V598.1a.954.954 0 0 0-.952-.956zM947.6 624.737v-41.615h15.8v41.615a6.546 6.546 0 0 1-6.529 6.545h-2.744a6.546 6.546 0 0 1-6.53-6.545z" class="prefix__cls-3" data-name="Path 166"/>
        <path id="prefix__Path_167" d="M970.065 578.247h14.147a.956.956 0 0 0 .954-.956.954.954 0 0 0-.954-.956h-14.147a.954.954 0 0 0-.954.956.956.956 0 0 0 .954.956z" class="prefix__cls-3" data-name="Path 167"/>
        <path id="prefix__Path_168" d="M980.492 610.725h-10.427a.954.954 0 0 0-.954.956.956.956 0 0 0 .954.956h10.428a.956.956 0 0 0 .954-.956.954.954 0 0 0-.954-.956z" class="prefix__cls-3" data-name="Path 168"/>
        <path id="prefix__Path_169" d="M995.322 610.725H984.9a.954.954 0 0 0-.954.956.956.956 0 0 0 .954.956h10.427a.956.956 0 0 0 .954-.956.954.954 0 0 0-.954-.956z" class="prefix__cls-3" data-name="Path 169"/>
        <path id="prefix__Path_170" d="M1010.153 610.725h-10.427a.954.954 0 0 0-.954.956.956.956 0 0 0 .954.956h10.427a.956.956 0 0 0 .954-.956.954.954 0 0 0-.954-.956z" class="prefix__cls-3" data-name="Path 170"/>
        <path id="prefix__Path_171" d="M980.492 615.314h-10.427a.954.954 0 0 0-.954.956.956.956 0 0 0 .954.956h10.428a.956.956 0 0 0 .954-.956.954.954 0 0 0-.954-.956z" class="prefix__cls-3" data-name="Path 171"/>
        <path id="prefix__Path_172" d="M995.322 615.314H984.9a.954.954 0 0 0-.954.956.956.956 0 0 0 .954.956h10.427a.956.956 0 0 0 .954-.956.954.954 0 0 0-.954-.956z" class="prefix__cls-3" data-name="Path 172"/>
        <path id="prefix__Path_173" d="M1010.153 615.314h-10.427a.954.954 0 0 0-.954.956.956.956 0 0 0 .954.956h10.427a.956.956 0 0 0 .954-.956.954.954 0 0 0-.954-.956z" class="prefix__cls-3" data-name="Path 173"/>
        <path id="prefix__Path_174" d="M980.492 619.9h-10.427a.954.954 0 0 0-.954.956.955.955 0 0 0 .954.956h10.428a.956.956 0 0 0 .954-.956.954.954 0 0 0-.954-.956z" class="prefix__cls-3" data-name="Path 174"/>
        <path id="prefix__Path_175" d="M995.322 619.9H984.9a.954.954 0 0 0-.954.956.956.956 0 0 0 .954.956h10.427a.956.956 0 0 0 .954-.956.954.954 0 0 0-.954-.956z" class="prefix__cls-3" data-name="Path 175"/>
        <path id="prefix__Path_176" d="M1010.153 619.9h-10.427a.954.954 0 0 0-.954.956.956.956 0 0 0 .954.956h10.427a.956.956 0 0 0 .954-.956.954.954 0 0 0-.954-.956z" class="prefix__cls-3" data-name="Path 176"/>
        <path id="prefix__Path_177" d="M1012.62 574.941a10.659 10.659 0 0 0-9.079 16.186l-1.283 3.6a.955.955 0 0 0 1.219 1.224l3.586-1.283a10.642 10.642 0 1 0 5.556-19.729zm0 19.389a8.661 8.661 0 0 1-4.9-1.509.949.949 0 0 0-.857-.11l-2.134.763.764-2.147a.956.956 0 0 0-.108-.856 8.713 8.713 0 1 1 7.232 3.859z" class="prefix__cls-3" data-name="Path 177"/>
        <path id="prefix__Path_178" d="M998.867 583.251h-28.8a.954.954 0 0 0-.954.956v7.4a.956.956 0 0 0 .954.956h28.8a.956.956 0 0 0 .958-.952v-7.4a.955.955 0 0 0-.958-.952zm-.954 7.393h-26.9v-5.481h26.9z" class="prefix__cls-3" data-name="Path 178"/>
    </g>
    <path id="prefix__Path_179" d="M1008.12 607.2H972.1a2.038 2.038 0 0 1 0-4.076h36.022a2.038 2.038 0 0 1 0 4.076z" class="prefix__cls-1" data-name="Path 179" transform="translate(-945.687 -570.777)"/>
    <g id="prefix__Group_57" data-name="Group 57" transform="translate(-945.687 -570.777)">
        <path id="prefix__Path_259" d="M1017.175 584.114a.475.475 0 0 0-.41-.326l-2.584-.235-1.022-2.392a.476.476 0 0 0-.876 0l-1.021 2.392-2.585.235a.476.476 0 0 0-.271.832l1.954 1.713-.576 2.538a.476.476 0 0 0 .185.491.473.473 0 0 0 .523.023l2.229-1.332 2.228 1.332a.476.476 0 0 0 .709-.514l-.576-2.538 1.954-1.713a.477.477 0 0 0 .139-.506z" class="prefix__cls-1" data-name="Path 259"/>
    </g>
</svg>
