<svg xmlns="http://www.w3.org/2000/svg" id="prefix__ico-rozwiazania" width="54.723" height="54.718" viewBox="0 0 54.723 54.718">
    <defs>
        <style>
            .prefix__cls-3{fill:#163767}
        </style>
    </defs>
    <path id="prefix__Path_46" d="M-125.013 1.957l-1.5 1.5a.546.546 0 0 1-.772 0l-1.5-1.5a.546.546 0 0 1 0-.772l1.5-1.5a.546.546 0 0 1 .772 0l1.5 1.5a.546.546 0 0 1 0 .772z" data-name="Path 46" transform="translate(154.265 25.788)" style="fill:#00a19a"/>
    <g id="prefix__Group_12" data-name="Group 12" transform="translate(154.265 25.788)" style="opacity:.1">
        <path id="prefix__Path_47" d="M-126.9-20.7a3.547 3.547 0 0 1-3.274-2.183 3.526 3.526 0 0 0-.273 1.364 3.547 3.547 0 0 0 3.547 3.547 3.547 3.547 0 0 0 3.547-3.547 3.544 3.544 0 0 0-.273-1.364A3.548 3.548 0 0 1-126.9-20.7z" class="prefix__cls-3" data-name="Path 47"/>
        <path id="prefix__Path_48" d="M-126.9 25.477a3.547 3.547 0 0 1-3.274-2.183 3.526 3.526 0 0 0-.273 1.364A3.547 3.547 0 0 0-126.9 28.2a3.547 3.547 0 0 0 3.547-3.547 3.544 3.544 0 0 0-.273-1.364 3.548 3.548 0 0 1-3.274 2.188z" class="prefix__cls-3" data-name="Path 48"/>
        <path id="prefix__Path_49" d="M-149.988 2.39a3.548 3.548 0 0 1-3.274-2.183 3.526 3.526 0 0 0-.273 1.364 3.547 3.547 0 0 0 3.547 3.547 3.547 3.547 0 0 0 3.547-3.547 3.544 3.544 0 0 0-.273-1.364 3.548 3.548 0 0 1-3.274 2.183z" class="prefix__cls-3" data-name="Path 49"/>
        <path id="prefix__Path_50" d="M-103.814 2.39a3.547 3.547 0 0 1-3.274-2.183 3.526 3.526 0 0 0-.269 1.364 3.547 3.547 0 0 0 3.547 3.547 3.547 3.547 0 0 0 3.547-3.547 3.544 3.544 0 0 0-.273-1.364 3.548 3.548 0 0 1-3.278 2.183z" class="prefix__cls-3" data-name="Path 50"/>
    </g>
    <path id="prefix__Path_103" d="M-126.906 28.93a4.283 4.283 0 0 1-4.272-4.271 4.26 4.26 0 0 1 3.583-4.211l-.036-12.9-2.151-2.134-7.17 7.23 1.289 1.228a.727.727 0 0 1 0 1.025l-3.542 3.542a.716.716 0 0 1-.512.212.713.713 0 0 1-.512-.213l-3.542-3.541a.725.725 0 0 1 0-1.025l3.547-3.542a.728.728 0 0 1 .513-.212.724.724 0 0 1 .512.212l1.289 1.289 7.17-7.23-2.164-2.1-12.915.012a4.185 4.185 0 0 1-4.169 3.547 4.281 4.281 0 0 1-4.277-4.276 4.284 4.284 0 0 1 4.272-4.272 4.261 4.261 0 0 1 4.211 3.581l12.9-.036 2.133-2.152-7.23-7.169-1.228 1.289a.716.716 0 0 1-.512.212.728.728 0 0 1-.512-.212l-3.542-3.542a.725.725 0 0 1 0-1.025l3.545-3.541a.727.727 0 0 1 .513-.211.723.723 0 0 1 .512.211l3.542 3.542a.727.727 0 0 1 0 1.025l-1.289 1.289 7.23 7.169 2.1-2.164-.012-12.913a4.187 4.187 0 0 1-3.548-4.169 4.284 4.284 0 0 1 4.272-4.272 4.283 4.283 0 0 1 4.271 4.272 4.26 4.26 0 0 1-3.582 4.211l.035 12.9 2.152 2.133 7.17-7.23-1.29-1.228a.723.723 0 0 1-.211-.512.723.723 0 0 1 .211-.513l3.552-3.545a.727.727 0 0 1 .513-.211.723.723 0 0 1 .512.211l3.542 3.542a.727.727 0 0 1 0 1.025l-3.542 3.542a.716.716 0 0 1-.512.212.717.717 0 0 1-.513-.213l-1.289-1.288-7.169 7.23 2.164 2.1 12.915-.012a4.186 4.186 0 0 1 4.165-3.538 4.29 4.29 0 0 1 4.272 4.276 4.282 4.282 0 0 1-4.271 4.271 4.261 4.261 0 0 1-4.21-3.582l-12.9.035-2.134 2.152 7.23 7.169 1.228-1.289a.728.728 0 0 1 .513-.212.724.724 0 0 1 .512.212l3.542 3.542a.727.727 0 0 1 0 1.025l-3.542 3.542a.718.718 0 0 1-.512.212.717.717 0 0 1-.513-.213l-3.542-3.541a.727.727 0 0 1 0-1.025l1.284-1.292-7.23-7.17-2.1 2.164.012 12.915a4.184 4.184 0 0 1 3.547 4.169 4.281 4.281 0 0 1-4.271 4.271zm0-7.1a2.831 2.831 0 0 0-2.823 2.823 2.831 2.831 0 0 0 2.829 2.827 2.829 2.829 0 0 0 2.822-2.822 2.838 2.838 0 0 0-2.822-2.823zm-15.358-7.422l2.577 2.517 2.522-2.573-1.2-1.139a.709.709 0 0 1-.1-.082.791.791 0 0 1-.087-.106l-1.165-1.164zm27.005-1.384a.656.656 0 0 1-.082.1.753.753 0 0 1-.107.087l-1.193 1.2 2.577 2.517 2.517-2.578-2.547-2.487zM-131.6 1.6l4.727 4.666 4.666-4.727L-126.9-3.1zm27.784-2.855a2.831 2.831 0 0 0-2.823 2.825 2.831 2.831 0 0 0 2.823 2.822 2.829 2.829 0 0 0 2.822-2.824 2.829 2.829 0 0 0-2.822-2.823zm-46.174 0a2.83 2.83 0 0 0-2.822 2.825 2.83 2.83 0 0 0 2.822 2.822 2.829 2.829 0 0 0 2.822-2.824 2.83 2.83 0 0 0-2.822-2.823zm33.346-9.962l1.2 1.139a.77.77 0 0 1 .1.082.813.813 0 0 1 .087.107l1.195 1.194 2.517-2.578-2.547-2.487zm-25.617 0l2.577 2.517 1.135-1.2a.634.634 0 0 1 .082-.1.752.752 0 0 1 .107-.087l1.192-1.2-2.545-2.487zm15.361-13.122a2.831 2.831 0 0 0-2.823 2.823 2.831 2.831 0 0 0 2.818 2.822 2.831 2.831 0 0 0 2.823-2.822 2.832 2.832 0 0 0-2.818-2.823z" class="prefix__cls-3" data-name="Path 103" transform="translate(154.265 25.788)"/>
</svg>
