<svg xmlns="http://www.w3.org/2000/svg" id="prefix__ico-strategia" width="97.776" height="61.758" viewBox="0 0 97.776 61.758">
    <defs>
        <style>
            .prefix__cls-2{fill:#163767}.prefix__cls-3{fill:#00a19a}
        </style>
    </defs>
    <g id="prefix__Group_29" data-name="Group 29" transform="translate(12.861 5.462)" style="opacity:.15">
        <path id="prefix__Path_121" d="M-457.551 4.273h-4.677a1.094 1.094 0 0 1-1.1-1.092 1.094 1.094 0 0 1 1.1-1.092h4.677a1.094 1.094 0 0 1 1.1 1.092 1.094 1.094 0 0 1-1.1 1.092z" class="prefix__cls-2" data-name="Path 121" transform="translate(463.324 14.462)"/>
        <path id="prefix__Path_122" d="M-252.184-52.688h-17.21a1.094 1.094 0 0 1-1.1-1.092 1.094 1.094 0 0 1 1.1-1.092h16.113v-17.7a1.094 1.094 0 0 1 1.1-1.092 1.094 1.094 0 0 1 1.1 1.092v18.79a1.094 1.094 0 0 1-1.103 1.094z" class="prefix__cls-2" data-name="Path 122" transform="translate(312.765 73.662)"/>
        <path id="prefix__Path_123" d="M-185.413-5.59a1.094 1.094 0 0 1-1.1-1.092v-14.473h-4.385a1.094 1.094 0 0 1-1.1-1.092 1.094 1.094 0 0 1 1.1-1.092h5.481a1.094 1.094 0 0 1 1.1 1.092v15.565a1.094 1.094 0 0 1-1.096 1.092z" class="prefix__cls-2" data-name="Path 123" transform="translate(251.474 34.335)"/>
        <path id="prefix__Path_124" d="M-180.517 61.08h-10.377a1.094 1.094 0 0 1-1.1-1.092v-5.724a1.094 1.094 0 0 1 1.1-1.092 1.094 1.094 0 0 1 1.1 1.092v4.631h9.281a1.094 1.094 0 0 1 1.1 1.092 1.094 1.094 0 0 1-1.1 1.092z" class="prefix__cls-2" data-name="Path 124" transform="translate(251.474 -25.461)"/>
        <path id="prefix__Path_125" d="M-429.894 50.792a1.094 1.094 0 0 1-1.1-1.092V30.764a1.094 1.094 0 0 1 1.1-1.092h21.7a1.094 1.094 0 0 1 1.1 1.092 1.094 1.094 0 0 1-1.1 1.092H-428.8V49.7a1.094 1.094 0 0 1-1.094 1.092z" class="prefix__cls-2" data-name="Path 125" transform="translate(438.079 -7.095)"/>
        <path id="prefix__Path_126" d="M-453.385-44.176h-8.842a1.094 1.094 0 0 1-1.1-1.092 1.094 1.094 0 0 1 1.1-1.092h7.746v-3.875a1.094 1.094 0 0 1 1.1-1.092h18.306a1.094 1.094 0 0 1 1.1 1.092 1.094 1.094 0 0 1-1.1 1.092h-17.21v3.875a1.094 1.094 0 0 1-1.1 1.092z" class="prefix__cls-2" data-name="Path 126" transform="translate(463.324 56.208)"/>
        <path id="prefix__Path_127" d="M-458.324 103.362h69.861v3.927h-69.861z" class="prefix__cls-2" data-name="Path 127" transform="translate(459.42 -64.685)"/>
    </g>
    <path id="prefix__Path_128" d="M-256.693-42.407a6.215 6.215 0 0 1-6.219-6.2 6.215 6.215 0 0 1 6.219-6.2 6.215 6.215 0 0 1 6.219 6.2 6.215 6.215 0 0 1-6.219 6.2zm0-10.21a4.024 4.024 0 0 0-4.027 4.017 4.024 4.024 0 0 0 4.026 4.013 4.024 4.024 0 0 0 4.027-4.013 4.025 4.025 0 0 0-4.026-4.017z" class="prefix__cls-3" data-name="Path 128" transform="translate(319.709 64.385)"/>
    <path id="prefix__Path_129" d="M-246.881-32.829a1.1 1.1 0 0 1-.822-.37l-1.61-1.819a1.09 1.09 0 0 1 .1-1.542 1.1 1.1 0 0 1 1.547.1l.782.883 2.023-2.322a1.1 1.1 0 0 1 1.546-.108 1.09 1.09 0 0 1 .109 1.541l-2.845 3.263a1.1 1.1 0 0 1-.823.376z" class="prefix__cls-3" data-name="Path 129" transform="translate(309.306 51.47)"/>
    <path id="prefix__Path_130" d="M-385.583 60.3a6.215 6.215 0 0 1-6.219-6.2 6.215 6.215 0 0 1 6.219-6.2 6.215 6.215 0 0 1 6.219 6.2 6.215 6.215 0 0 1-6.219 6.2zm0-10.21a4.025 4.025 0 0 0-4.027 4.01 4.025 4.025 0 0 0 4.027 4.013 4.024 4.024 0 0 0 4.026-4.013 4.024 4.024 0 0 0-4.026-4.011z" class="prefix__cls-3" data-name="Path 130" transform="translate(420.343 -15.882)"/>
    <path id="prefix__Path_131" d="M-375.769 69.878a1.1 1.1 0 0 1-.822-.37l-1.61-1.819a1.09 1.09 0 0 1 .1-1.542 1.1 1.1 0 0 1 1.547.1l.782.883 2.024-2.322a1.1 1.1 0 0 1 1.546-.108 1.09 1.09 0 0 1 .108 1.541l-2.845 3.263a1.1 1.1 0 0 1-.823.376z" class="prefix__cls-3" data-name="Path 131" transform="translate(409.938 -28.797)"/>
    <path id="prefix__Path_132" d="M-488.894-47.974a1.094 1.094 0 0 0 1.1-1.092v-46.319a1.1 1.1 0 0 1 1.1-1.092h77.169a1.1 1.1 0 0 1 1.1 1.092v46.318a1.094 1.094 0 0 0 1.1 1.092 1.094 1.094 0 0 0 1.1-1.092v-46.318a3.286 3.286 0 0 0-3.288-3.277H-486.7a3.286 3.286 0 0 0-3.288 3.277v46.318a1.094 1.094 0 0 0 1.094 1.093z" class="prefix__cls-2" data-name="Path 132" transform="translate(497.005 98.662)"/>
    <path id="prefix__Path_133" d="M-462.228-73.662a1.094 1.094 0 0 0-1.1 1.092v41.512a1.094 1.094 0 0 0 1.1 1.092h69.861a1.094 1.094 0 0 0 1.1-1.092V-72.57a1.094 1.094 0 0 0-1.1-1.092zm68.765 41.512h-67.669v-39.327h67.669z" class="prefix__cls-2" data-name="Path 133" transform="translate(476.185 79.124)"/>
    <path id="prefix__Path_134" d="M-428.891 141.338h-88.422A4.674 4.674 0 0 0-521.99 146a4.674 4.674 0 0 0 4.677 4.661h88.422a4.674 4.674 0 0 0 4.677-4.661 4.674 4.674 0 0 0-4.677-4.661zm0 7.137h-88.422A2.483 2.483 0 0 1-519.8 146a2.483 2.483 0 0 1 2.485-2.476h88.422a2.483 2.483 0 0 1 2.487 2.476 2.483 2.483 0 0 1-2.485 2.476z" class="prefix__cls-2" data-name="Path 134" transform="translate(521.99 -88.902)"/>
    <path id="prefix__Path_135" d="M-326.132-4.589h3.558a2.631 2.631 0 0 0 2.632-2.624v-18.755a.44.44 0 0 1 .44-.439h4.026a1.094 1.094 0 0 0 1.1-1.092 1.094 1.094 0 0 0-1.1-1.092h-4.024a2.631 2.631 0 0 0-2.632 2.624v18.754a.44.44 0 0 1-.44.439h-3.558a1.094 1.094 0 0 0-1.1 1.092 1.094 1.094 0 0 0 1.1 1.092z" class="prefix__cls-2" data-name="Path 135" transform="translate(369.926 43.901)"/>
    <path id="prefix__Path_136" d="M-377.524-14.282a1.1 1.1 0 0 0 .775.32 1.1 1.1 0 0 0 .775-.32l1.783-1.777 1.783 1.777a1.1 1.1 0 0 0 .775.32 1.1 1.1 0 0 0 .775-.32 1.09 1.09 0 0 0 0-1.545l-1.782-1.773 1.783-1.776a1.09 1.09 0 0 0 0-1.545 1.1 1.1 0 0 0-1.55 0l-1.783 1.777-1.783-1.777a1.1 1.1 0 0 0-1.55 0 1.089 1.089 0 0 0 0 1.545l1.783 1.776-1.783 1.776a1.089 1.089 0 0 0 0 1.545z" class="prefix__cls-2" data-name="Path 136" transform="translate(409.446 38.159)"/>
    <path id="prefix__Path_137" d="M-253.149 50.594a1.1 1.1 0 0 0 .775.32 1.1 1.1 0 0 0 .775-.32l1.783-1.777 1.783 1.777a1.1 1.1 0 0 0 .775.32 1.1 1.1 0 0 0 .775-.32 1.089 1.089 0 0 0 0-1.545l-1.783-1.776 1.783-1.776a1.089 1.089 0 0 0 0-1.545 1.1 1.1 0 0 0-1.55 0l-1.783 1.777-1.783-1.777a1.1 1.1 0 0 0-1.55 0 1.089 1.089 0 0 0 0 1.545l1.783 1.776-1.783 1.776a1.089 1.089 0 0 0 0 1.545z" class="prefix__cls-2" data-name="Path 137" transform="translate(312.337 -12.542)"/>
    <path id="prefix__Path_138" d="M-403.394 6.848a1.094 1.094 0 0 1-1.1-1.092v-6.992a1.094 1.094 0 0 1 1.1-1.092 1.094 1.094 0 0 1 1.1 1.092v6.992a1.094 1.094 0 0 1-1.1 1.092z" data-name="Path 138" transform="translate(430.249 23.375)" style="fill:#163767;opacity:.15"/>
</svg>
