<svg xmlns="http://www.w3.org/2000/svg" id="prefix__ico-badania" width="70.99" height="52.458" viewBox="0 0 70.99 52.458">
    <defs>
        <style>
            .prefix__cls-2{fill:#163767}.prefix__cls-3{fill:#00a19a}
        </style>
    </defs>
    <g id="prefix__Group_11" data-name="Group 11">
        <path id="prefix__Path_28" d="M96.666 291.334h49.395v2.819H96.666z" data-name="Path 28" transform="translate(-86.798 -251.525)" style="opacity:.1;fill:#163767"/>
        <g id="prefix__Group_9" data-name="Group 9">
            <path id="prefix__Path_29" d="M427.775 90.878a.781.781 0 0 1 .775.784v15.165a.775.775 0 1 0 1.55 0V91.663a2.341 2.341 0 0 0-2.325-2.353.784.784 0 0 0 0 1.568z" class="prefix__cls-2" data-name="Path 29" transform="translate(-365.928 -81.187)"/>
            <path id="prefix__Path_30" d="M65.775 125.7a.78.78 0 0 0 .775-.784V91.663a.781.781 0 0 1 .775-.784h20.151a.784.784 0 0 0 0-1.568H67.325A2.341 2.341 0 0 0 65 91.663v33.251a.78.78 0 0 0 .775.786z" class="prefix__cls-2" data-name="Path 30" transform="translate(-60.04 -81.187)"/>
            <path id="prefix__Path_31" d="M108.923 114.31H92.441a.78.78 0 0 0-.775.784v29.8a.78.78 0 0 0 .775.784h49.395a.784.784 0 0 0 0-1.568h-48.62v-28.232h15.707a.784.784 0 0 0 0-1.568z" class="prefix__cls-2" data-name="Path 31" transform="translate(-82.573 -102.266)"/>
            <path id="prefix__Path_32" d="M98.825 329.31H36.307a3.346 3.346 0 0 0 0 6.692h62.518a3.346 3.346 0 0 0 0-6.692zm0 5.123H36.307a1.778 1.778 0 0 1 0-3.555h62.518a1.778 1.778 0 0 1 0 3.555z" class="prefix__cls-2" data-name="Path 32" transform="translate(-33 -283.544)"/>
            <path id="prefix__Path_33" d="M410.2 223.825l-7.006-7.089a3.005 3.005 0 0 0-4.285 0l-1.594 1.613a3.1 3.1 0 0 0 0 4.336l7.006 7.089a3 3 0 0 0 4.285 0l1.594-1.613a3.1 3.1 0 0 0 0-4.336zm-1.1 3.227l-1.594 1.613a1.468 1.468 0 0 1-2.093 0l-7.006-7.089a1.51 1.51 0 0 1 0-2.118l1.594-1.613a1.468 1.468 0 0 1 2.093 0l7.006 7.089a1.509 1.509 0 0 1 0 2.118z" class="prefix__cls-3" data-name="Path 33" transform="translate(-340.098 -187.87)"/>
            <path id="prefix__Path_34" d="M256.373 63.432a12.5 12.5 0 1 0 12.355 12.5 12.443 12.443 0 0 0-12.355-12.5zm0 23.435a10.934 10.934 0 1 1 10.805-10.933 10.882 10.882 0 0 1-10.805 10.933z" data-name="Path 34" transform="translate(-211.309 -59.368)" style="fill:#00a19a;opacity:.1"/>
            <path id="prefix__Path_35" d="M234.478 70.652a16.1 16.1 0 0 0 9.235-2.885l.555.562a.769.769 0 0 0 1.1 0 .791.791 0 0 0 0-1.109l-1.019-1.031a.768.768 0 0 0-1.012-.074 14.584 14.584 0 0 1-8.855 2.97 14.927 14.927 0 1 1 11.887-6.037.791.791 0 0 0 .073 1.024l1.019 1.032a.769.769 0 0 0 1.1 0 .791.791 0 0 0 0-1.109l-.561-.564a16.337 16.337 0 1 0-13.52 7.221z" class="prefix__cls-3" data-name="Path 35" transform="translate(-189.414 -37.52)"/>
            <path id="prefix__Path_36" d="M119.775 165.9h10.85a.784.784 0 0 0 0-1.568h-10.85a.784.784 0 0 0 0 1.568z" class="prefix__cls-2" data-name="Path 36" transform="translate(-105.67 -144.444)"/>
            <path id="prefix__Path_37" d="M132.175 209.31h-12.4a.784.784 0 0 0 0 1.568h12.4a.784.784 0 0 0 0-1.568z" class="prefix__cls-2" data-name="Path 37" transform="translate(-105.67 -182.366)"/>
            <path id="prefix__Path_38" d="M180.212 234.334h-10.437a.784.784 0 0 0 0 1.568h10.437a.784.784 0 0 0 0-1.568z" class="prefix__cls-2" data-name="Path 38" transform="translate(-147.919 -203.465)"/>
            <path id="prefix__Path_39" d="M119.775 235.9h4.082a.784.784 0 0 0 0-1.568h-4.082a.784.784 0 0 0 0 1.568z" class="prefix__cls-2" data-name="Path 39" transform="translate(-105.67 -203.465)"/>
            <path id="prefix__Path_40" d="M119.775 260.926h8.163a.784.784 0 0 0 0-1.568h-8.163a.784.784 0 0 0 0 1.568z" class="prefix__cls-2" data-name="Path 40" transform="translate(-105.67 -224.564)"/>
            <path id="prefix__Path_41" d="M191.666 260.142a.78.78 0 0 0 .775.784h8.159a.784.784 0 0 0 0-1.568h-8.163a.78.78 0 0 0-.771.784z" class="prefix__cls-2" data-name="Path 41" transform="translate(-167.072 -224.564)"/>
        </g>
        <g id="prefix__Group_10" data-name="Group 10" transform="translate(38.579 11.676)">
            <path id="prefix__Path_42" d="M294.718 129.655h.784v-5.037H292.3a.355.355 0 0 0-.352.357v4.325a.355.355 0 0 0 .352.357h.612l1.3 2.685a.692.692 0 0 0 .622.393.7.7 0 0 0 .652-.938z" class="prefix__cls-3" data-name="Path 42" transform="translate(-290.386 -122.633)"/>
            <path id="prefix__Path_43" d="M323.336 111.984l-4.716 1.756v5.45l4.716 1.756a.353.353 0 0 0 .474-.335v-8.294a.353.353 0 0 0-.474-.334z" class="prefix__cls-3" data-name="Path 43" transform="translate(-312.927 -111.961)"/>
            <path id="prefix__Path_44" d="M281.892 134.877v.962a.5.5 0 0 0 .5.505h.485v-1.973h-.485a.5.5 0 0 0-.5.506z" class="prefix__cls-3" data-name="Path 44" transform="translate(-281.892 -130.857)"/>
            <path id="prefix__Path_45" d="M355.8 130.728v3.12a1.521 1.521 0 0 0 1.512-1.53v-.059a1.521 1.521 0 0 0-1.512-1.531z" class="prefix__cls-3" data-name="Path 45" transform="translate(-344.346 -127.785)"/>
        </g>
    </g>
</svg>
