<svg xmlns="http://www.w3.org/2000/svg" id="prefix__ico-pracownicy" width="73.001" height="62.145" viewBox="0 0 73.001 62.145">
    <defs>
        <style>
            .prefix__cls-2{fill:#163767}.prefix__cls-3{fill:#00a19a}
        </style>
    </defs>
    <g id="prefix__Group_100" data-name="Group 100">
        <g id="prefix__Group_99" data-name="Group 99">
            <g id="prefix__Group_97" data-name="Group 97" transform="translate(0 35.449)" style="opacity:.1;isolation:isolate">
                <path id="prefix__Path_303" d="M89.651 280.262h-18.67a.981.981 0 0 1 0-1.962h18.67a.981.981 0 0 1 0 1.962z" class="prefix__cls-2" data-name="Path 303" transform="translate(-70 -278.3)"/>
                <path id="prefix__Path_304" d="M356.511 280.262h-18.67a.981.981 0 0 1 0-1.962h18.67a.981.981 0 0 1 0 1.962z" class="prefix__cls-2" data-name="Path 304" transform="translate(-284.491 -278.3)"/>
                <path id="prefix__Path_305" d="M180.876 359.544h-11.339a.981.981 0 1 1 0-1.962h11.339a.981.981 0 1 1 0 1.962z" class="prefix__cls-2" data-name="Path 305" transform="translate(-149.215 -342.024)"/>
                <path id="prefix__Path_306" d="M287.982 359.544h-11.339a.981.981 0 1 1 0-1.962h11.339a.981.981 0 0 1 0 1.962z" class="prefix__cls-2" data-name="Path 306" transform="translate(-235.303 -342.024)"/>
            </g>
            <g id="prefix__Group_98" data-name="Group 98">
                <path id="prefix__Path_307" d="M192.872 207.683a10.135 10.135 0 1 0-14.316 0 10.681 10.681 0 0 0-10 10.647v15.008a.981.981 0 0 0 .981.981h32.357a.981.981 0 0 0 .981-.981v-15.009a10.68 10.68 0 0 0-10.003-10.646zm8.04 24.673h-30.4v-14.027a8.714 8.714 0 0 1 8.7-8.7h2.307a.981.981 0 0 0 .449-1.853 8.173 8.173 0 1 1 7.474 0 .981.981 0 0 0 .449 1.853h2.307a8.715 8.715 0 0 1 8.7 8.7v14.026z" class="prefix__cls-2" data-name="Path 307" transform="translate(-149.214 -172.173)"/>
                <path id="prefix__Path_308" d="M317 114.979a10.135 10.135 0 1 0-14.316 0 10.591 10.591 0 0 0-3.127.674.981.981 0 1 0 .7 1.834 8.674 8.674 0 0 1 3.095-.566h2.307a.981.981 0 0 0 .449-1.854 8.173 8.173 0 1 1 7.474 0 .981.981 0 0 0 .449 1.854h2.307a8.715 8.715 0 0 1 8.7 8.7v14.027H310.16a.981.981 0 1 0 0 1.962h15.859a.981.981 0 0 0 .981-.981v-15.003a10.681 10.681 0 0 0-10-10.647z" class="prefix__cls-2" data-name="Path 308" transform="translate(-253.998 -97.662)"/>
                <path id="prefix__Path_309" d="M86.84 139.651H71.962v-14.027a8.715 8.715 0 0 1 8.7-8.7h2.307a.981.981 0 0 0 .449-1.854 8.173 8.173 0 1 1 7.474 0 .981.981 0 0 0 .449 1.854h2.307a8.674 8.674 0 0 1 3.095.566.981.981 0 1 0 .7-1.834 10.594 10.594 0 0 0-3.127-.674 10.135 10.135 0 1 0-14.316 0 10.681 10.681 0 0 0-10 10.647v15.008a.981.981 0 0 0 .981.981H86.84a.981.981 0 1 0 0-1.962z" class="prefix__cls-2" data-name="Path 309" transform="translate(-70 -97.66)"/>
            </g>
            <path id="prefix__Path_310" d="M230.468 338.421a1.682 1.682 0 0 1-.99-.323l-2.32-1.686-2.32 1.685a1.685 1.685 0 0 1-2.593-1.884l.886-2.727-2.32-1.685a1.685 1.685 0 0 1 .991-3.048h2.867l.886-2.727a1.685 1.685 0 0 1 3.205 0l.886 2.727h2.867a1.685 1.685 0 0 1 .99 3.048l-2.319 1.685.886 2.727a1.687 1.687 0 0 1-1.6 2.207zm-.264-1.6zm-7.549-6.1l1.792 1.3a1.681 1.681 0 0 1 .612 1.884l-.684 2.107 1.792-1.3a1.68 1.68 0 0 1 1.981 0l1.792 1.3-.684-2.107a1.681 1.681 0 0 1 .612-1.884l1.792-1.3h-2.215a1.681 1.681 0 0 1-1.6-1.164l-.685-2.107-.685 2.107a1.681 1.681 0 0 1-1.6 1.164z" class="prefix__cls-3" data-name="Path 310" transform="translate(-190.657 -280.276)"/>
            <path id="prefix__Path_311" d="M108.271 233.213a.981.981 0 0 1-.694-.288l-1.133-1.133h-1.69a.981.981 0 1 1 0-1.962h2.1a.983.983 0 0 1 .694.287l.726.727.727-.727a.98.98 0 0 1 .694-.287h2.1a.981.981 0 0 1 0 1.962H110.1l-1.133 1.133a.979.979 0 0 1-.694.288z" class="prefix__cls-3" data-name="Path 311" transform="translate(-97.146 -203.893)"/>
            <path id="prefix__Path_312" d="M366.886 233.213a.98.98 0 0 1-.694-.288l-1.133-1.133h-1.69a.981.981 0 0 1 0-1.962h2.1a.981.981 0 0 1 .694.287l.727.727.726-.727a.981.981 0 0 1 .694-.287h2.1a.981.981 0 0 1 0 1.962h-1.69l-1.133 1.133a.98.98 0 0 1-.694.288z" class="prefix__cls-3" data-name="Path 312" transform="translate(-305.01 -203.893)"/>
        </g>
    </g>
</svg>
