<svg xmlns="http://www.w3.org/2000/svg" id="prefix__ico-linkedin" width="14.76" height="14.728" viewBox="0 0 14.76 14.728">
    <defs>
        <style>
            .prefix__cls-1{fill:#163767}
        </style>
    </defs>
    <path id="prefix__Path_183" d="M8.128 99.73H5.165a.238.238 0 0 0-.238.238v9.519a.238.238 0 0 0 .238.238h2.963a.238.238 0 0 0 .238-.238v-9.519a.238.238 0 0 0-.238-.238z" class="prefix__cls-1" data-name="Path 183" transform="translate(-4.692 -94.998)"/>
    <path id="prefix__Path_184" d="M1.955.341a1.954 1.954 0 1 0 1.954 1.953A1.956 1.956 0 0 0 1.955.341z" class="prefix__cls-1" data-name="Path 184" transform="translate(0 -.341)"/>
    <path id="prefix__Path_185" d="M112.093 94.761a3.48 3.48 0 0 0-2.6 1.093v-.618a.238.238 0 0 0-.238-.238h-2.838a.238.238 0 0 0-.238.238v9.519a.238.238 0 0 0 .238.238h2.957a.238.238 0 0 0 .238-.238v-4.71c0-1.587.431-2.205 1.537-2.205 1.2 0 1.3.991 1.3 2.287v4.628a.238.238 0 0 0 .238.238h2.958a.238.238 0 0 0 .238-.238v-5.221c-.002-2.36-.452-4.773-3.79-4.773z" class="prefix__cls-1" data-name="Path 185" transform="translate(-101.12 -90.265)"/>
</svg>
