<svg xmlns="http://www.w3.org/2000/svg" id="prefix__ico-phone" width="41.948" height="41.997" viewBox="0 0 41.948 41.997">
    <defs>
        <style>
            .prefix__cls-1{fill:#fff}
        </style>
    </defs>
    <g id="prefix__Group_22" data-name="Group 22">
        <path id="prefix__Path_92" d="M30.006 68.086c.189.009.37.017.56.017a6.579 6.579 0 0 0 5.037-2.17l.034-.034a19.9 19.9 0 0 1 1.576-1.627c.387-.37.784-.749 1.154-1.145a4 4 0 0 0-.017-5.95l-4.908-4.908a4.022 4.022 0 0 0-2.919-1.343 4.149 4.149 0 0 0-2.945 1.326l-2.9 2.9c-.258-.146-.525-.276-.784-.4-.327-.164-.629-.319-.9-.482a30.8 30.8 0 0 1-7.379-6.724 17.335 17.335 0 0 1-2.467-3.946c.758-.689 1.464-1.4 2.144-2.1.25-.25.5-.508.758-.766a3.9 3.9 0 0 0 0-5.958l-2.437-2.437c-.284-.284-.56-.568-.835-.844-.542-.551-1.1-1.128-1.662-1.645a4.064 4.064 0 0 0-2.9-1.283 4.234 4.234 0 0 0-2.945 1.283L2.213 32.9a6.372 6.372 0 0 0-1.894 4.052 15.243 15.243 0 0 0 1.137 6.561 38.4 38.4 0 0 0 6.8 11.348A41.985 41.985 0 0 0 22.2 65.779a21.634 21.634 0 0 0 7.806 2.307zM9.884 53.509a36.278 36.278 0 0 1-6.44-10.728 13.058 13.058 0 0 1-1.016-5.657 4.217 4.217 0 0 1 1.283-2.738l3.039-3.039a2.152 2.152 0 0 1 1.472-.68 2.071 2.071 0 0 1 1.438.689c.542.508 1.068 1.042 1.619 1.6.276.284.56.577.852.861l2.437 2.437a1.856 1.856 0 0 1 0 2.979c-.258.258-.517.517-.766.775-.758.766-1.464 1.49-2.247 2.187l-.043.043a1.643 1.643 0 0 0-.422 1.868l.026.069a19.48 19.48 0 0 0 2.876 4.675 32.837 32.837 0 0 0 7.9 7.189 12.181 12.181 0 0 0 1.085.594c.327.164.629.319.9.482.034.017.06.034.095.052a1.8 1.8 0 0 0 .818.207 1.728 1.728 0 0 0 1.248-.577l3.057-3.057a2.1 2.1 0 0 1 1.455-.706 2.053 2.053 0 0 1 1.412.706l4.925 4.925a1.933 1.933 0 0 1-.026 3c-.344.37-.706.715-1.085 1.085a22.4 22.4 0 0 0-1.713 1.774 4.438 4.438 0 0 1-3.47 1.464c-.138 0-.284-.009-.422-.017a19.663 19.663 0 0 1-7.026-2.1A39.562 39.562 0 0 1 9.884 53.509z" class="prefix__cls-1" data-name="Path 92" transform="translate(-.284 -26.106)"/>
        <path id="prefix__Path_93" d="M255.05 89.115a1.052 1.052 0 1 0-.353 2.075 11.636 11.636 0 0 1 9.48 9.48 1.053 1.053 0 0 0 1.042.878 1.282 1.282 0 0 0 .181-.017 1.046 1.046 0 0 0 .861-1.214 13.729 13.729 0 0 0-11.21-11.2z" class="prefix__cls-1" data-name="Path 93" transform="translate(-231.992 -81.429)"/>
        <path id="prefix__Path_94" d="M276.628 19.758a1.284 1.284 0 0 0 .181-.017 1.046 1.046 0 0 0 .861-1.214A22.7 22.7 0 0 0 259.15.015a1.052 1.052 0 1 0-.35 2.075 20.611 20.611 0 0 1 16.79 16.79 1.053 1.053 0 0 0 1.038.878z" class="prefix__cls-1" data-name="Path 94" transform="translate(-235.739)"/>
    </g>
</svg>
