<svg xmlns="http://www.w3.org/2000/svg" id="prefix__ico-realizacja" width="84.361" height="84.489" viewBox="0 0 84.361 84.489">
    <defs>
        <style>
            .prefix__cls-1,.prefix__cls-3{fill:#163767}.prefix__cls-1{opacity:.15}.prefix__cls-2{fill:#00a19a}
        </style>
    </defs>
    <path id="prefix__Path_260" d="M1052.465 617.389a.762.762 0 0 1 .464-1.124l8-2.071a2.378 2.378 0 0 0 1.522-1.219v3.369a2.117 2.117 0 0 1-1.586 2.05l-6.763 1.761z" class="prefix__cls-1" data-name="Path 260" transform="translate(-1013.181 -554.499)"/>
    <g id="prefix__Group_58" data-name="Group 58" transform="translate(59.446 35.219)">
        <path id="prefix__Path_261" d="M1079.123 619.953a1.035 1.035 0 0 1-1-.777l-.965-3.733-3.317 1.959a1.041 1.041 0 0 1-1.26-.161l-1.874-1.874a1.036 1.036 0 0 1-.161-1.262l1.954-3.321-3.728-.959a1.036 1.036 0 0 1-.778-1v-2.649a1.041 1.041 0 0 1 .779-1.006l3.729-.966-1.957-3.314a1.034 1.034 0 0 1 .161-1.26l1.874-1.874a1.029 1.029 0 0 1 .735-.3 1.041 1.041 0 0 1 .525.143l3.321 1.955.961-3.728a1.036 1.036 0 0 1 1-.778h2.649a1.04 1.04 0 0 1 1.007.778l.965 3.73 3.314-1.958a1.045 1.045 0 0 1 1.263.161l1.871 1.875a1.036 1.036 0 0 1 .162 1.26l-1.957 3.321 3.73.959a1.039 1.039 0 0 1 .777 1.006v2.649a1.034 1.034 0 0 1-.777 1l-3.73.966 1.957 3.314a1.04 1.04 0 0 1-.161 1.262l-1.874 1.872a1.041 1.041 0 0 1-1.261.162l-3.321-1.957-.958 3.73a1.038 1.038 0 0 1-1.007.777zm1.325-16.872a4.416 4.416 0 1 0 4.415 4.415 4.421 4.421 0 0 0-4.415-4.415z" class="prefix__cls-2" data-name="Path 261" transform="translate(-1067.99 -595.039)"/>
    </g>
    <g id="prefix__Group_59" data-name="Group 59" transform="translate(33.675)">
        <path id="prefix__Path_262" d="M1050.032 585.009a1.417 1.417 0 0 1-1.058-1.372v-3.55a1.67 1.67 0 0 0 .993.722l5.849 1.5a.758.758 0 0 1 .467 1.12l-1.63 2.763z" class="prefix__cls-1" data-name="Path 262" transform="translate(-1047.86 -564.255)"/>
        <path id="prefix__Path_263" d="M1068.836 583.447a.76.76 0 0 1 .464-1.122l5.852-1.516a1.675 1.675 0 0 0 1-.725v3.553a1.415 1.415 0 0 1-1.059 1.372l-4.623 1.2z" class="prefix__cls-1" data-name="Path 263" transform="translate(-1042 -564.256)"/>
        <path id="prefix__Path_264" d="M1063.01 596.406a1.415 1.415 0 0 1-1.369-1.059l-1.261-4.873-4.339 2.55a1.405 1.405 0 0 1-1.718-.218l-2.478-2.478a1.415 1.415 0 0 1-.221-1.718l.957-1.627 1.557 1.557a1.664 1.664 0 0 0 1.185.49 1.692 1.692 0 0 0 .849-.231l3.174-1.874a.773.773 0 0 1 .386-.106.76.76 0 0 1 .735.57l.921 3.568a1.673 1.673 0 0 0 1.622 1.256h3.5a1.67 1.67 0 0 0 1.621-1.256l.922-3.568a.762.762 0 0 1 .736-.57.777.777 0 0 1 .385.106l3.175 1.872a1.68 1.68 0 0 0 .849.232 1.661 1.661 0 0 0 1.185-.491l1.555-1.556.957 1.627a1.413 1.413 0 0 1-.219 1.718l-2.477 2.478a1.4 1.4 0 0 1-1 .416 1.414 1.414 0 0 1-.72-.2l-4.337-2.55-1.262 4.873a1.415 1.415 0 0 1-1.37 1.059z" class="prefix__cls-1" data-name="Path 264" transform="translate(-1047.132 -562.258)"/>
        <path id="prefix__Path_265" d="M1063.233 589.646a6.65 6.65 0 1 1 6.65-6.651 6.657 6.657 0 0 1-6.65 6.651zm0-11.335a4.685 4.685 0 1 0 4.685 4.686 4.691 4.691 0 0 0-4.685-4.687z" class="prefix__cls-3" data-name="Path 265" transform="translate(-1045.603 -565.365)"/>
        <path id="prefix__Path_266" d="M1063.994 603.138a2.529 2.529 0 0 1-2.447-1.893l-.892-3.445-3.067 1.806a2.54 2.54 0 0 1-1.28.347 2.5 2.5 0 0 1-1.789-.74l-2.478-2.478a2.524 2.524 0 0 1-.392-3.069l1.8-3.067-3.445-.891a2.532 2.532 0 0 1-1.893-2.449v-3.5a2.531 2.531 0 0 1 1.893-2.448l3.445-.892-1.8-3.065a2.523 2.523 0 0 1 .39-3.07l2.478-2.478a2.525 2.525 0 0 1 3.069-.39l3.067 1.8.892-3.444a2.525 2.525 0 0 1 2.447-1.894h3.5a2.527 2.527 0 0 1 2.448 1.894l.892 3.444 3.067-1.8a2.522 2.522 0 0 1 3.069.389l2.478 2.478a2.527 2.527 0 0 1 .391 3.07l-1.8 3.067 3.445.891a2.53 2.53 0 0 1 1.895 2.448v3.5a2.529 2.529 0 0 1-1.893 2.448l-3.445.891 1.8 3.067a2.526 2.526 0 0 1-.391 3.07l-2.478 2.478a2.5 2.5 0 0 1-1.788.74 2.54 2.54 0 0 1-1.281-.347l-3.065-1.806-.892 3.445a2.529 2.529 0 0 1-2.449 1.893zm-2.718-7.823a.956.956 0 0 1 .364.07.977.977 0 0 1 .611.727l1.2 4.637a.561.561 0 0 0 .543.424h3.5a.559.559 0 0 0 .543-.424l1.188-4.588a1.009 1.009 0 0 1 1-.852.951.951 0 0 1 .546.169l4.123 2.431a.56.56 0 0 0 .682-.084l2.481-2.479a.566.566 0 0 0 .087-.682l-2.405-4.084a1.025 1.025 0 0 1-.121-.969.984.984 0 0 1 .734-.609l4.632-1.2a.563.563 0 0 0 .423-.545v-3.5a.563.563 0 0 0-.423-.545l-4.588-1.188a1.022 1.022 0 0 1-.771-.6.987.987 0 0 1 .087-.948l2.431-4.125a.564.564 0 0 0-.083-.682l-2.479-2.479a.571.571 0 0 0-.4-.165.579.579 0 0 0-.281.075l-4.087 2.408a1.069 1.069 0 0 1-.6.192.929.929 0 0 1-.366-.071.975.975 0 0 1-.609-.734l-1.2-4.632a.561.561 0 0 0-.543-.424h-3.5a.564.564 0 0 0-.545.423l-1.186 4.589a1.031 1.031 0 0 1-.6.77 1.08 1.08 0 0 1-.4.079.919.919 0 0 1-.541-.169l-4.126-2.43a.564.564 0 0 0-.681.087l-2.48 2.478a.565.565 0 0 0-.087.682l2.4 4.084a1.021 1.021 0 0 1 .121.97.98.98 0 0 1-.733.608l-4.631 1.2a.566.566 0 0 0-.423.545v3.5a.567.567 0 0 0 .421.545l4.589 1.188a1.021 1.021 0 0 1 .773.6.984.984 0 0 1-.089.949l-2.43 4.122a.566.566 0 0 0 .084.683l2.479 2.479a.56.56 0 0 0 .679.088l4.088-2.407a1.054 1.054 0 0 1 .599-.187z" class="prefix__cls-3" data-name="Path 266" transform="translate(-1048.115 -567.877)"/>
    </g>
    <g id="prefix__Group_60" data-name="Group 60" transform="translate(0 34.108)">
        <path id="prefix__Path_267" d="M1043.474 635.058a2.118 2.118 0 0 1-2.051-1.586c-1.734-6.7-1.734-6.7-1.747-6.728l-.125-.252-6.184 3.642a2.125 2.125 0 0 1-1.073.292 2.1 2.1 0 0 1-1.5-.62l-3.6-3.6a2.113 2.113 0 0 1-.328-2.571l.681-1.158 3.065 3.067a2.382 2.382 0 0 0 2.888.367l5.078-3a.756.756 0 0 1 1.122.464l1.473 5.708a2.376 2.376 0 0 0 2.3 1.783h5.1a2.376 2.376 0 0 0 2.3-1.783l1.473-5.709a.756.756 0 0 1 1.122-.463l5.079 2.994a2.376 2.376 0 0 0 2.886-.366l3.064-3.067.685 1.158a2.117 2.117 0 0 1-.329 2.571l-3.6 3.6a2.094 2.094 0 0 1-1.5.62 2.125 2.125 0 0 1-1.073-.292l-5.962-3.507-.288-.145-1.806 6.99a2.118 2.118 0 0 1-2.05 1.586z" class="prefix__cls-1" data-name="Path 267" transform="translate(-1020.83 -585.789)"/>
        <path id="prefix__Path_268" d="M1024.589 618.393a2.116 2.116 0 0 1-1.587-2.05v-3.367a2.367 2.367 0 0 0 1.522 1.218l7.841 2.018a.761.761 0 0 1 .481 1.094l-1.514 2.819z" class="prefix__cls-1" data-name="Path 268" transform="translate(-1021.889 -588.607)"/>
        <path id="prefix__Path_269" d="M1044.786 644.563a3.231 3.231 0 0 1-3.127-2.419l-1.443-5.583-4.969 2.924a3.222 3.222 0 0 1-3.922-.5l-3.6-3.6a3.226 3.226 0 0 1-.5-3.922l2.925-4.969-5.582-1.446a3.229 3.229 0 0 1-2.42-3.126v-5.094a3.232 3.232 0 0 1 2.42-3.129l5.582-1.445-2.925-4.969a3.227 3.227 0 0 1 .5-3.921l3.6-3.6a3.227 3.227 0 0 1 3.921-.5l4.969 2.924 1.445-5.583a3.23 3.23 0 0 1 3.127-2.418h5.1a3.229 3.229 0 0 1 3.128 2.418l1.444 5.583 4.97-2.925a3.225 3.225 0 0 1 3.921.5l3.6 3.6a3.226 3.226 0 0 1 .5 3.921l-2.925 4.969 5.583 1.445a3.234 3.234 0 0 1 2.42 3.129v5.094a3.227 3.227 0 0 1-2.418 3.126l-5.583 1.446 2.925 4.969a3.226 3.226 0 0 1-.5 3.921l-3.6 3.6a3.223 3.223 0 0 1-3.921.5l-4.97-2.925-1.444 5.583a3.23 3.23 0 0 1-3.128 2.419zm-3.942-10.505a.994.994 0 0 1 .376.073.981.981 0 0 1 .593.743l1.75 6.776a1.26 1.26 0 0 0 1.223.948h5.1a1.26 1.26 0 0 0 1.223-.948l1.728-6.67a1.044 1.044 0 0 1 .615-.849 1 1 0 0 1 .376-.073.973.973 0 0 1 .565.176l6.031 3.557a1.273 1.273 0 0 0 .641.175 1.257 1.257 0 0 0 .9-.37l3.6-3.6a1.269 1.269 0 0 0 .195-1.536l-3.5-5.939a1.054 1.054 0 0 1-.163-1.036.98.98 0 0 1 .744-.591l6.774-1.749a1.261 1.261 0 0 0 .948-1.224v-5.093a1.263 1.263 0 0 0-.949-1.224l-6.671-1.727a1.05 1.05 0 0 1-.848-.616.98.98 0 0 1 .109-.944l3.553-6.027a1.269 1.269 0 0 0-.195-1.537l-3.6-3.6a1.257 1.257 0 0 0-.9-.37 1.273 1.273 0 0 0-.639.172l-5.94 3.5a1.122 1.122 0 0 1-.659.237.971.971 0 0 1-.967-.814l-1.75-6.776a1.265 1.265 0 0 0-1.224-.949h-5.1a1.261 1.261 0 0 0-1.223.949l-1.727 6.67a1.053 1.053 0 0 1-.617.849.991.991 0 0 1-.944-.109l-6.027-3.553a1.271 1.271 0 0 0-.641-.174 1.255 1.255 0 0 0-.895.37l-3.6 3.6a1.271 1.271 0 0 0-.2 1.537l3.5 5.937a1.042 1.042 0 0 1 .165 1.033.976.976 0 0 1-.74.593l-6.776 1.749a1.266 1.266 0 0 0-.95 1.225v5.094a1.264 1.264 0 0 0 .95 1.224l6.67 1.726a1.042 1.042 0 0 1 .847.616.974.974 0 0 1-.106.944l-3.554 6.028a1.269 1.269 0 0 0 .2 1.536l3.6 3.6a1.262 1.262 0 0 0 .895.37 1.285 1.285 0 0 0 .641-.174l5.938-3.5a1.129 1.129 0 0 1 .655-.235z" class="prefix__cls-3" data-name="Path 269" transform="translate(-1022.144 -594.182)"/>
        <path id="prefix__Path_270" d="M1043.694 625.391a9.647 9.647 0 1 1 .023 0zm0-17.5a7.965 7.965 0 1 0 .022 0z" class="prefix__cls-2" data-name="Path 270" transform="translate(-1018.574 -590.613)"/>
        <path id="prefix__Path_271" d="M1041.556 618.254a.848.848 0 0 1-.633-.283l-2.771-3.117a.833.833 0 0 1 .066-1.172.86.86 0 0 1 .567-.217.849.849 0 0 1 .633.284l2.134 2.4 4.266-4.87a.847.847 0 0 1 1.19-.082.829.829 0 0 1 .086 1.17l-4.895 5.6a.847.847 0 0 1-.635.288z" class="prefix__cls-2" data-name="Path 271" transform="translate(-1017.458 -589.195)"/>
    </g>
</svg>
