<svg xmlns="http://www.w3.org/2000/svg" id="prefix__ico-6lat" width="79.263" height="88.388" viewBox="0 0 79.263 88.388">
    <defs>
        <style>
            .prefix__cls-1,.prefix__cls-2{fill:#fff}.prefix__cls-1{opacity:.15;isolation:isolate}.prefix__cls-3{fill:#18ede2}
        </style>
    </defs>
    <path id="prefix__Path_280" d="M1548.823 781.255H1532.6a1.057 1.057 0 1 1 0-2.115h16.227a1.057 1.057 0 0 1 0 2.115z" class="prefix__cls-1" data-name="Path 280" transform="translate(-1500.841 -706.581)"/>
    <path id="prefix__Path_281" d="M1548.823 784.465H1532.6a1.057 1.057 0 1 1 0-2.115h16.227a1.057 1.057 0 0 1 0 2.115z" class="prefix__cls-1" data-name="Path 281" transform="translate(-1500.841 -705.063)"/>
    <g id="prefix__Group_66" data-name="Group 66">
        <path id="prefix__Path_282" d="M1561.705 745.272a23.878 23.878 0 1 0-32.574 34.923l.31.284a14.088 14.088 0 0 1 4.531 10.5v.284a3.983 3.983 0 0 0 2.258 3.583v10.875a4.443 4.443 0 0 0 4.437 4.437h.767v.6a3.257 3.257 0 0 0 3.257 3.256h1.457a3.256 3.256 0 0 0 3.256-3.256v-.6h.767a4.443 4.443 0 0 0 4.438-4.437v-10.873a3.986 3.986 0 0 0 2.258-3.583v-.508a14.288 14.288 0 0 1 4.714-10.445 23.874 23.874 0 0 0 1.427-33.731q-.625-.678-1.3-1.309zm-14.418 65.487a1.142 1.142 0 0 1-1.142 1.141h-1.453a1.142 1.142 0 0 1-1.143-1.141v-.6h3.738zm2.881-2.714h-9.5a2.326 2.326 0 0 1-2.324-2.323v-10.475h14.148v10.476a2.326 2.326 0 0 1-2.324 2.323zm9.981-29.292a16.418 16.418 0 0 0-5.4 12v.507a1.87 1.87 0 0 1-1.869 1.869h-14.924a1.87 1.87 0 0 1-1.869-1.869v-.284a16.2 16.2 0 0 0-5.231-12.074 21.73 21.73 0 0 1-7.187-17.061 21.968 21.968 0 0 1 20.19-20.821c.527-.037 1.053-.056 1.575-.056a21.764 21.764 0 0 1 15.906 36.6q-.574.616-1.193 1.186z" class="prefix__cls-2" data-name="Path 282" transform="translate(-1505.567 -725.626)"/>
        <path id="prefix__Path_283" d="M1537.943 739a1.056 1.056 0 0 0 1.057-1.056v-7.014a1.057 1.057 0 1 0-2.115 0v7.013a1.057 1.057 0 0 0 1.058 1.057z" class="prefix__cls-2" data-name="Path 283" transform="translate(-1498.313 -729.873)"/>
        <path id="prefix__Path_284" d="M1566.387 756.064h-7.013a1.057 1.057 0 1 0 0 2.115h7.013a1.057 1.057 0 0 0 0-2.115z" class="prefix__cls-2" data-name="Path 284" transform="translate(-1488.181 -717.49)"/>
        <path id="prefix__Path_285" d="M1518.766 756.064h-7.014a1.057 1.057 0 1 0 0 2.115h7.014a1.057 1.057 0 0 0 0-2.115z" class="prefix__cls-2" data-name="Path 285" transform="translate(-1510.695 -717.49)"/>
        <path id="prefix__Path_286" d="M1523.631 744.3a1.057 1.057 0 1 0 1.495-1.495l-4.959-4.96a1.057 1.057 0 0 0-1.495 1.495z" class="prefix__cls-2" data-name="Path 286" transform="translate(-1507.064 -726.242)"/>
        <path id="prefix__Path_287" d="M1553.844 771.526a1.058 1.058 0 0 0-1.5 1.5l4.96 4.959a1.057 1.057 0 0 0 1.495-1.495z" class="prefix__cls-2" data-name="Path 287" transform="translate(-1491.149 -710.327)"/>
        <path id="prefix__Path_288" d="M1557.307 737.849l-4.96 4.96a1.057 1.057 0 0 0 1.495 1.495l4.96-4.96a1.057 1.057 0 0 0-1.495-1.495z" class="prefix__cls-2" data-name="Path 288" transform="translate(-1491.147 -726.242)"/>
        <path id="prefix__Path_289" d="M1523.64 771.526l-4.959 4.96a1.057 1.057 0 1 0 1.469 1.521l.026-.026 4.959-4.959a1.058 1.058 0 0 0-1.495-1.5z" class="prefix__cls-2" data-name="Path 289" transform="translate(-1507.072 -710.327)"/>
    </g>
    <path id="prefix__Path_290" d="M1544.484 776.782h-3.23a2.481 2.481 0 0 1-2.4-1.86l-.769-2.985-2.654 1.564a2.484 2.484 0 0 1-3.015-.381l-2.284-2.284a2.48 2.48 0 0 1-.383-3.013l1.564-2.655-2.984-.769a2.48 2.48 0 0 1-1.86-2.4v-3.227a2.48 2.48 0 0 1 1.86-2.4l2.985-.769-1.564-2.654a2.48 2.48 0 0 1 .383-3.015l2.283-2.283a2.482 2.482 0 0 1 3.015-.384l2.654 1.566.769-2.984a2.481 2.481 0 0 1 2.4-1.862h3.23a2.482 2.482 0 0 1 2.4 1.862l.77 2.985 2.652-1.566a2.482 2.482 0 0 1 3.015.383l2.284 2.284a2.48 2.48 0 0 1 .383 3.013l-1.567 2.654 2.986.769a2.485 2.485 0 0 1 1.86 2.4V762a2.483 2.483 0 0 1-1.86 2.4l-2.986.769 1.564 2.654a2.482 2.482 0 0 1-.383 3.015l-2.283 2.283a2.483 2.483 0 0 1-3.013.384l-2.655-1.567-.769 2.984a2.481 2.481 0 0 1-2.4 1.859zm-5.729-7.527a1.057 1.057 0 0 1 1.025.794l1.119 4.345a.369.369 0 0 0 .355.274h3.23a.369.369 0 0 0 .355-.275l1.119-4.343a1.057 1.057 0 0 1 1.287-.76 1.029 1.029 0 0 1 .275.113l3.865 2.281a.366.366 0 0 0 .444-.057l2.284-2.284a.368.368 0 0 0 .057-.445l-2.281-3.865a1.058 1.058 0 0 1 .373-1.448 1.079 1.079 0 0 1 .274-.113l4.346-1.119a.368.368 0 0 0 .274-.355v-3.228a.367.367 0 0 0-.276-.353l-4.345-1.121a1.057 1.057 0 0 1-.76-1.287 1.081 1.081 0 0 1 .114-.274l2.281-3.863a.37.37 0 0 0-.057-.446l-2.284-2.283a.368.368 0 0 0-.445-.057l-3.863 2.28a1.056 1.056 0 0 1-1.448-.373 1.081 1.081 0 0 1-.114-.274l-1.119-4.345a.367.367 0 0 0-.355-.274h-3.23a.367.367 0 0 0-.355.275l-1.119 4.343a1.057 1.057 0 0 1-1.286.763 1.027 1.027 0 0 1-.278-.116l-3.863-2.278a.363.363 0 0 0-.445.057l-2.284 2.283a.368.368 0 0 0-.056.446l2.28 3.863a1.057 1.057 0 0 1-.373 1.448 1.083 1.083 0 0 1-.274.113l-4.345 1.119a.366.366 0 0 0-.274.355V762a.365.365 0 0 0 .275.355l4.343 1.119a1.057 1.057 0 0 1 .76 1.287 1.074 1.074 0 0 1-.113.274l-2.281 3.865a.368.368 0 0 0 .057.445l2.284 2.284a.368.368 0 0 0 .446.056l3.862-2.283a1.05 1.05 0 0 1 .538-.144z" class="prefix__cls-3" data-name="Path 290" transform="translate(-1503.238 -723.203)"/>
    <path id="prefix__Path_291" d="M1539.531 763.052a6.005 6.005 0 1 1 6.007-6 6.005 6.005 0 0 1-6.007 6zm0-9.9a3.891 3.891 0 1 0 3.892 3.891 3.891 3.891 0 0 0-3.892-3.891z" class="prefix__cls-3" data-name="Path 291" transform="translate(-1499.9 -719.865)"/>
</svg>
