<svg xmlns="http://www.w3.org/2000/svg" id="prefix__ico-wyniki" width="64.296" height="62.651" viewBox="0 0 64.296 62.651">
    <defs>
        <style>
            .prefix__cls-2{fill:#163767}.prefix__cls-3{fill:#00a19a}
        </style>
    </defs>
    <g id="prefix__Group_101" data-name="Group 101" transform="translate(12.999 16.728)" style="opacity:.1;isolation:isolate">
        <path id="prefix__Path_313" d="M645.416 208.249a1.039 1.039 0 0 1-1.039-1.039V180.9a1.039 1.039 0 0 1 2.079 0v26.31a1.039 1.039 0 0 1-1.04 1.039z" class="prefix__cls-2" data-name="Path 313" transform="translate(-644.377 -178.035)"/>
        <path id="prefix__Path_314" d="M703.626 200.809a1.039 1.039 0 0 1-1.039-1.039V180.9a1.039 1.039 0 0 1 2.079 0v18.87a1.039 1.039 0 0 1-1.04 1.039z" class="prefix__cls-2" data-name="Path 314" transform="translate(-690.487 -178.035)"/>
        <path id="prefix__Path_315" d="M761.838 206.313a1.039 1.039 0 0 1-1.039-1.039v-4.215a1.039 1.039 0 1 1 2.079 0v4.215a1.039 1.039 0 0 1-1.04 1.039z" class="prefix__cls-2" data-name="Path 315" transform="translate(-736.599 -194.001)"/>
        <path id="prefix__Path_316" d="M820.048 208.249a1.039 1.039 0 0 1-1.039-1.039V180.9a1.039 1.039 0 0 1 2.079 0v26.31a1.039 1.039 0 0 1-1.04 1.039z" class="prefix__cls-2" data-name="Path 316" transform="translate(-782.709 -178.035)"/>
        <path id="prefix__Path_317" d="M878.26 223.958a1.039 1.039 0 0 1-1.039-1.039V180.9a1.039 1.039 0 0 1 2.079 0v42.017a1.039 1.039 0 0 1-1.04 1.041z" class="prefix__cls-2" data-name="Path 317" transform="translate(-828.821 -178.035)"/>
        <path id="prefix__Path_318" d="M670.461 175.258l-4.19-4.191h-20.828v2.868h20.828l4.19 4.19 4.19-4.19h20.828v-2.868h-20.828z" class="prefix__cls-2" data-name="Path 318" transform="translate(-645.221 -171.067)"/>
    </g>
    <path id="prefix__Path_319" d="M626.414 320.055a1.039 1.039 0 0 0 1.039-1.039V308.5h5.821v10.512a1.039 1.039 0 1 0 2.079 0v-11.548a1.039 1.039 0 0 0-1.039-1.039h-7.9a1.039 1.039 0 0 0-1.039 1.039v11.551a1.039 1.039 0 0 0 1.039 1.04z" class="prefix__cls-2" data-name="Path 319" transform="translate(-616.326 -261.561)"/>
    <path id="prefix__Path_320" d="M692.524 291.7a1.039 1.039 0 0 0 1.039-1.039V271.67a1.039 1.039 0 0 0-1.039-1.039h-7.9a1.039 1.039 0 0 0-1.039 1.039v18.992a1.039 1.039 0 1 0 2.079 0V272.71h5.821v17.952a1.039 1.039 0 0 0 1.039 1.038z" class="prefix__cls-2" data-name="Path 320" transform="translate(-662.436 -233.207)"/>
    <path id="prefix__Path_321" d="M750.736 251.83a1.039 1.039 0 0 0 1.039-1.039v-29.455a1.039 1.039 0 0 0-1.039-1.039h-7.9a1.039 1.039 0 0 0-1.039 1.039v29.454a1.039 1.039 0 0 0 2.079 0v-28.414h5.824v28.415a1.039 1.039 0 0 0 1.036 1.039z" class="prefix__cls-2" data-name="Path 321" transform="translate(-708.548 -193.336)"/>
    <path id="prefix__Path_322" d="M808.946 320.055a1.039 1.039 0 0 0 1.039-1.039v-11.552a1.039 1.039 0 0 0-1.039-1.039h-7.9a1.039 1.039 0 0 0-1.039 1.039v11.551a1.039 1.039 0 1 0 2.079 0V308.5h5.821v10.512a1.039 1.039 0 0 0 1.039 1.043z" class="prefix__cls-2" data-name="Path 322" transform="translate(-754.658 -261.561)"/>
    <path id="prefix__Path_323" d="M644.626 153.572h-60.7V94.67a1.039 1.039 0 1 0-2.079 0v59.941a1.039 1.039 0 0 0 1.039 1.039h61.743a1.039 1.039 0 0 0 0-2.079z" class="prefix__cls-2" data-name="Path 323" transform="translate(-581.843 -93)"/>
    <path id="prefix__Path_324" d="M691.518 90.593h-50.036a1.039 1.039 0 0 0-1.039 1.039v18.556a1.039 1.039 0 0 0 1.039 1.039h20.4l3.886 3.886a1.04 1.04 0 0 0 1.47 0l3.886-3.886h20.4a1.039 1.039 0 0 0 1.039-1.039V91.632a1.04 1.04 0 0 0-1.045-1.039zm-1.039 18.556H670.69a1.039 1.039 0 0 0-.735.3l-3.456 3.455-3.456-3.455a1.038 1.038 0 0 0-.735-.3h-19.786V92.672h47.957z" class="prefix__cls-2" data-name="Path 324" transform="translate(-628.262 -90.593)"/>
    <path id="prefix__Path_325" d="M684.212 115.119l.811 2.5a.574.574 0 0 0 .545.4h2.624a.573.573 0 0 1 .337 1.037l-2.123 1.542a.573.573 0 0 0-.208.641l.811 2.5a.573.573 0 0 1-.883.641L684 122.826a.574.574 0 0 0-.674 0l-2.123 1.542a.574.574 0 0 1-.883-.641l.811-2.5a.573.573 0 0 0-.208-.641l-2.123-1.542a.573.573 0 0 1 .337-1.037h2.624a.574.574 0 0 0 .545-.4l.811-2.5a.574.574 0 0 1 1.091 0z" class="prefix__cls-3" data-name="Path 325" transform="translate(-658.461 -109.707)"/>
    <path id="prefix__Path_326" d="M746.908 115.119l.811 2.5a.574.574 0 0 0 .545.4h2.624a.573.573 0 0 1 .337 1.037l-2.125 1.534a.573.573 0 0 0-.208.641l.811 2.5a.573.573 0 0 1-.883.641l-2.123-1.542a.574.574 0 0 0-.674 0l-2.123 1.542a.574.574 0 0 1-.883-.641l.811-2.5a.573.573 0 0 0-.208-.641l-2.123-1.542a.573.573 0 0 1 .337-1.037h2.624a.574.574 0 0 0 .545-.4l.811-2.5a.573.573 0 0 1 1.091 0z" class="prefix__cls-3" data-name="Path 326" transform="translate(-708.125 -109.707)"/>
    <path id="prefix__Path_327" d="M809.6 115.119l.811 2.5a.574.574 0 0 0 .545.4h2.624a.573.573 0 0 1 .337 1.037l-2.117 1.534a.573.573 0 0 0-.208.641l.811 2.5a.573.573 0 0 1-.883.641l-2.123-1.542a.574.574 0 0 0-.674 0l-2.123 1.542a.573.573 0 0 1-.883-.641l.811-2.5a.573.573 0 0 0-.208-.641l-2.123-1.542a.573.573 0 0 1 .337-1.037h2.624a.574.574 0 0 0 .545-.4l.811-2.5a.574.574 0 0 1 1.091 0z" class="prefix__cls-3" data-name="Path 327" transform="translate(-757.789 -109.707)"/>
</svg>
