<svg xmlns="http://www.w3.org/2000/svg" id="prefix__ico-obsluga" width="56.028" height="53.676" viewBox="0 0 56.028 53.676">
    <defs>
        <style>
            .prefix__cls-1,.prefix__cls-2{fill:#163767}.prefix__cls-1{opacity:.1}.prefix__cls-3{fill:#00a19a}
        </style>
    </defs>
    <path id="prefix__Path_19" d="M104.073 387.059H88.989a.822.822 0 0 1 0-1.643h15.084a.822.822 0 0 1 0 1.643z" class="prefix__cls-1" data-name="Path 19" transform="translate(-88.182 -339.395)"/>
    <path id="prefix__Path_20" d="M242.947 387.059h-13.486a.822.822 0 0 1 0-1.643h13.486a.822.822 0 0 1 0 1.643z" class="prefix__cls-1" data-name="Path 20" transform="translate(-205.975 -339.395)"/>
    <g id="prefix__Group_8" data-name="Group 8" transform="translate(0 7.376)">
        <path id="prefix__Path_21" d="M115.835 174.508a.807.807 0 1 0 1.615 0 9.19 9.19 0 0 0-8.589-9.232 8.829 8.829 0 0 0 2.585-6.276 8.631 8.631 0 1 0-17.26 0 8.829 8.829 0 0 0 2.585 6.274 9.189 9.189 0 0 0-8.589 9.232V195.7a.814.814 0 0 0 .807.822h15.084a.822.822 0 0 0 0-1.643h-9V174.46a.807.807 0 1 0-1.615 0v20.415H89.8v-20.367a7.546 7.546 0 0 1 7.471-7.6h1.971a.81.81 0 0 0 .785-.628.827.827 0 0 0-.415-.924 7.017 7.017 0 1 1 6.416 0 .826.826 0 0 0-.415.924.81.81 0 0 0 .785.628h1.971a7.546 7.546 0 0 1 7.47 7.6z" class="prefix__cls-2" data-name="Path 21" transform="translate(-88.182 -150.218)"/>
        <path id="prefix__Path_22" d="M226.752 293.576v3.311a.807.807 0 1 0 1.615 0v-3.311a.807.807 0 1 0-1.615 0z" class="prefix__cls-2" data-name="Path 22" transform="translate(-204.38 -269.334)"/>
        <path id="prefix__Path_23" d="M228.288 366.234a.814.814 0 0 0 .807.822h13.545a.822.822 0 0 0 0-1.643H229.1a.814.814 0 0 0-.812.821z" class="prefix__cls-2" data-name="Path 23" transform="translate(-205.668 -330.053)"/>
        <path id="prefix__Path_24" d="M226.858 316.454h-5.368v-2.73a.814.814 0 0 0-.807-.822h-7.159a.814.814 0 0 0-.807.822v2.73h-5.321a1.5 1.5 0 0 0-1.484 1.511v13a1.5 1.5 0 0 0 1.484 1.511h19.464a1.5 1.5 0 0 0 1.485-1.511v-13a1.5 1.5 0 0 0-1.485-1.511zm-12.528-1.909h5.545v1.909h-5.545zm12.4 16.283h-19.2V318.1h19.2z" class="prefix__cls-2" data-name="Path 24" transform="translate(-186.903 -286.171)"/>
    </g>
    <path id="prefix__Path_25" d="M279.968 133.074a13.388 13.388 0 0 1-7.314-2.165l-4.965 1.8a.8.8 0 0 1-.842-.193.831.831 0 0 1-.19-.857l1.776-5.065a13.986 13.986 0 0 1-2.1-7.4 13.635 13.635 0 1 1 13.632 13.874zm-7.207-3.9a.8.8 0 0 1 .454.143 11.81 11.81 0 0 0 6.752 2.113 12.233 12.233 0 1 0-12.017-12.23 12.319 12.319 0 0 0 2.05 6.829.833.833 0 0 1 .091.735l-1.338 3.816 3.74-1.358a.8.8 0 0 1 .272-.048z" class="prefix__cls-3" data-name="Path 25" transform="translate(-237.573 -105.326)"/>
    <path id="prefix__Path_26" d="M304.57 151.838a9.056 9.056 0 1 1 8.9-9.055 8.987 8.987 0 0 1-8.9 9.055zm0-16.466a7.413 7.413 0 1 0 7.283 7.412 7.357 7.357 0 0 0-7.283-7.412z" data-name="Path 26" transform="translate(-262.173 -129.061)" style="fill:#00a19a;opacity:.1"/>
    <path id="prefix__Path_27" d="M329.109 176.1a.8.8 0 0 1-.605-.278l-2.481-2.862a.832.832 0 0 1 .071-1.16.8.8 0 0 1 1.14.073l1.871 2.158 3.778-4.426a.8.8 0 0 1 1.139-.081.832.832 0 0 1 .08 1.159l-4.383 5.134a.8.8 0 0 1-.606.283z" class="prefix__cls-3" data-name="Path 27" transform="translate(-287.453 -158.803)"/>
</svg>
