<svg xmlns="http://www.w3.org/2000/svg" id="prefix__ico-linkedin" width="20.59" height="20.545" viewBox="0 0 20.59 20.545">
    <defs>
        <style>
            .prefix__cls-1{fill:#fff}
        </style>
    </defs>
    <path id="prefix__Path_183" d="M9.393 99.73H5.259a.332.332 0 0 0-.332.332v13.279a.332.332 0 0 0 .332.332h4.134a.332.332 0 0 0 .332-.332v-13.279a.332.332 0 0 0-.332-.332z" class="prefix__cls-1" data-name="Path 183" transform="translate(-4.6 -93.128)"/>
    <path id="prefix__Path_184" d="M2.728.341a2.725 2.725 0 1 0 2.725 2.725A2.729 2.729 0 0 0 2.728.341z" class="prefix__cls-1" data-name="Path 184" transform="translate(0 -.341)"/>
    <path id="prefix__Path_185" d="M114.431 94.761a4.855 4.855 0 0 0-3.632 1.525v-.862a.332.332 0 0 0-.332-.332h-3.959a.332.332 0 0 0-.332.332V108.7a.332.332 0 0 0 .332.332h4.125a.332.332 0 0 0 .332-.332v-6.57c0-2.214.6-3.077 2.145-3.077 1.681 0 1.814 1.383 1.814 3.19v6.457a.332.332 0 0 0 .332.332h4.126a.332.332 0 0 0 .332-.332v-7.284c0-3.29-.628-6.655-5.283-6.655z" class="prefix__cls-1" data-name="Path 185" transform="translate(-99.124 -88.49)"/>
</svg>
