<svg xmlns="http://www.w3.org/2000/svg" width="98.223" height="59.725" viewBox="0 0 98.223 59.725">
    <defs>
        <style>
            .prefix__cls-2{fill:#163767}
        </style>
    </defs>
    <g id="prefix__ico-cele">
        <g id="prefix__Group_27" data-name="Group 27" transform="translate(1.156 13.139)" style="opacity:.15">
            <path id="prefix__Path_115" d="M226.9 336.329a8.3 8.3 0 0 1-7.924-5.857 8.3 8.3 0 1 0 15.848 0 8.3 8.3 0 0 1-7.924 5.857z" class="prefix__cls-2" data-name="Path 115" transform="translate(-179.299 -296.448)"/>
            <path id="prefix__Path_116" d="M143.6 252.965a8.3 8.3 0 0 1-7.924-5.857 8.3 8.3 0 1 0 15.848 0 8.3 8.3 0 0 1-7.924 5.857z" class="prefix__cls-2" data-name="Path 116" transform="translate(-115.265 -232.45)"/>
            <path id="prefix__Path_117" d="M56.962 338.885a8.3 8.3 0 0 1-7.924-5.857 8.3 8.3 0 1 0 15.848 0 8.3 8.3 0 0 1-7.924 5.857z" class="prefix__cls-2" data-name="Path 117" transform="translate(-48.666 -298.41)"/>
            <ellipse id="prefix__Ellipse_12" cx="6.88" cy="6.909" class="prefix__cls-2" data-name="Ellipse 12" rx="6.88" ry="6.909" transform="translate(70.224)"/>
        </g>
        <path id="prefix__Path_118" d="M396.056 222.195l-6.939-6.969 4.161-2.8a.819.819 0 0 0-.264-1.475l-14.165-3.406a.816.816 0 0 0-.982.986l3.391 14.227a.813.813 0 0 0 1.468.265l2.792-4.18 6.939 6.969a.812.812 0 0 0 1.151 0l2.447-2.458a.82.82 0 0 0 .001-1.159z" data-name="Path 118" transform="translate(-300.552 -188.918)" style="fill:#00a19a"/>
        <path id="prefix__Path_119" d="M121.927 127.446a20.052 20.052 0 0 0-14.9 33.371l-8.772 8.81a9.364 9.364 0 0 0-11.627-.026l-6.028-6.052a9.455 9.455 0 1 0-14.959-.093l-6.714 6.744a9.369 9.369 0 0 0-5.807-2.019 9.508 9.508 0 1 0 7.443 3.661l6.694-6.723a9.371 9.371 0 0 0 11.712.07l6.022 6.049a9.454 9.454 0 1 0 14.895.035l8.778-8.816a19.873 19.873 0 0 0 23.306 2.366 1.16 1.16 0 0 0-1.165-2.007 17.581 17.581 0 0 1-21.324-2.772c-.008-.009-.014-.019-.023-.028s-.019-.014-.028-.023a17.647 17.647 0 1 1 27.953-3.936 1.157 1.157 0 1 0 2.024 1.124 20.069 20.069 0 0 0-17.479-29.739zm-68.807 57.4a7.171 7.171 0 0 1 0-14.342 7.089 7.089 0 0 1 4.836 1.91 1.051 1.051 0 0 0 .4.4 7.166 7.166 0 0 1-5.238 12.028zm12.9-27.13a7.14 7.14 0 1 1 7.14 7.171 7.164 7.164 0 0 1-7.142-7.168zm26.406 26.537a7.171 7.171 0 1 1 7.14-7.171 7.164 7.164 0 0 1-7.14 7.171z" class="prefix__cls-2" data-name="Path 119" transform="translate(-43.666 -127.446)"/>
        <path id="prefix__Path_120" d="M340.91 160.26a12.429 12.429 0 0 0-1.063 24.807h.1a1.162 1.162 0 0 0 .1-2.319 10.1 10.1 0 1 1 10.841-11.348 1.157 1.157 0 1 0 2.295-.293 12.409 12.409 0 0 0-12.273-10.847z" class="prefix__cls-2" data-name="Path 120" transform="translate(-262.65 -152.637)"/>
    </g>
</svg>
