<svg xmlns="http://www.w3.org/2000/svg" id="prefix__ico-sprzedaz" width="49.014" height="57.004" viewBox="0 0 49.014 57.004">
    <g id="prefix__Group_7" data-name="Group 7">
        <g id="prefix__Group_6" data-name="Group 6">
            <path id="prefix__Path_16" d="M151.363 382.1H105.5a.79.79 0 0 1 0-1.579h45.86a.79.79 0 0 1 0 1.579z" data-name="Path 16" transform="translate(-103.976 -329.201)" style="opacity:.1;fill:#163767"/>
            <path id="prefix__Path_17" d="M148.994 111.571l-7.271-40.2a.787.787 0 0 0-.773-.648h-5.122V66.9v-.037a11.328 11.328 0 1 0-22.656 0v3.86h-5.122a.787.787 0 0 0-.773.648l-7.271 40.2a.789.789 0 0 0 .773.931h47.443a.789.789 0 0 0 .773-.931zM134.257 72.3v5.4h-1.7l1.648-5.393zm-19.514-5.536a9.757 9.757 0 0 1 19.514 0l-1.209 3.957h-17.1zm0 5.536h.049l1.648 5.393h-1.7V72.3zm-13.023 38.623l6.985-38.623h4.467v6.183a.787.787 0 0 0 .785.79h3.543a.789.789 0 0 0 .751-1.021l-1.816-5.952h16.131l-1.818 5.951a.789.789 0 0 0 .751 1.021h3.545a.787.787 0 0 0 .785-.79V72.3h4.471l6.985 38.618z" data-name="Path 17" transform="translate(-99.993 -55.498)" style="fill:#163767"/>
            <path id="prefix__Path_18" d="M203.654 236.514a.786.786 0 0 0 .746-.542l3.142-9.553a.793.793 0 0 0-.109-.71.785.785 0 0 0-.637-.327h-16.338v-1.09a2.529 2.529 0 1 0-5.058 0v1.408a.785.785 0 1 0 1.571 0v-1.405a.958.958 0 1 1 1.916 0v14.087A2.522 2.522 0 1 0 192 239.83h8.067a2.511 2.511 0 1 0 2.328-1.579h-11.937v-1.737zm-13.2-4.777h3.351v3.2h-3.351zm8.221 0v3.2h-3.3v-3.2zm-3.3-1.579v-3.2h3.3v3.2zm7.706 4.777h-2.831v-3.2h3.888zm1.571-4.777h-4.402v-3.2h5.459zm-10.848-3.2v3.2h-3.351v-3.2zm-3.194 13.817a.943.943 0 1 1-.943-.947.946.946 0 0 1 .948.949zm11.782.947a.947.947 0 1 1 .943-.947.946.946 0 0 1-.935.95z" data-name="Path 18" transform="translate(-171.983 -195.498)" style="fill:#00a19a"/>
        </g>
    </g>
</svg>
