<svg xmlns="http://www.w3.org/2000/svg" id="prefix__ico-naleznosci" width="48.341" height="55.251" viewBox="0 0 48.341 55.251">
    <defs>
        <style>
            .prefix__cls-1{fill:#00a19a}
        </style>
    </defs>
    <g id="prefix__Group_13" data-name="Group 13" transform="translate(210.175 27.583)">
        <path id="prefix__Path_52" d="M-185.855 16.15a1.922 1.922 0 0 1-1.918-1.924V13.7a6.316 6.316 0 0 1-3.383-1.767 5.9 5.9 0 0 1-1.5-2.824 2.033 2.033 0 0 1 .391-1.729 2.028 2.028 0 0 1 1.595-.772 2.016 2.016 0 0 1 1.977 1.555 2.2 2.2 0 0 0 .607 1.116 2.939 2.939 0 0 0 2.151.7 2.877 2.877 0 0 0 1.946-.607 1.706 1.706 0 0 0 .617-1.394 1.646 1.646 0 0 0-.475-1.256 7.08 7.08 0 0 0-2.574-1.312 9.91 9.91 0 0 1-4.353-2.383 5.591 5.591 0 0 1-1.45-3.949 5.662 5.662 0 0 1 1.583-4.117 5.9 5.9 0 0 1 2.9-1.595v-.707a1.928 1.928 0 0 1 1.925-1.929 1.927 1.927 0 0 1 1.924 1.929v.721a5.6 5.6 0 0 1 2.992 1.853 6.3 6.3 0 0 1 1.312 2.882 2.022 2.022 0 0 1-.428 1.671 2.027 2.027 0 0 1-1.571.742 2.03 2.03 0 0 1-1.986-1.606 2.543 2.543 0 0 0-.568-1.2 2.1 2.1 0 0 0-1.7-.675 2.5 2.5 0 0 0-1.776.547 1.852 1.852 0 0 0-.545 1.447A1.613 1.613 0 0 0-187.7.35a7.2 7.2 0 0 0 2.529 1.258 14.378 14.378 0 0 1 3.4 1.544 5.7 5.7 0 0 1 1.853 2.028 5.868 5.868 0 0 1 .629 2.774 5.57 5.57 0 0 1-1.629 4.136 6.093 6.093 0 0 1-3 1.578v.557a1.923 1.923 0 0 1-1.918 1.923zm-4.813-8.228a.723.723 0 0 0-.572.277.725.725 0 0 0-.14.617 4.606 4.606 0 0 0 1.163 2.207 5.253 5.253 0 0 0 3.184 1.475.655.655 0 0 1 .567.649v1.08a.618.618 0 0 0 .611.618.618.618 0 0 0 .612-.618v-1.1a.655.655 0 0 1 .556-.648 5.012 5.012 0 0 0 2.838-1.321 4.3 4.3 0 0 0 1.235-3.2 4.575 4.575 0 0 0-.476-2.158 4.418 4.418 0 0 0-1.441-1.56 13.145 13.145 0 0 0-3.077-1.38 8.512 8.512 0 0 1-3-1.538 2.96 2.96 0 0 1-.88-2.27 3.156 3.156 0 0 1 .958-2.4 3.712 3.712 0 0 1 2.67-.9 3.4 3.4 0 0 1 2.683 1.118 3.865 3.865 0 0 1 .866 1.8.721.721 0 0 0 .705.562.727.727 0 0 0 .564-.266.707.707 0 0 0 .153-.591 5 5 0 0 0-1.03-2.294 4.457 4.457 0 0 0-2.746-1.519.654.654 0 0 1-.54-.645v-1.26a.618.618 0 0 0-.618-.617.617.617 0 0 0-.617.617V-6.1a.654.654 0 0 1-.55.646 4.8 4.8 0 0 0-2.731 1.331 4.391 4.391 0 0 0-1.207 3.2 4.323 4.323 0 0 0 1.1 3.056 8.752 8.752 0 0 0 3.809 2.033 8.4 8.4 0 0 1 3.08 1.62 2.95 2.95 0 0 1 .868 2.193 3.007 3.007 0 0 1-1.079 2.394 4.119 4.119 0 0 1-2.791.919A4.163 4.163 0 0 1-189 10.223a3.522 3.522 0 0 1-.969-1.758.72.72 0 0 0-.7-.542z" class="prefix__cls-1" data-name="Path 52"/>
        <path id="prefix__Path_99" d="M-186.005-11.992a7.806 7.806 0 0 1-7.775-7.8 7.808 7.808 0 0 1 7.775-7.8 7.807 7.807 0 0 1 7.775 7.8 7.805 7.805 0 0 1-7.775 7.8zm0-14.148a6.362 6.362 0 0 0-6.336 6.352 6.361 6.361 0 0 0 6.336 6.353 6.361 6.361 0 0 0 6.337-6.353 6.363 6.363 0 0 0-6.337-6.352z" class="prefix__cls-1" data-name="Path 99"/>
        <path id="prefix__Path_100" d="M-187.024-16.73a.874.874 0 0 1-.6-.236l-2.461-2.31a.86.86 0 0 1-.276-.609.866.866 0 0 1 .236-.627.877.877 0 0 1 .638-.277.873.873 0 0 1 .6.237l1.852 1.738 3.9-3.784a.869.869 0 0 1 .609-.247.868.868 0 0 1 .628.266.876.876 0 0 1-.019 1.237l-4.5 4.365a.872.872 0 0 1-.607.247z" class="prefix__cls-1" data-name="Path 100"/>
    </g>
    <path id="prefix__Path_101" d="M-186 27.668a24.27 24.27 0 0 1-24.175-24.234 24.371 24.371 0 0 1 12.235-21.076.814.814 0 0 1 .4-.1.806.806 0 0 1 .7.408.809.809 0 0 1-.3 1.1 22.746 22.746 0 0 0-11.424 19.669 22.651 22.651 0 0 0 22.556 22.618 22.651 22.651 0 0 0 22.559-22.619 22.577 22.577 0 0 0-10.284-18.979l-.131-.086-.044 5.685a.8.8 0 0 1-.236.57.8.8 0 0 1-.569.238.809.809 0 0 1-.806-.808v-7.13a.8.8 0 0 1 .235-.57.809.809 0 0 1 .57-.237h7.111a.807.807 0 0 1 .57.237.8.8 0 0 1 .236.571.808.808 0 0 1-.805.807h-4.251l.19.2a24.378 24.378 0 0 1 9.829 19.5A24.27 24.27 0 0 1-186 27.668z" data-name="Path 101" transform="translate(210.175 27.583)" style="fill:#163767"/>
    <path id="prefix__Path_102" d="M-185.987 22.6A19.208 19.208 0 0 1-205.1 3.438a19.108 19.108 0 0 1 8.47-15.9.8.8 0 0 1 .448-.137.806.806 0 0 1 .669.355.814.814 0 0 1-.219 1.121 17.5 17.5 0 0 0-7.757 14.566 17.55 17.55 0 0 0 17.481 17.53 17.55 17.55 0 0 0 17.48-17.53 17.49 17.49 0 0 0-4.486-11.721.809.809 0 0 1 .059-1.14.8.8 0 0 1 .541-.209.808.808 0 0 1 .6.263 19.1 19.1 0 0 1 4.9 12.807A19.168 19.168 0 0 1-186 22.578z" data-name="Path 102" transform="translate(210.175 27.583)" style="opacity:.1;isolation:isolate;fill:#163767"/>
</svg>
