<svg xmlns="http://www.w3.org/2000/svg" width="78.029" height="59.565" viewBox="0 0 78.029 59.565">
    <defs>
        <style>
            .prefix__cls-1{fill:#163767}
        </style>
    </defs>
    <g id="prefix__ico-elastycznosc">
        <g id="prefix__Group_103" data-name="Group 103">
            <g id="prefix__Group_102" data-name="Group 102">
                <path id="prefix__Path_328" d="M-358.88 157.806a.955.955 0 0 0-.955.955v6.139h-56.787v-55.75h56.787v6.134a.955.955 0 0 0 .955.955.955.955 0 0 0 .955-.955v-7.089a.955.955 0 0 0-.955-.955h-58.7a.955.955 0 0 0-.955.955v57.655a.955.955 0 0 0 .955.955h58.7a.955.955 0 0 0 .955-.955v-7.089a.955.955 0 0 0-.955-.955z" class="prefix__cls-1" data-name="Path 328" transform="translate(418.532 -107.24)"/>
                <path id="prefix__Path_329" d="M-351.571 170.95v-12.612a4.637 4.637 0 0 0 3.675-4.53 4.635 4.635 0 0 0-4.63-4.63 4.636 4.636 0 0 0-4.63 4.63 4.638 4.638 0 0 0 3.675 4.53V170h-20.027a.955.955 0 0 0-.955.955v12.612a4.637 4.637 0 0 0-3.675 4.53 4.635 4.635 0 0 0 4.63 4.63 4.636 4.636 0 0 0 4.631-4.63 4.637 4.637 0 0 0-3.676-4.53v-11.662h20.027a.955.955 0 0 0 .955-.955zm-19.216 17.142a2.723 2.723 0 0 1-2.721 2.72 2.723 2.723 0 0 1-2.72-2.72 2.723 2.723 0 0 1 2.72-2.72 2.723 2.723 0 0 1 2.72 2.72zm15.541-34.284a2.723 2.723 0 0 1 2.72-2.72 2.723 2.723 0 0 1 2.72 2.72 2.723 2.723 0 0 1-2.72 2.72 2.723 2.723 0 0 1-2.72-2.72z" class="prefix__cls-1" data-name="Path 329" transform="translate(385.853 -141.168)"/>
                <path id="prefix__Path_330" d="M-118.405 215.136v-1.6a.955.955 0 0 0-.955-.955.955.955 0 0 0-.955.955v1.6a3.108 3.108 0 0 0-2.149 2.952 3.108 3.108 0 0 0 2.149 2.952v9.909a.955.955 0 0 0 .955.955.955.955 0 0 0 .955-.955v-9.909a3.108 3.108 0 0 0 2.149-2.952 3.108 3.108 0 0 0-2.149-2.952zm-.955 4.145a1.2 1.2 0 0 1-1.194-1.194 1.2 1.2 0 0 1 1.194-1.194 1.2 1.2 0 0 1 1.194 1.194 1.2 1.2 0 0 1-1.194 1.195z" class="prefix__cls-1" data-name="Path 330" transform="translate(179.013 -192.459)"/>
                <path id="prefix__Path_331" d="M-73.595 223.1a3.108 3.108 0 0 0-2.149-2.952v-6.618a.955.955 0 0 0-.955-.955.955.955 0 0 0-.955.955v6.618A3.108 3.108 0 0 0-79.8 223.1a3.108 3.108 0 0 0 2.149 2.952v4.894a.955.955 0 0 0 .955.955.955.955 0 0 0 .955-.955v-4.894a3.107 3.107 0 0 0 2.149-2.951zm-3.1 1.194a1.2 1.2 0 0 1-1.194-1.194 1.2 1.2 0 0 1 1.194-1.194A1.2 1.2 0 0 1-75.5 223.1a1.2 1.2 0 0 1-1.2 1.2z" class="prefix__cls-1" data-name="Path 331" transform="translate(144.499 -192.459)"/>
                <path id="prefix__Path_332" d="M-162.022 231.906a.955.955 0 0 0 .955-.955v-2.481a3.108 3.108 0 0 0 2.149-2.952 3.108 3.108 0 0 0-2.149-2.952v-9.031a.955.955 0 0 0-.955-.955.955.955 0 0 0-.955.955v9.031a3.108 3.108 0 0 0-2.149 2.952 3.108 3.108 0 0 0 2.149 2.952v2.481a.955.955 0 0 0 .955.955zm0-7.582a1.2 1.2 0 0 1 1.194 1.194 1.2 1.2 0 0 1-1.194 1.194 1.2 1.2 0 0 1-1.194-1.194 1.2 1.2 0 0 1 1.194-1.194z" class="prefix__cls-1" data-name="Path 332" transform="translate(213.526 -192.46)"/>
            </g>
            <path id="prefix__Path_333" d="M-184.051 203.709a18.4 18.4 0 0 1-18.377-18.377 18.4 18.4 0 0 1 18.377-18.377 18.4 18.4 0 0 1 18.377 18.377 18.4 18.4 0 0 1-18.377 18.377zm0-34.843a16.485 16.485 0 0 0-16.467 16.467 16.486 16.486 0 0 0 16.467 16.467 16.485 16.485 0 0 0 16.467-16.467 16.485 16.485 0 0 0-16.467-16.467z" data-name="Path 333" transform="translate(243.704 -155.55)" style="fill:#00a19a"/>
        </g>
        <path id="prefix__Path_334" d="M-294.635 296.314a.954.954 0 0 0-1.35 0l-2.554 2.554-2.554-2.554a.954.954 0 0 0-1.35 0 .954.954 0 0 0 0 1.35l2.554 2.554-2.554 2.554a.954.954 0 0 0 0 1.35.952.952 0 0 0 .675.28.952.952 0 0 0 .675-.28l2.554-2.554 2.554 2.554a.952.952 0 0 0 .675.28.952.952 0 0 0 .675-.28.954.954 0 0 0 0-1.35l-2.554-2.554 2.554-2.554a.955.955 0 0 0 0-1.35z" data-name="Path 334" transform="translate(324.843 -259.975)" style="opacity:.1;isolation:isolate;fill:#163767"/>
        <path id="prefix__Path_335" d="M-338.752 194.579a.952.952 0 0 0 .675.28.952.952 0 0 0 .675-.28l2.554-2.554 2.554 2.554a.952.952 0 0 0 .675.28.952.952 0 0 0 .675-.28.954.954 0 0 0 0-1.35l-2.554-2.554 2.554-2.554a.954.954 0 0 0 0-1.35.954.954 0 0 0-1.35 0l-2.554 2.554-2.554-2.554a.954.954 0 0 0-1.35 0 .954.954 0 0 0 0 1.35l2.554 2.554-2.555 2.554a.954.954 0 0 0 0 1.35z" class="prefix__cls-1" data-name="Path 335" transform="translate(354.216 -171.354)"/>
    </g>
</svg>
