<svg xmlns="http://www.w3.org/2000/svg" id="prefix__ico-lider" width="70.375" height="79.743" viewBox="0 0 70.375 79.743">
    <defs>
        <style>
            .prefix__cls-1,.prefix__cls-3{fill:#fff}.prefix__cls-1{opacity:.15;isolation:isolate}.prefix__cls-2{fill:#18ede2}
        </style>
    </defs>
    <path id="prefix__Path_272" d="M1453.667 795.1a1.033 1.033 0 0 1-1.032-1.032v-18.995a1.033 1.033 0 0 1 2.066 0v18.991a1.033 1.033 0 0 1-1.034 1.036z" class="prefix__cls-1" data-name="Path 272" transform="translate(-1446.746 -715.354)"/>
    <path id="prefix__Path_273" d="M1496.215 795.1a1.033 1.033 0 0 1-1.032-1.032v-18.995a1.033 1.033 0 0 1 2.066 0v18.991a1.033 1.033 0 0 1-1.034 1.036z" class="prefix__cls-1" data-name="Path 273" transform="translate(-1432.76 -715.354)"/>
    <g id="prefix__Group_64" data-name="Group 64" transform="translate(17.099 11.48)">
        <path id="prefix__Path_274" d="M1494.839 740.966h-4.18v-1.419a1.033 1.033 0 0 0-1.032-1.034H1468.7a1.033 1.033 0 0 0-1.033 1.034v1.419h-4.18a2.414 2.414 0 0 0-2.412 2.41v2.8a7.632 7.632 0 0 0 6.709 7.563 11.535 11.535 0 0 0 6.919 8.968v5.06h-5.368a3.672 3.672 0 1 0 0 7.344h19.66a3.672 3.672 0 0 0 0-7.344h-5.368V762.7a11.532 11.532 0 0 0 6.919-8.968 7.632 7.632 0 0 0 6.709-7.563v-2.8a2.414 2.414 0 0 0-2.412-2.41zm-31.7 5.206v-2.8a.345.345 0 0 1 .345-.345h4.18v8.6a5.563 5.563 0 0 1-4.526-5.455zm27.459 25.262a1.608 1.608 0 0 1-1.606 1.606h-19.66a1.606 1.606 0 1 1 0-3.212h19.66a1.608 1.608 0 0 1 1.608 1.605zm-9.039-3.671h-4.794v-4.413a11.507 11.507 0 0 0 4.794 0zm-2.4-6.225a9.444 9.444 0 0 1-9.433-9.433v-11.526h18.865V752.1a9.444 9.444 0 0 1-9.433 9.433zm16.023-15.365a5.565 5.565 0 0 1-4.526 5.458v-8.6h4.18a.346.346 0 0 1 .345.345z" class="prefix__cls-2" data-name="Path 274" transform="translate(-1461.072 -738.513)"/>
        <path id="prefix__Path_275" d="M1475.026 750.846a1.144 1.144 0 0 0-.882.364 1.206 1.206 0 0 0-.312.826 1.141 1.141 0 0 0 1.194 1.164 1.193 1.193 0 0 0 .868-.34 1.152 1.152 0 0 0 .335-.825 1.19 1.19 0 0 0-.328-.835 1.177 1.177 0 0 0-.874-.355z" class="prefix__cls-2" data-name="Path 275" transform="translate(-1456.878 -734.459)"/>
        <path id="prefix__Path_276" d="M1475.873 742.262a3.91 3.91 0 0 0-2.713.974 3.432 3.432 0 0 0-1.116 2.618.488.488 0 0 0 .488.494h1.024a.488.488 0 0 0 .488-.48 1.656 1.656 0 0 1 .5-1.25 1.865 1.865 0 0 1 1.334-.458 1.6 1.6 0 0 1 1.241.46 1.906 1.906 0 0 1 .442 1.359 2.65 2.65 0 0 1-.11.8 2.339 2.339 0 0 1-.313.634 10.1 10.1 0 0 1-1.042 1.121 5.26 5.26 0 0 0-1.218 1.618 4.953 4.953 0 0 0-.314 1.815.486.486 0 0 0 .488.5h1.024a.487.487 0 0 0 .488-.488 2.451 2.451 0 0 1 .816-2.016 7.912 7.912 0 0 0 1.706-2.033 4.231 4.231 0 0 0 .477-1.968 3.676 3.676 0 0 0-1-2.689 3.635 3.635 0 0 0-2.687-1.008z" class="prefix__cls-2" data-name="Path 276" transform="translate(-1457.466 -737.281)"/>
    </g>
    <path id="prefix__Path_277" d="M1496.029 788.872h-33.811a1.033 1.033 0 0 1-1.034-1.032v-9.511a1.033 1.033 0 0 1 1.034-1.032h33.811a1.033 1.033 0 0 1 1.032 1.032v9.511a1.033 1.033 0 0 1-1.032 1.032zm-32.778-2.065H1495v-7.445h-31.746z" class="prefix__cls-2" data-name="Path 277" transform="translate(-1443.936 -714.284)"/>
    <g id="prefix__Group_65" data-name="Group 65">
        <path id="prefix__Path_278" d="M1517.548 775.524h-4.855v-4.963a1.033 1.033 0 0 0-1.034-1.032h-56.536a1.033 1.033 0 0 0-1.032 1.032v4.963h-4.855a1.033 1.033 0 0 0-1.032 1.032v18.991a1.033 1.033 0 0 0 1.032 1.032h68.311a1.032 1.032 0 0 0 1.032-1.032v-18.99a1.031 1.031 0 0 0-1.031-1.033zm-61.391-3.929h54.47v3.929h-54.47zm60.357 22.919h-66.245v-16.925h66.245v16.925z" class="prefix__cls-3" data-name="Path 278" transform="translate(-1448.203 -716.837)"/>
        <path id="prefix__Path_279" d="M1455.773 778.718a1.032 1.032 0 0 0 .395-1.406 30.46 30.46 0 1 1 53.13 0 1.032 1.032 0 1 0 1.8 1.013 32.525 32.525 0 1 0-56.73 0 1.031 1.031 0 0 0 1.406.393z" class="prefix__cls-3" data-name="Path 279" transform="translate(-1447.544 -729.873)"/>
    </g>
</svg>
