<svg xmlns="http://www.w3.org/2000/svg" id="prefix__ico-phone" width="31.403" height="31.44" viewBox="0 0 31.403 31.44">
    <defs>
        <style>
            .prefix__cls-1{fill:#00a19a}
        </style>
    </defs>
    <g id="prefix__Group_22" data-name="Group 22">
        <path id="prefix__Path_92" d="M22.535 58.152c.142.006.277.013.419.013a4.925 4.925 0 0 0 3.771-1.624l.026-.026A14.894 14.894 0 0 1 27.93 55.3c.29-.277.587-.561.864-.857a2.993 2.993 0 0 0-.013-4.454l-3.674-3.674a3.011 3.011 0 0 0-2.185-1.006 3.106 3.106 0 0 0-2.2.993l-2.177 2.168c-.193-.11-.393-.206-.587-.3-.245-.122-.471-.238-.67-.361a23.058 23.058 0 0 1-5.524-5.034 12.977 12.977 0 0 1-1.85-2.952c.567-.516 1.1-1.051 1.6-1.573.187-.187.374-.38.567-.574a2.921 2.921 0 0 0 0-4.46l-1.824-1.824c-.213-.213-.419-.425-.625-.632-.406-.413-.825-.844-1.244-1.231a3.042 3.042 0 0 0-2.172-.96 3.17 3.17 0 0 0-2.2.96l-2.288 2.279A4.77 4.77 0 0 0 .31 34.844a11.411 11.411 0 0 0 .851 4.912 28.745 28.745 0 0 0 5.092 8.5 31.431 31.431 0 0 0 10.436 8.173 16.2 16.2 0 0 0 5.846 1.723zM7.471 47.239a27.159 27.159 0 0 1-4.821-8.031 9.776 9.776 0 0 1-.761-4.235 3.157 3.157 0 0 1 .96-2.05l2.275-2.275a1.611 1.611 0 0 1 1.1-.509 1.551 1.551 0 0 1 1.076.516c.406.38.8.78 1.212 1.2.206.213.419.432.638.645l1.824 1.824a1.389 1.389 0 0 1 0 2.23c-.193.193-.387.387-.574.58-.567.574-1.1 1.115-1.682 1.637l-.032.032a1.23 1.23 0 0 0-.316 1.4c.006.019.013.032.019.052a14.583 14.583 0 0 0 2.153 3.5 24.583 24.583 0 0 0 5.911 5.382 9.118 9.118 0 0 0 .812.445c.245.122.471.238.67.361.026.013.045.026.071.039a1.347 1.347 0 0 0 .612.155 1.294 1.294 0 0 0 .935-.432l2.288-2.288a1.57 1.57 0 0 1 1.089-.529 1.537 1.537 0 0 1 1.057.529l3.691 3.683a1.447 1.447 0 0 1-.019 2.25c-.258.277-.529.535-.812.812a16.766 16.766 0 0 0-1.283 1.328 3.323 3.323 0 0 1-2.6 1.1c-.1 0-.213-.006-.316-.013A14.72 14.72 0 0 1 17.391 55a29.617 29.617 0 0 1-9.92-7.761z" class="prefix__cls-1" data-name="Path 92" transform="translate(-.284 -26.725)"/>
        <path id="prefix__Path_93" d="M254.741 89.111a.788.788 0 1 0-.264 1.553 8.711 8.711 0 0 1 7.1 7.1.788.788 0 0 0 .78.657.96.96 0 0 0 .135-.013.783.783 0 0 0 .645-.909 10.278 10.278 0 0 0-8.392-8.386z" class="prefix__cls-1" data-name="Path 93" transform="translate(-237.479 -83.357)"/>
        <path id="prefix__Path_94" d="M271.926 14.791a.961.961 0 0 0 .135-.013.783.783 0 0 0 .645-.909A17 17 0 0 0 258.841.011a.788.788 0 1 0-.264 1.553 15.43 15.43 0 0 1 12.569 12.569.788.788 0 0 0 .78.658z" class="prefix__cls-1" data-name="Path 94" transform="translate(-241.315)"/>
    </g>
</svg>
