<svg xmlns="http://www.w3.org/2000/svg" id="prefix__ico-pin" width="31.289" height="35.673" viewBox="0 0 31.289 35.673">
    <defs>
        <style>
            .prefix__cls-1{fill:#00a19a}
        </style>
    </defs>
    <path id="prefix__Path_245" d="M464.993 313.341a33.2 33.2 0 0 1-10.765-1.6c-4.033-1.44-4.88-3.244-4.88-4.5 0-3.08 4.981-4.944 9.642-5.661l.392-.061-3.629-5.694a11.328 11.328 0 0 1-2.165-6.678 11.4 11.4 0 1 1 22.808 0 11.318 11.318 0 0 1-2.1 6.581c-.045.059-.045.059-1.116 1.741l-2.581 4.05.392.061c2.262.348 9.642 1.784 9.642 5.661.004 3.959-8.056 6.1-15.64 6.1zm-4.821-10.311c-6.054.753-9.221 2.687-9.221 4.208 0 2.124 6 4.5 14.042 4.5s14.042-2.376 14.042-4.5c0-1.521-3.168-3.455-9.222-4.208l-.162-.021-3.983 6.25a.8.8 0 0 1-1.351 0l-3.983-6.25zm4.821-23.759a9.849 9.849 0 0 0-9.8 9.873 9.726 9.726 0 0 0 1.868 5.749l7.934 12.445 5.083-7.978c2.541-3.986 2.866-4.5 2.9-4.541a9.737 9.737 0 0 0 1.818-5.675 9.848 9.848 0 0 0-9.803-9.874z" class="prefix__cls-1" data-name="Path 245" transform="translate(-449.348 -277.668)"/>
    <path id="prefix__Path_246" d="M466 294.793a5.042 5.042 0 1 1 5.043-5.042 5.049 5.049 0 0 1-5.043 5.042zm0-8.482a3.44 3.44 0 1 0 3.439 3.44 3.444 3.444 0 0 0-3.439-3.44z" class="prefix__cls-1" data-name="Path 246" transform="translate(-450.351 -278.277)"/>
</svg>
