<svg xmlns="http://www.w3.org/2000/svg" id="prefix__ico-search" width="14.88" height="14.879" viewBox="0 0 14.88 14.879">
    <g id="prefix__Group_23" data-name="Group 23">
        <path id="prefix__Path_98" d="M5.315 19.131a.957.957 0 0 1-.691-.285l-.1-.1a1.252 1.252 0 0 1 .221-1.774l3.167-3.167a.468.468 0 0 0 .068-.567A5.951 5.951 0 0 1 7.172 9.5 5.887 5.887 0 0 1 8.885 6a6 6 0 0 1 8.482 8.482 5.887 5.887 0 0 1-4.182 1.754 5.939 5.939 0 0 1-3.053-.851.5.5 0 0 0-.245-.065.458.458 0 0 0-.329.139L6.4 18.625a1.587 1.587 0 0 1-1.085.506zm7.812-13.678a4.789 4.789 0 1 0 3.391 1.4 4.764 4.764 0 0 0-3.391-1.4z" data-name="Path 98" transform="translate(-4.242 -4.252)" style="fill:#00a19a"/>
    </g>
</svg>
