<svg xmlns="http://www.w3.org/2000/svg" id="prefix__ico-mail" width="42.226" height="39.613" viewBox="0 0 42.226 39.613">
    <defs>
        <style>
            .prefix__cls-1{fill:#fff}
        </style>
    </defs>
    <path id="prefix__Path_95" d="M3.725 59.262a.859.859 0 0 1-.857-.86l-.033-23.808v-.026a.865.865 0 0 1 .369-.7l6.244-4.336v-4.645a.86.86 0 0 1 .857-.861h7.075l6.084-4.226a.853.853 0 0 1 .976 0l6.044 4.222h7.106a.86.86 0 0 1 .857.861v4.7l6.214 4.34a.862.862 0 0 1 .337.478v.017l.007.016a.439.439 0 0 1 .019.122l.033 23.782a.86.86 0 0 1-.856.862l-40.479.056zm2.508-1.726l35.4-.049-17.669-13.771zm-1.654-.891l13.842-10.788-13.87-9.631zm24.9-10.809l13.865 10.806-.028-20.47zm-18.315-7.113l8.678 6.027 3.6-2.8a.844.844 0 0 1 .523-.181.861.861 0 0 1 .515.172h.006l.013.008 3.566 2.78 8.67-6.057V25.748H11.164zM5.2 34.58l4.25 2.952v-5.9zm33.248 2.9l4.145-2.9-4.145-2.895zM20.4 24.026h7.084l-3.532-2.467z" class="prefix__cls-1" data-name="Path 95" transform="translate(-2.835 -19.649)"/>
    <path id="prefix__Path_96" d="M157.814 152.27a.861.861 0 0 1 0-1.723h14.806a.861.861 0 0 1 0 1.723z" class="prefix__cls-1" data-name="Path 96" transform="translate(-144.104 -139.577)"/>
    <path id="prefix__Path_97" d="M157.814 220.452a.861.861 0 0 1 0-1.723h14.806a.861.861 0 0 1 0 1.723z" class="prefix__cls-1" data-name="Path 97" transform="translate(-144.104 -202.046)"/>
</svg>
