<svg xmlns="http://www.w3.org/2000/svg" id="prefix__logo-tresconnect" width="347.713" height="21.417" viewBox="0 0 347.713 21.417">
    <defs>
        <style>
            .prefix__cls-1{fill:#fff}.prefix__cls-2{fill:#18ede2}
        </style>
    </defs>
    <path id="prefix__Path_219" d="M508.735 416.917a17.594 17.594 0 0 1-10.252-2.865l-.095-.069 1.713-3.426.123.087a13.706 13.706 0 0 0 8.442 2.418c2.569 0 5.669 0 5.669-2.459 0-1.823-1.421-2.2-5.848-2.524-6.576-.513-9.242-2.159-9.242-6.074 0-3.99 3.609-6.5 9.282-6.5 3.337 0 6.27.564 8.609 2.2l.095.066-1.713 3.359-.125-.09c-1.925-1.37-4.157-1.687-6.726-1.687q-5.139 0-5.139 2.569c0 1.713 1.291 2.131 5.7 2.452 6.6.512 8.864 2.159 8.864 6.074-.006 4.174-3.207 6.469-9.357 6.469z" class="prefix__cls-1" data-name="Path 219" transform="translate(-401.554 -395.499)"/>
    <path id="prefix__Path_220" d="M242.364 417.261V400.12h-7.708v-3.426h19.7v3.426h-7.708v17.141z" class="prefix__cls-1" data-name="Path 220" transform="translate(-234.656 -396.259)"/>
    <path id="prefix__Path_221" d="M1135.728 417.261V400.12h-7.708v-3.426h19.7v3.426h-7.708v17.141z" class="prefix__cls-2" data-name="Path 221" transform="translate(-800.004 -396.259)"/>
    <path id="prefix__Path_222" d="M337.983 417.248l-5.139-7.708h-6v7.708h-4.282v-20.554h12.256c4.552 0 7.442 2.352 7.442 6.423 0 3.274-1.235 5.73-4.282 6.423l5.139 7.708zm-3.641-11.133c2.45 0 3.641-.981 3.641-3s-1.191-3-3.235-3h-7.894v6z" class="prefix__cls-1" data-name="Path 222" transform="translate(-290.879 -396.259)"/>
    <path id="prefix__Path_223" d="M442.8 423.879l-.007-3.426h-8.557v3.426z" class="prefix__cls-2" data-name="Path 223" transform="translate(-361.002 -411.455)"/>
    <path id="prefix__Path_224" d="M417.135 413.8v-13.7h14.559v-3.438h-18.841v20.567h18.841V413.8z" class="prefix__cls-1" data-name="Path 224" transform="translate(-347.428 -396.237)"/>
    <path id="prefix__Path_225" d="M984.522 423.879l-.007-3.426h-8.557v3.426z" class="prefix__cls-1" data-name="Path 225" transform="translate(-703.941 -411.455)"/>
    <path id="prefix__Path_226" d="M958.749 413.8v-13.7h14.559v-3.438h-18.841v20.567h18.841V413.8z" class="prefix__cls-2" data-name="Path 226" transform="translate(-690.187 -396.237)"/>
    <path id="prefix__Path_227" d="M604.712 411.778s-1.3 1.284-6.442 1.284-7.689-2.5-7.689-6.85c0-4.219 2.6-6.916 7.285-6.853s5.971 1.348 5.971 1.348l1.285-3.061-.089-.059a12.408 12.408 0 0 0-7.315-2.081c-6.973 0-11.419 4.263-11.419 10.764 0 6.527 4.408 10.647 11.6 10.647a13.6 13.6 0 0 0 8-2.142l.085-.063z" class="prefix__cls-2" data-name="Path 227" transform="translate(-457.187 -395.499)"/>
    <path id="prefix__Path_228" d="M1058.415 411.778s-1.3 1.284-6.442 1.284-7.69-2.5-7.69-6.85c0-4.219 2.6-6.916 7.286-6.853s5.971 1.348 5.971 1.348l1.285-3.061-.089-.059a12.407 12.407 0 0 0-7.315-2.081c-6.972 0-11.418 4.263-11.418 10.764 0 6.527 4.407 10.647 11.6 10.647a13.6 13.6 0 0 0 8-2.142l.086-.063z" class="prefix__cls-2" data-name="Path 228" transform="translate(-743.713 -395.499)"/>
    <path id="prefix__Path_229" d="M685.714 416.9c-6.912 0-11.556-4.3-11.556-10.705s4.644-10.705 11.556-10.705c6.93 0 11.586 4.3 11.586 10.705s-4.656 10.705-11.586 10.705zm0-17.55c-4.272 0-7.142 2.751-7.142 6.845s2.87 6.845 7.142 6.845 7.142-2.751 7.142-6.845-2.87-6.847-7.142-6.847z" class="prefix__cls-2" data-name="Path 229" transform="translate(-512.755 -395.488)"/>
    <path id="prefix__Path_230" d="M785.556 417.248l-11.99-14.559v14.559H769.3v-20.554h4.262l11.99 14.559v-14.559h4.282v20.554z" class="prefix__cls-2" data-name="Path 230" transform="translate(-572.988 -396.259)"/>
    <path id="prefix__Path_231" d="M878.183 417.248l-12.01-14.559v14.559h-4.262v-20.554h4.262l12.01 14.559v-14.559h4.282v20.554z" class="prefix__cls-2" data-name="Path 231" transform="translate(-631.591 -396.259)"/>
</svg>
