<svg xmlns="http://www.w3.org/2000/svg" id="prefix__tresconnect-logo" width="342" height="21.435" viewBox="0 0 342 21.435">
    <defs>
        <style>
            .prefix__cls-1{fill:#163767}.prefix__cls-2{fill:#00a19a}
        </style>
    </defs>
    <path id="prefix__Path_232" d="M508.744 416.935a17.608 17.608 0 0 1-10.261-2.868l-.095-.069 1.714-3.429.123.087a13.718 13.718 0 0 0 8.449 2.42c2.571 0 5.674 0 5.674-2.461 0-1.825-1.422-2.2-5.852-2.526-6.581-.514-9.25-2.161-9.25-6.079 0-3.994 3.612-6.505 9.289-6.505 3.34 0 6.275.565 8.616 2.206l.095.066-1.714 3.362-.126-.09c-1.926-1.371-4.16-1.688-6.732-1.688q-5.143 0-5.143 2.571c0 1.714 1.292 2.133 5.7 2.454 6.6.513 8.871 2.161 8.871 6.079-.002 4.173-3.202 6.47-9.358 6.47z" class="prefix__cls-1" data-name="Path 232" transform="translate(-403.245 -395.5)"/>
    <path id="prefix__Path_233" d="M242.37 417.278v-17.155h-7.714v-3.429h19.714v3.429h-7.714v17.156z" class="prefix__cls-1" data-name="Path 233" transform="translate(-234.656 -396.259)"/>
    <path id="prefix__Path_234" d="M1135.734 417.278v-17.155h-7.714v-3.429h19.714v3.429h-7.714v17.156z" class="prefix__cls-2" data-name="Path 234" transform="translate(-805.734 -396.259)"/>
    <path id="prefix__Path_235" d="M338 417.265l-5.143-7.714h-6v7.714h-4.285v-20.571h12.266c4.556 0 7.448 2.354 7.448 6.429 0 3.277-1.236 5.735-4.286 6.429l5.143 7.714zm-3.644-11.143c2.452 0 3.644-.982 3.644-3s-1.192-3-3.238-3h-7.9v6z" class="prefix__cls-1" data-name="Path 235" transform="translate(-290.853 -396.259)"/>
    <path id="prefix__Path_236" d="M442.809 423.882l-.007-3.429h-8.564v3.429z" class="prefix__cls-2" data-name="Path 236" transform="translate(-362.237 -411.447)"/>
    <path id="prefix__Path_237" d="M417.139 413.814V400.1h14.571v-3.441h-18.857v20.584h18.857v-3.429z" class="prefix__cls-1" data-name="Path 237" transform="translate(-348.568 -396.236)"/>
    <path id="prefix__Path_238" d="M984.529 423.882l-.007-3.429h-8.564v3.429z" class="prefix__cls-1" data-name="Path 238" transform="translate(-708.529 -411.447)"/>
    <path id="prefix__Path_239" d="M958.752 413.814V400.1h14.571v-3.441h-18.856v20.584h18.857v-3.429z" class="prefix__cls-2" data-name="Path 239" transform="translate(-694.791 -396.236)"/>
    <path id="prefix__Path_240" d="M604.727 411.792s-1.3 1.285-6.447 1.285-7.7-2.507-7.7-6.856c0-4.222 2.6-6.922 7.292-6.859s5.976 1.35 5.976 1.35l1.286-3.064-.089-.06a12.418 12.418 0 0 0-7.321-2.082c-6.978 0-11.428 4.267-11.428 10.773 0 6.533 4.411 10.656 11.608 10.656a13.613 13.613 0 0 0 8-2.144l.086-.063z" class="prefix__cls-2" data-name="Path 240" transform="translate(-459.442 -395.5)"/>
    <path id="prefix__Path_241" d="M1058.43 411.792s-1.3 1.285-6.447 1.285-7.7-2.507-7.7-6.856c0-4.222 2.6-6.922 7.292-6.859s5.975 1.35 5.975 1.35l1.286-3.064-.089-.06a12.418 12.418 0 0 0-7.321-2.082c-6.978 0-11.428 4.267-11.428 10.773 0 6.533 4.411 10.656 11.607 10.656a13.616 13.616 0 0 0 8-2.144l.085-.063z" class="prefix__cls-2" data-name="Path 241" transform="translate(-749.469 -395.5)"/>
    <path id="prefix__Path_242" d="M685.723 416.917c-6.917 0-11.565-4.306-11.565-10.714s4.648-10.714 11.565-10.714c6.936 0 11.6 4.306 11.6 10.714s-4.663 10.714-11.6 10.714zm0-17.565c-4.276 0-7.148 2.753-7.148 6.851s2.873 6.851 7.148 6.851 7.148-2.753 7.148-6.851-2.871-6.851-7.148-6.851z" class="prefix__cls-2" data-name="Path 242" transform="translate(-515.605 -395.488)"/>
    <path id="prefix__Path_243" d="M785.57 417.265l-12-14.571v14.571h-4.27v-20.571h4.266l12 14.571v-14.571h4.286v20.571z" class="prefix__cls-2" data-name="Path 243" transform="translate(-576.427 -396.259)"/>
    <path id="prefix__Path_244" d="M878.2 417.265l-12.02-14.571v14.571h-4.266v-20.571h4.266l12.02 14.571v-14.571h4.286v20.571z" class="prefix__cls-2" data-name="Path 244" transform="translate(-635.626 -396.259)"/>
</svg>
