<svg xmlns="http://www.w3.org/2000/svg" id="prefix__tresconnect-logo-negative" width="342" height="20.799" viewBox="0 0 342 20.799">
    <defs>
        <style>
            .prefix__cls-1{fill:#fff}
        </style>
    </defs>
    <path id="prefix__Path_219" d="M508.565 416.3a17.468 17.468 0 0 1-10.084-2.783l-.093-.067 1.685-3.327.121.085a13.606 13.606 0 0 0 8.3 2.349c2.527 0 5.576 0 5.576-2.388 0-1.771-1.4-2.139-5.752-2.451-6.468-.5-9.091-2.1-9.091-5.9 0-3.875 3.55-6.312 9.129-6.312 3.283 0 6.167.548 8.467 2.141l.093.064-1.685 3.263-.123-.087c-1.893-1.331-4.088-1.638-6.615-1.638q-5.054 0-5.054 2.5c0 1.664 1.27 2.07 5.6 2.381 6.489.5 8.718 2.1 8.718 5.9.005 4.041-3.143 6.27-9.192 6.27z" class="prefix__cls-1" data-name="Path 219" transform="translate(-403.145 -395.5)"/>
    <path id="prefix__Path_220" d="M242.237 416.668v-16.647h-7.581v-3.327h19.374v3.327h-7.581v16.647z" class="prefix__cls-1" data-name="Path 220" transform="translate(-234.656 -396.272)"/>
    <path id="prefix__Path_221" d="M1135.6 416.668v-16.647h-7.581v-3.327h19.374v3.327h-7.581v16.647z" class="prefix__cls-1" data-name="Path 221" transform="translate(-805.394 -396.272)"/>
    <path id="prefix__Path_222" d="M337.729 416.655l-5.054-7.485h-5.9v7.485h-4.212v-19.961h12.054c4.477 0 7.32 2.285 7.32 6.238 0 3.18-1.215 5.565-4.212 6.238l5.054 7.485zm-3.581-10.812c2.409 0 3.581-.952 3.581-2.911s-1.171-2.911-3.182-2.911h-7.764v5.822z" class="prefix__cls-1" data-name="Path 222" transform="translate(-291.4 -396.272)"/>
    <path id="prefix__Path_223" d="M442.661 423.781l-.007-3.327h-8.416v3.327z" class="prefix__cls-1" data-name="Path 223" transform="translate(-362.205 -411.714)"/>
    <path id="prefix__Path_224" d="M417.065 413.306V400h14.32v-3.339h-18.532v19.974h18.532v-3.327z" class="prefix__cls-1" data-name="Path 224" transform="translate(-348.503 -396.249)"/>
    <path id="prefix__Path_225" d="M984.381 423.781l-.007-3.327h-8.416v3.327z" class="prefix__cls-1" data-name="Path 225" transform="translate(-708.411 -411.714)"/>
    <path id="prefix__Path_226" d="M958.679 413.306V400H973v-3.339h-18.533v19.974H973v-3.327z" class="prefix__cls-1" data-name="Path 226" transform="translate(-694.53 -396.249)"/>
    <path id="prefix__Path_227" d="M604.409 411.309s-1.282 1.247-6.336 1.247-7.563-2.432-7.563-6.652c0-4.1 2.557-6.717 7.166-6.655s5.872 1.31 5.872 1.31l1.263-2.973-.087-.058a12.318 12.318 0 0 0-7.195-2.021c-6.858 0-11.231 4.14-11.231 10.453 0 6.339 4.335 10.34 11.407 10.34a13.507 13.507 0 0 0 7.865-2.08l.084-.061z" class="prefix__cls-1" data-name="Path 227" transform="translate(-459.308 -395.5)"/>
    <path id="prefix__Path_228" d="M1058.112 411.309s-1.282 1.247-6.336 1.247-7.563-2.432-7.563-6.652c0-4.1 2.557-6.717 7.166-6.655s5.872 1.31 5.872 1.31l1.264-2.973-.088-.058a12.318 12.318 0 0 0-7.195-2.021c-6.858 0-11.231 4.14-11.231 10.453 0 6.339 4.335 10.34 11.407 10.34a13.508 13.508 0 0 0 7.865-2.08l.084-.061z" class="prefix__cls-1" data-name="Path 228" transform="translate(-748.581 -395.5)"/>
    <path id="prefix__Path_229" d="M685.524 416.281c-6.8 0-11.366-4.178-11.366-10.4s4.568-10.4 11.366-10.4c6.817 0 11.4 4.178 11.4 10.4s-4.584 10.4-11.4 10.4zm0-17.044c-4.2 0-7.025 2.672-7.025 6.648s2.823 6.648 7.025 6.648 7.025-2.672 7.025-6.648-2.823-6.648-7.025-6.648z" class="prefix__cls-1" data-name="Path 229" transform="translate(-515.406 -395.488)"/>
    <path id="prefix__Path_230" d="M785.289 416.655L773.5 402.516v14.139h-4.2v-19.961h4.2l11.793 14.139v-14.139h4.207v19.961z" class="prefix__cls-1" data-name="Path 230" transform="translate(-576.214 -396.272)"/>
    <path id="prefix__Path_231" d="M877.916 416.655L866.1 402.516v14.139h-4.192v-19.961h4.192l11.813 14.139v-14.139h4.212v19.961z" class="prefix__cls-1" data-name="Path 231" transform="translate(-635.376 -396.272)"/>
</svg>
