<svg id="ico-ivr" xmlns="http://www.w3.org/2000/svg" width="70.94" height="67.995" viewBox="0 0 70.94 67.995">
  <g id="Group_115" data-name="Group 115">
    <g id="Group_114" data-name="Group 114">
      <path id="Path_347" data-name="Path 347" d="M1873.608,855.2a19.109,19.109,0,0,1,.109-2.021,18.861,18.861,0,0,0,37.5,0,18.858,18.858,0,0,1-18.752,20.882,18.77,18.77,0,0,1-10.6-3.259h0l-7.858,2.8,5.545-4.665a18.806,18.806,0,0,1-5.949-13.742Z" transform="translate(-1872.669 -807.003)" fill="#163767" opacity="0.1"/>
      <path id="Path_348" data-name="Path 348" d="M2078.176,704.03a19.043,19.043,0,0,0-.109-2.021,18.86,18.86,0,0,1-37.5,0,19.053,19.053,0,0,0-.109,2.021,18.862,18.862,0,0,0,29.46,15.6h0l7.859,2.8-5.545-4.665a18.806,18.806,0,0,0,5.949-13.742Z" transform="translate(-2008.176 -684.229)" fill="#163767" opacity="0.1"/>
      <g id="Group_111" data-name="Group 111">
        <path id="Path_349" data-name="Path 349" d="M1888.408,758.521a19.8,19.8,0,0,0-16.689,30.458l-2.652,7.433a.939.939,0,0,0,1.2,1.2l7.416-2.646a19.8,19.8,0,1,0,10.726-36.445Zm0,37.722a17.828,17.828,0,0,1-10.07-3.1.938.938,0,0,0-.844-.108l-5.993,2.138,2.143-6.008a.938.938,0,0,0-.106-.841,17.924,17.924,0,1,1,14.87,7.914Z" transform="translate(-1868.608 -730.126)" fill="#163767"/>
        <path id="Path_350" data-name="Path 350" d="M2071.942,637.809a19.8,19.8,0,1,0-5.965,5.987l7.417,2.646a.939.939,0,0,0,1.2-1.2Zm-5.776,4.06a.939.939,0,0,0-.844.108,17.911,17.911,0,1,1,4.8-4.818.94.94,0,0,0-.106.841l2.143,6.008Z" transform="translate(-2004.113 -607.351)" fill="#163767"/>
      </g>
      <g id="Group_113" data-name="Group 113" transform="translate(8.603 14.414)">
        <path id="Path_351" data-name="Path 351" d="M2095.464,696.8a.939.939,0,0,1-.664-.275l-6.246-6.246a.939.939,0,0,1,1.328-1.328l5.582,5.582,10.17-10.169a.939.939,0,0,1,1.328,1.328l-10.834,10.833a.937.937,0,0,1-.664.275Z" transform="translate(-2055.62 -684.087)" fill="#00a19a"/>
        <g id="Group_112" data-name="Group 112" transform="translate(0 28.523)">
          <path id="Path_352" data-name="Path 352" d="M1914.409,845.543v-8.689a.906.906,0,1,1,1.812,0v8.689a.906.906,0,1,1-1.812,0Z" transform="translate(-1914.409 -835.94)" fill="#00a19a"/>
          <path id="Path_353" data-name="Path 353" d="M1935.419,845.434l-3.206-8.193a.849.849,0,0,1-.077-.341.961.961,0,0,1,1.859-.341l2.927,7.837,2.927-7.837a.961.961,0,0,1,1.859.341.841.841,0,0,1-.077.341l-3.206,8.193a1.615,1.615,0,0,1-3,0Z" transform="translate(-1928.806 -835.94)" fill="#00a19a"/>
          <path id="Path_354" data-name="Path 354" d="M1999.217,846.038a.875.875,0,0,1-.852.821.968.968,0,0,1-.759-.387l-2.432-3.562h-2.107v3.036a.906.906,0,1,1-1.812,0V837.4a.866.866,0,0,1,.96-.96h3.578a3.136,3.136,0,0,1,3.377,3.237,2.9,2.9,0,0,1-2.137,2.974l2.013,2.819A.9.9,0,0,1,1999.217,846.038Zm-6.149-4.724h2.478a1.646,1.646,0,1,0,0-3.284h-2.478Z" transform="translate(-1976.822 -836.342)" fill="#00a19a"/>
        </g>
      </g>
    </g>
  </g>
</svg>
