<svg id="ico-inbound" xmlns="http://www.w3.org/2000/svg" width="60.688" height="63.834" viewBox="0 0 60.688 63.834">
  <g id="Group_125" data-name="Group 125" transform="translate(0 9.851)">
    <g id="Group_124" data-name="Group 124" transform="translate(0 0)">
      <path id="Path_369" data-name="Path 369" d="M4185.765,276.175l-24.923-24.923a13.815,13.815,0,0,1-.677-18.81,2.705,2.705,0,0,0-.333.283l-2.928,2.928a13.814,13.814,0,0,0,0,19.537l24.923,24.922a13.814,13.814,0,0,0,19.537,0l2.928-2.928a2.757,2.757,0,0,0,.284-.333,13.815,13.815,0,0,1-18.81-.677Z" transform="translate(-4151.976 -231.058)" fill="#163767" opacity="0.1"/>
      <g id="Group_123" data-name="Group 123">
        <path id="Path_370" data-name="Path 370" d="M4190.023,255.535a3.57,3.57,0,0,0-5.044,0l-2.85,2.849a1.805,1.805,0,0,1-2.553,0l-11.469-11.468a1.808,1.808,0,0,1,0-2.553l2.849-2.849a3.57,3.57,0,0,0,0-5.045l-10.8-10.8a3.567,3.567,0,0,0-5.045,0l-2.928,2.928a14.7,14.7,0,0,0,0,20.783l24.922,24.923a14.7,14.7,0,0,0,20.783,0l2.928-2.928a3.567,3.567,0,0,0,0-5.045Zm9.552,14.6-2.929,2.928a12.935,12.935,0,0,1-18.292,0l-24.922-24.923a12.934,12.934,0,0,1,0-18.291l2.928-2.928a1.805,1.805,0,0,1,2.553,0l10.8,10.8a1.808,1.808,0,0,1,0,2.553l-2.849,2.849a3.567,3.567,0,0,0,0,5.045l11.468,11.468a3.567,3.567,0,0,0,5.045,0l2.849-2.849a1.808,1.808,0,0,1,2.554,0l10.8,10.8a1.806,1.806,0,0,1,0,2.553Z" transform="translate(-4147.882 -224.627)" fill="#163767"/>
      </g>
    </g>
  </g>
  <g id="Group_126" data-name="Group 126" transform="translate(29.462)">
    <path id="Path_371" data-name="Path 371" d="M4319.176,202.667a.874.874,0,0,1-.842-1.113l1.423-5.04-.124-.107a15.592,15.592,0,1,1,6.5,3.37l-.084-.021-6.524,2.838A.869.869,0,0,1,4319.176,202.667Zm10.685-31.913a13.86,13.86,0,0,0-8.564,24.758.873.873,0,0,1,.3.925l-1.077,3.816,5.109-2.223a.866.866,0,0,1,.349-.072.887.887,0,0,1,.231.03,13.862,13.862,0,1,0,3.651-27.235Z" transform="translate(-4314.248 -169.004)" fill="#163767"/>
    <path id="Path_372" data-name="Path 372" d="M4374.512,208.612a.876.876,0,0,1,.875.875v8.064h2.315a.874.874,0,0,1,.619,1.493l-5.66,5.659a.873.873,0,0,1-1.236,0l-5.659-5.659a.875.875,0,0,1,.619-1.493h2.315v-8.064a.873.873,0,0,1,.874-.875Zm1.077,10.689h-1.077a.876.876,0,0,1-.875-.875v-8.064h-3.188v8.064a.876.876,0,0,1-.875.875H4368.5l3.545,3.546Z" transform="translate(-4356.43 -201.598)" fill="#00a19a"/>
  </g>
</svg>
