<svg id="ico-callpage" xmlns="http://www.w3.org/2000/svg" width="63.875" height="73" viewBox="0 0 63.875 73">
  <g id="Group_173" data-name="Group 173">
    <g id="Group_172" data-name="Group 172" transform="translate(0 0)">
      <g id="Group_171" data-name="Group 171">
        <path id="Path_387" data-name="Path 387" d="M1011.385,324.7a10.234,10.234,0,1,1,10.234-10.234,10.246,10.246,0,0,1-10.234,10.234Zm0-18.778a8.544,8.544,0,1,0,8.544,8.544,8.554,8.554,0,0,0-8.544-8.544Z" transform="translate(-979.447 -304.229)" fill="#00a19a"/>
        <path id="Path_388" data-name="Path 388" d="M912.713,443.626A25.157,25.157,0,0,1,923.884,422.7a.845.845,0,0,1,.941,1.4,23.491,23.491,0,1,0,30.526,3.811.845.845,0,1,1,1.256-1.131,25.178,25.178,0,1,1-43.895,16.839Z" transform="translate(-905.954 -402.564)" fill="#163767" opacity="0.1" style="isolation: isolate"/>
        <path id="Path_389" data-name="Path 389" d="M888.879,381.4a31.944,31.944,0,1,0,33.767,1.395h6.493a.845.845,0,0,0,0-1.69h-9.463a.845.845,0,0,0-.845.845v9.463a.845.845,0,0,0,1.69,0V383.43a30.243,30.243,0,1,1-30.805-.559.845.845,0,0,0-.836-1.469Z" transform="translate(-872.713 -368.116)" fill="#163767"/>
        <path id="Path_390" data-name="Path 390" d="M1036.842,348.828a.929.929,0,0,1-.719-.341l-3.015-3.683a.929.929,0,0,1,1.438-1.177l2.29,2.8,4.147-5.145a.929.929,0,0,1,1.447,1.167l-4.865,6.035a.929.929,0,0,1-.72.346Z" transform="translate(-1005.829 -334.732)" fill="#00a19a"/>
      </g>
    </g>
  </g>
  <g id="Group_125" data-name="Group 125" transform="translate(16.522 26.15)">
    <g id="Group_124" data-name="Group 124" transform="translate(0 0)">
      <path id="Path_369" data-name="Path 369" d="M993.329,489.608l-14.017-14.017a7.77,7.77,0,0,1-.38-10.579,1.521,1.521,0,0,0-.187.159l-1.647,1.647a7.769,7.769,0,0,0,0,10.988h0l14.017,14.017a7.769,7.769,0,0,0,10.988,0h0l1.647-1.647a1.546,1.546,0,0,0,.16-.187,7.77,7.77,0,0,1-10.579-.381Z" transform="translate(-974.089 -463.992)" fill="#163767" opacity="0.1" style="isolation: isolate"/>
      <path id="Path_391" data-name="Path 391" d="M993.005,489.818a8.452,8.452,0,0,1-6.014-2.49l-14.016-14.017a8.518,8.518,0,0,1,0-12.027l1.647-1.647a2.246,2.246,0,0,1,3.176,0l6.074,6.074a2.251,2.251,0,0,1,0,3.176l-1.6,1.6a.778.778,0,0,0,0,1.1l6.451,6.45a.775.775,0,0,0,1.1,0l1.6-1.6a2.247,2.247,0,0,1,3.175,0l6.07,6.072a2.249,2.249,0,0,1,0,3.176l-1.647,1.647A8.452,8.452,0,0,1,993.005,489.818Zm-16.794-29.366a.771.771,0,0,0-.549.227l-1.647,1.647a7.043,7.043,0,0,0,0,9.949l14.017,14.017a7.035,7.035,0,0,0,9.949,0l1.7-1.7.009-.011a.777.777,0,0,0-.062-1.027l-6.074-6.074a.778.778,0,0,0-1.1,0l-1.6,1.6a2.246,2.246,0,0,1-3.176,0l-6.45-6.45a2.246,2.246,0,0,1,0-3.176l1.6-1.6a.778.778,0,0,0,0-1.1l-6.074-6.074A.771.771,0,0,0,976.211,460.452Z" transform="translate(-970.489 -458.979)" fill="#163767"/>
    </g>
  </g>
</svg>
