<svg id="ico-email" xmlns="http://www.w3.org/2000/svg" width="55.542" height="61.383" viewBox="0 0 55.542 61.383">
  <g id="Group_118" data-name="Group 118">
    <path id="Path_355" data-name="Path 355" d="M2620.137,935.522h-48.163a2.824,2.824,0,0,1-2.824-2.824v6.928a2.824,2.824,0,0,0,2.824,2.824h48.162a2.823,2.823,0,0,0,2.823-2.824V932.7a2.823,2.823,0,0,1-2.823,2.824Z" transform="translate(-2568.284 -881.933)" fill="#163767" opacity="0.1"/>
    <path id="Path_356" data-name="Path 356" d="M2682.779,744.866h-17.291a1.9,1.9,0,0,1,0-3.806h17.291a1.9,1.9,0,0,1,0,3.806Z" transform="translate(-2646.362 -723.489)" fill="#00a19a"/>
    <g id="Group_117" data-name="Group 117" transform="translate(0 0)">
      <path id="Path_357" data-name="Path 357" d="M2619.691,720.17c0-.026,0-.051-.007-.076s0-.056-.009-.084-.015-.053-.022-.079-.015-.055-.025-.082c0,0,0-.006,0-.009a.715.715,0,0,0-.038-.071c-.012-.024-.023-.048-.038-.07l0,0,0,0a.829.829,0,0,0-.065-.078c-.012-.014-.021-.03-.035-.044l0,0-.007-.007,0,0-3.877-3.8v-7.506a2.752,2.752,0,0,0-2.749-2.748h-41.771a2.752,2.752,0,0,0-2.749,2.748v7.506l-3.877,3.8,0,0-.007.007,0,0c-.013.014-.022.029-.035.044a.871.871,0,0,0-.065.078l0,0,0,0c-.015.023-.026.047-.038.071s-.027.046-.038.071a.052.052,0,0,1,0,.009.767.767,0,0,0-.025.082c-.008.026-.017.052-.023.079s-.006.056-.009.084-.007.051-.007.076v31.614a3.678,3.678,0,0,0,1.237,2.748c.007.006.011.013.018.019s.022.017.033.026c.054.046.11.09.167.134.034.026.069.053.1.078.057.041.116.079.176.117.037.023.074.046.112.068q.09.052.184.1l.12.058c.063.029.126.056.19.082.043.017.087.033.131.048.063.022.126.044.191.063s.1.026.151.039.12.03.181.042.129.021.194.03c.05.007.1.016.148.02.117.011.235.018.354.018H2616c.119,0,.237-.007.354-.018.05,0,.1-.013.148-.02.065-.009.13-.017.194-.03s.121-.027.181-.042.1-.024.15-.039c.065-.019.129-.041.192-.063.043-.015.086-.031.129-.047.065-.026.129-.054.192-.083l.117-.056c.064-.032.126-.066.188-.1l.108-.066c.061-.038.121-.078.179-.119.034-.024.067-.05.1-.074.058-.044.115-.089.171-.137l.031-.025c.006-.006.011-.013.017-.019a3.678,3.678,0,0,0,1.238-2.749V720.175s0,0,0,0Zm-50.538,1.457a.866.866,0,0,0,.866-.866V708.253a1.017,1.017,0,0,1,1.016-1.016h41.771a1.018,1.018,0,0,1,1.016,1.016v12.508a.866.866,0,1,0,1.732,0v-2.578l2.033,1.992-17.517,17.158a.866.866,0,1,0,1.212,1.237l16.677-16.335v29.549a1.945,1.945,0,0,1-.24.937l-23.615-17.349h0a3.675,3.675,0,0,0-4.369,0l-23.615,17.349a1.944,1.944,0,0,1-.24-.937V722.235l16.917,16.571a.866.866,0,1,0,1.212-1.238l-17.758-17.393,2.033-1.992v2.578a.866.866,0,0,0,.866.866Zm-1.313,32.115c-.057,0-.114,0-.17-.009l23.092-16.965a1.949,1.949,0,0,1,2.318,0l23.092,16.965c-.056,0-.113.009-.17.009h-48.163Z" transform="translate(-2564.149 -694.091)" fill="#163767"/>
      <path id="Path_358" data-name="Path 358" d="M2661.132,650.255a.863.863,0,0,0,.606-.247l8.282-8.112a1.968,1.968,0,0,1,2.74,0l8.24,8.071a.866.866,0,1,0,1.212-1.238l-8.24-8.071a3.709,3.709,0,0,0-5.164,0l-8.281,8.112a.866.866,0,0,0,.606,1.485Z" transform="translate(-2643.617 -639.612)" fill="#163767"/>
      <path id="Path_359" data-name="Path 359" d="M2649.685,791.516H2658a.866.866,0,1,0,0-1.732h-8.314a.866.866,0,0,0,0,1.732Z" transform="translate(-2634.154 -763.773)" fill="#163767"/>
      <path id="Path_360" data-name="Path 360" d="M2649.685,843.516H2673.7a.866.866,0,0,0,0-1.732h-24.018a.866.866,0,0,0,0,1.732Z" transform="translate(-2634.154 -806.766)" fill="#163767"/>
      <path id="Path_361" data-name="Path 361" d="M2649.685,817.516h5.961a.866.866,0,0,0,0-1.732h-5.961a.866.866,0,0,0,0,1.732Z" transform="translate(-2634.154 -785.27)" fill="#163767"/>
      <path id="Path_362" data-name="Path 362" d="M2699.069,816.65a.866.866,0,0,0,.866.866h15.314a.866.866,0,0,0,0-1.732h-15.314A.866.866,0,0,0,2699.069,816.65Z" transform="translate(-2675.7 -785.27)" fill="#163767"/>
    </g>
  </g>
</svg>
