<svg id="ico-outbound" xmlns="http://www.w3.org/2000/svg" width="60.66" height="63.804" viewBox="0 0 60.66 63.804">
  <g id="Group_130" data-name="Group 130" transform="translate(0 9.846)">
    <g id="Group_129" data-name="Group 129" transform="translate(0 0)">
      <path id="Path_373" data-name="Path 373" d="M3596.949,276.154l-24.911-24.911a13.809,13.809,0,0,1-.677-18.8,2.7,2.7,0,0,0-.333.283l-2.927,2.927a13.808,13.808,0,0,0,0,19.528l24.911,24.911a13.809,13.809,0,0,0,19.528,0l2.927-2.927a2.71,2.71,0,0,0,.283-.333,13.808,13.808,0,0,1-18.8-.677Z" transform="translate(-3563.176 -231.059)" fill="#163767" opacity="0.1"/>
      <g id="Group_128" data-name="Group 128">
        <path id="Path_374" data-name="Path 374" d="M3601.2,255.521a3.57,3.57,0,0,0-5.043,0l-2.848,2.848a1.8,1.8,0,0,1-2.552,0L3579.3,246.906a1.807,1.807,0,0,1,0-2.552l2.848-2.848a3.569,3.569,0,0,0,0-5.043l-10.792-10.792a3.565,3.565,0,0,0-5.042,0l-2.927,2.927a14.689,14.689,0,0,0,0,20.773l24.911,24.911a14.689,14.689,0,0,0,20.773,0l2.927-2.927a3.566,3.566,0,0,0,0-5.043Zm9.547,14.589-2.927,2.927a12.929,12.929,0,0,1-18.283,0l-24.911-24.911a12.928,12.928,0,0,1,0-18.283l2.927-2.927a1.8,1.8,0,0,1,2.552,0l10.792,10.792a1.808,1.808,0,0,1,0,2.552l-2.848,2.848a3.565,3.565,0,0,0,0,5.043l11.462,11.463a3.565,3.565,0,0,0,5.042,0l2.848-2.848a1.807,1.807,0,0,1,2.552,0l10.792,10.792a1.8,1.8,0,0,1,0,2.552Z" transform="translate(-3559.083 -224.627)" fill="#163767"/>
      </g>
    </g>
  </g>
  <g id="Group_131" data-name="Group 131" transform="translate(29.449)">
    <path id="Path_375" data-name="Path 375" d="M3730.374,202.651a.874.874,0,0,1-.842-1.112l1.422-5.037-.124-.107a15.585,15.585,0,1,1,6.5,3.368l-.084-.021-6.521,2.837A.871.871,0,0,1,3730.374,202.651Zm10.68-31.9a13.853,13.853,0,0,0-8.56,24.747.873.873,0,0,1,.3.925l-1.077,3.814,5.107-2.222a.868.868,0,0,1,.349-.072.88.88,0,0,1,.23.03,13.856,13.856,0,1,0,3.651-27.222Z" transform="translate(-3725.449 -169.004)" fill="#163767"/>
    <path id="Path_376" data-name="Path 376" d="M3780.773,224.952a.876.876,0,0,1-.875-.874v-8.06h-2.314a.874.874,0,0,1-.619-1.492l5.656-5.656a.874.874,0,0,1,1.236,0l5.657,5.656a.874.874,0,0,1-.619,1.493h-2.313v8.06a.874.874,0,0,1-.875.874Zm-1.076-10.684h1.076a.876.876,0,0,1,.875.875v8.06h3.187v-8.06a.875.875,0,0,1,.874-.875h1.076l-3.543-3.545Z" transform="translate(-3767.636 -201.601)" fill="#00a19a"/>
  </g>
</svg>
