<svg id="ico-chmura" xmlns="http://www.w3.org/2000/svg" width="77.926" height="48.95" viewBox="0 0 77.926 48.95">
  <g id="Group_109" data-name="Group 109">
    <g id="Group_108" data-name="Group 108" transform="translate(0)">
      <path id="Path_343" data-name="Path 343" d="M3575.427,829.206h-47.266a14.357,14.357,0,0,1-13.676-9.991,14.361,14.361,0,0,0,13.676,18.71h47.266a14.361,14.361,0,0,0,13.676-18.71A14.356,14.356,0,0,1,3575.427,829.206Z" transform="translate(-3512.831 -789.955)" fill="#163767" opacity="0.1"/>
      <path id="Path_344" data-name="Path 344" d="M3571.936,688.118a434.878,434.878,0,0,1-33.671-18.3,15.342,15.342,0,0,0-15.039,18.317,15.33,15.33,0,0,0,.913,30.633h47.266a15.33,15.33,0,0,0,.53-30.651Zm-.53,28.692H3524.14a13.371,13.371,0,0,1,0-26.743c.1,0,.2,0,.3,0a.979.979,0,0,0,.964-1.247,13.375,13.375,0,0,1,24.834-9.635.979.979,0,0,0,1.282.454,13.382,13.382,0,0,1,18.666,9.633.961.961,0,0,0,.979.794l.241,0a13.371,13.371,0,1,1,0,26.743Z" transform="translate(-3508.81 -669.819)" fill="#163767"/>
      <g id="Group_107" data-name="Group 107" transform="translate(27.25 17.51)">
        <path id="Path_345" data-name="Path 345" d="M3669.888,767.89l-1.779-.459.935-1.583a1.978,1.978,0,0,0-.305-2.4l-1.6-1.6a1.974,1.974,0,0,0-2.4-.305l-1.582.934-.459-1.781a1.976,1.976,0,0,0-1.913-1.48h-2.259a1.975,1.975,0,0,0-1.913,1.481l-.459,1.779-1.583-.935a1.976,1.976,0,0,0-2.4.306l-1.6,1.6a1.975,1.975,0,0,0-.3,2.4l.934,1.583-1.78.459a1.976,1.976,0,0,0-1.481,1.913v2.259a1.975,1.975,0,0,0,1.481,1.913l1.78.459-.934,1.583a1.976,1.976,0,0,0,.305,2.4l1.6,1.6a1.976,1.976,0,0,0,2.4.305l1.582-.934.459,1.78a1.976,1.976,0,0,0,1.913,1.481h2.259a1.977,1.977,0,0,0,1.913-1.482l.458-1.779,1.583.935a1.976,1.976,0,0,0,2.4-.306l1.6-1.6a1.977,1.977,0,0,0,.3-2.4l-.934-1.582,1.78-.459a1.975,1.975,0,0,0,1.481-1.913V769.8a1.975,1.975,0,0,0-1.481-1.913Zm-.478,1.913-.012,2.276-3.04.783a.979.979,0,0,0-.7,1.193.991.991,0,0,0,.1.254l1.593,2.723-1.617,1.6-2.7-1.6a.979.979,0,0,0-1.446.6l-.8,3.052-2.275-.012-.783-3.04a.979.979,0,0,0-1.446-.6l-2.724,1.592-1.6-1.617,1.6-2.7a.979.979,0,0,0-.6-1.444l-3.052-.8.012-2.275,3.04-.783a.979.979,0,0,0,.6-1.446l-1.592-2.723,1.617-1.6,2.7,1.6a.979.979,0,0,0,1.446-.6l.8-3.052,2.276.012.783,3.04a.979.979,0,0,0,1.446.6l2.723-1.592,1.6,1.617-1.6,2.7a.979.979,0,0,0,.6,1.446Z" transform="translate(-3647.943 -759.22)" fill="#00a19a"/>
        <path id="Path_346" data-name="Path 346" d="M3689.5,796.346a4.443,4.443,0,1,0,4.442,4.443h0A4.447,4.447,0,0,0,3689.5,796.346Zm0,6.927a2.484,2.484,0,1,1,2.484-2.485h0A2.486,2.486,0,0,1,3689.5,803.273Z" transform="translate(-3677.79 -789.075)" fill="#00a19a"/>
      </g>
    </g>
  </g>
</svg>
