<svg id="livechat" xmlns="http://www.w3.org/2000/svg" width="72.084" height="69.084" viewBox="0 0 72.084 69.084">
  <path id="Path_392" data-name="Path 392" d="M356.67,370.136a.866.866,0,0,1-.834-1.1,27.193,27.193,0,0,1,26.133-19.85q.27,0,.54.005a.865.865,0,0,1-.034,1.729q-.253-.005-.506-.005A25.459,25.459,0,0,0,357.5,369.5.865.865,0,0,1,356.67,370.136Z" transform="translate(-345.928 -341.415)" fill="#163767" opacity="0.1" style="isolation: isolate"/>
  <path id="Path_393" data-name="Path 393" d="M497.961,556.372q-.547,0-1.089-.022a.864.864,0,0,1,.068-1.728q.507.02,1.02.021a25.543,25.543,0,0,0,24.786-19.86.864.864,0,1,1,1.687.375,27.129,27.129,0,0,1-26.474,21.214Z" transform="translate(-461.919 -494.36)" fill="#163767" opacity="0.1" style="isolation: isolate"/>
  <g id="Group_174" data-name="Group 174">
    <path id="Path_394" data-name="Path 394" d="M318.755,471.524a20.082,20.082,0,0,0-16.9,30.925l-2.717,7.615a.864.864,0,0,0,1.1,1.1l7.6-2.711a20.079,20.079,0,1,0,10.914-36.933Zm0,38.429a18.252,18.252,0,0,1-10.31-3.17.862.862,0,0,0-.777-.1l-6.289,2.243,2.249-6.3a.863.863,0,0,0-.1-.773,18.351,18.351,0,1,1,15.225,8.1Z" transform="translate(-298.676 -442.598)" fill="#163767"/>
    <path id="Path_395" data-name="Path 395" d="M520.311,335.143a20.084,20.084,0,1,0-5.986,6.009l7.6,2.711a.864.864,0,0,0,1.1-1.1Zm-5.813,4.235a.862.862,0,0,0-.777.1,18.34,18.34,0,1,1,4.914-4.933.864.864,0,0,0-.1.773l2.249,6.3Z" transform="translate(-451.406 -304.218)" fill="#163767"/>
  </g>
  <g id="Group_175" data-name="Group 175" transform="translate(13.086 12.783)">
    <path id="Path_396" data-name="Path 396" d="M398,637.572a3.258,3.258,0,1,1,2.278-.924,3.228,3.228,0,0,1-2.278.924Zm0-4.784a1.492,1.492,0,0,0-1.083.457,1.535,1.535,0,0,0-.438,1.077A1.518,1.518,0,0,0,398,635.842a1.535,1.535,0,0,0,1.075-.436,1.5,1.5,0,0,0,.46-1.086A1.537,1.537,0,0,0,398,632.787Z" transform="translate(-391.226 -587.332)" fill="#00a19a"/>
    <path id="Path_397" data-name="Path 397" d="M381.431,534.191h-.685a2.552,2.552,0,0,1-2.552-2.6,8.314,8.314,0,0,1,.665-3.337A8.98,8.98,0,0,1,381,525.473a9.9,9.9,0,0,0,1.256-1.319,2.1,2.1,0,0,0,.3-.6,3.337,3.337,0,0,0,.1-.937,1.712,1.712,0,0,0-.294-1.149c-.059-.063-.219-.235-.817-.235-.74,0-.953.221-1.033.3a1.4,1.4,0,0,0-.358,1.06,2.563,2.563,0,0,1-2.552,2.515h-.685a2.553,2.553,0,0,1-2.553-2.584,6.944,6.944,0,0,1,2.116-5.119,7.055,7.055,0,0,1,5.065-1.967,6.614,6.614,0,0,1,5.031,2.061,7.224,7.224,0,0,1,1.871,5.133,8.242,8.242,0,0,1-.843,3.74,12.188,12.188,0,0,1-2.784,3.375q-.071.064-.145.122c-.224.175-.692.54-.692,1.766a2.556,2.556,0,0,1-2.554,2.552Zm.114-14.688a2.687,2.687,0,0,1,2.084.786,3.267,3.267,0,0,1,.757,2.327,5.071,5.071,0,0,1-.175,1.435,3.834,3.834,0,0,1-.548,1.1,11.831,11.831,0,0,1-1.488,1.585,7.328,7.328,0,0,0-1.742,2.233,6.651,6.651,0,0,0-.511,2.653.824.824,0,0,0,.824.839h.685a.825.825,0,0,0,.824-.824,3.7,3.7,0,0,1,1.357-3.13c.017-.013.032-.026.047-.039a10.561,10.561,0,0,0,2.4-2.871,6.538,6.538,0,0,0,.658-2.964,5.557,5.557,0,0,0-1.4-3.949h0a4.949,4.949,0,0,0-3.77-1.515,5.382,5.382,0,0,0-3.868,1.485,5.274,5.274,0,0,0-1.585,3.894.824.824,0,0,0,.824.834h.685a.827.827,0,0,0,.824-.812,3.132,3.132,0,0,1,.841-2.234,2.992,2.992,0,0,1,2.279-.834Z" transform="translate(-374.365 -491.706)" fill="#00a19a"/>
    <path id="Path_398" data-name="Path 398" d="M610.319,457.125h-6.274a.864.864,0,0,1,0-1.729h6.274a.864.864,0,0,1,0,1.729Z" transform="translate(-563.619 -442.041)" fill="#00a19a"/>
    <path id="Path_399" data-name="Path 399" d="M543.518,457.125h-7.71a.864.864,0,0,1,0-1.729h7.71a.864.864,0,0,1,0,1.729Z" transform="translate(-507.181 -442.041)" fill="#00a19a"/>
    <path id="Path_400" data-name="Path 400" d="M640.367,418.5h-3.028a.864.864,0,0,1,0-1.729h3.028a.864.864,0,0,1,0,1.729Z" transform="translate(-591.157 -410.098)" fill="#00a19a"/>
    <path id="Path_401" data-name="Path 401" d="M549.276,418.5H535.81a.864.864,0,1,1,0-1.729h13.466a.864.864,0,1,1,0,1.729Z" transform="translate(-507.182 -410.098)" fill="#00a19a"/>
    <path id="Path_402" data-name="Path 402" d="M553.262,379.883H535.808a.864.864,0,0,1,0-1.729h17.454a.864.864,0,1,1,0,1.729Z" transform="translate(-507.181 -378.154)" fill="#00a19a"/>
  </g>
</svg>
