<?xml version="1.0" standalone="no"?>
<!DOCTYPE svg PUBLIC "-//W3C//DTD SVG 1.1//EN" "http://www.w3.org/Graphics/SVG/1.1/DTD/svg11.dtd" >
<svg xmlns="http://www.w3.org/2000/svg">
<metadata>Generated by IcoMoon</metadata>
<defs>
<font id="icomoon" horiz-adv-x="1024">
<font-face units-per-em="1024" ascent="960" descent="-64" />
<missing-glyph horiz-adv-x="1024" />
<glyph unicode="&#x20;" horiz-adv-x="512" d="" />
<glyph unicode="&#xe900;" glyph-name="play" d="M85.333 960l853.333-512-853.333-512z" />
<glyph unicode="&#xe901;" glyph-name="pacifier" d="M952.292 541.994c44.305 44.309 71.708 105.521 71.708 173.131 0 68.826-28.396 131.019-74.113 175.503l-0.056 0.054c-44.041 42.867-104.263 69.304-170.659 69.304-129.11 0-234.874-99.961-244.118-226.713l-0.047-0.798q-0.751-10.717-2.293-21.266c-44.94 31.813-96.741 58.27-152.184 76.767l-4.188 1.211c-88.152 26.187-134.397 4.17-157.665-19.307-39.489-39.489-41.199-109.544-5.046-197.655-45.945-17.263-85.16-42.936-117.541-75.425l-0.009-0.009c-59.367-59.446-96.081-141.53-96.081-232.188 0-181.475 147.115-328.59 328.59-328.59 140.104 0 259.729 87.685 306.989 211.171l0.757 2.252c33.050-15.051 71.544-24.439 112.060-25.88l0.528-0.015c1.774-0.097 3.851-0.152 5.94-0.152 30.595 0 58.424 11.844 79.152 31.197l-0.067-0.062c23.31 23.31 45.535 69.638 19.181 158.082-19.758 59.616-46.24 111.4-79.311 158.195l1.25-1.864q9.716 1.251 19.598 1.876c61.894 4 116.938 30.457 157.663 71.221l0.002 0.002zM518.328 74.295c-48.612-48.652-115.791-78.748-189.998-78.748-148.335 0-268.585 120.25-268.585 268.585 0 116.545 74.231 215.753 177.991 252.923l1.875 0.586c10.592-19.515 22.559-39.28 35.778-59.004-35.24-9.707-65.465-27.778-89.518-51.988l-0.011-0.011c-36.502-36.488-59.080-86.904-59.080-142.593 0-111.349 90.267-201.616 201.616-201.616 92.487 0 170.428 62.274 194.181 147.179l0.339 1.419c19.724-13.219 39.489-25.019 59.004-35.778-14.136-39.579-35.848-73.386-63.594-101.165l0.003 0.003zM314.294 405.304c23.759-30.069 47.638-56.882 72.978-82.235l-0.004 0.004c25.301-25.29 52.059-49.128 80.137-71.375l1.927-1.474c-7.149-72.245-67.603-128.213-141.127-128.213-78.302 0-141.777 63.475-141.777 141.777 0 39.328 16.013 74.916 41.874 100.6l0.008 0.008c21.699 21.859 50.543 36.6 82.736 40.425l0.663 0.064c0.876 0 1.71 0.25 2.544 0.417zM795.628 295.426c13.761-46.202 12.301-82.106-4.17-98.494-21.225-21.225-72.599-17.472-137.607 10.133-87.073 40.699-161.382 93.908-224.282 158.309l-0.144 0.148c-64.546 63.045-117.755 137.354-156.505 219.804l-1.952 4.621c-27.563 64.843-31.358 116.258-10.091 137.607 16.346 16.346 52.082 17.847 98.119 4.17 60.179-20.401 112.382-48.372 158.914-83.463l-1.416 1.023c-14.403-37.549-35.442-69.617-61.935-96.254l-6.535-6.535c-5.428-5.426-8.785-12.923-8.785-21.204s3.357-15.778 8.785-21.204l116.758-116.758c5.433-5.43 12.936-8.789 21.225-8.789s15.792 3.359 21.225 8.789l1.459 1.459c28.442 28.323 62.941 50.586 101.384 64.677l1.947 0.624c34.362-45.385 62.572-97.905 81.974-154.514l1.174-3.943zM587.133 449.713l-75.81 75.851c47.462 54.335 78.144 124.418 83.342 201.486l0.057 1.047c6.838 95.122 84.962 169.896 180.87 171.382l0.146 0.002c0.866 0.015 1.888 0.023 2.912 0.023 101.999 0 184.685-82.687 184.685-184.685 0-97.757-75.952-177.774-172.063-184.261l-0.565-0.031c-78.062-4.699-148.396-34.401-203.94-81.123l0.531 0.435z" />
<glyph unicode="&#xe902;" glyph-name="drop" d="M606.085 844.839c-23.675 34.447-44.155 66.396-63.652 95.437-3.011 4.375-6.684 8.049-10.918 10.967l-0.141 0.092c-5.485 3.547-12.188 5.656-19.384 5.656-12.734 0-23.925-6.603-30.337-16.572l-0.086-0.143c-17.981-29.041-38.748-59.474-63.611-95.437-109.281-160.44-272.507-402.514-272.507-540.672 0.107-101.132 41.337-192.614 107.866-258.64l0.023-0.022c66.49-65.627 157.809-106.24 258.613-106.496h0.050c202.021 1.041 365.511 164.531 366.551 366.452v0.099c0.041 138.117-163.185 378.798-272.466 539.279zM720.773 96.499c-52.954-52.995-126.132-85.777-206.966-85.777-0.678 0-1.356 0.002-2.034 0.007l0.104-0.001c-81.42 0.13-155.173 32.849-208.933 85.807l0.037-0.036c-52.995 52.954-85.777 126.132-85.777 206.966 0 0.678 0.002 1.356 0.007 2.034l-0.001-0.104c0 116.204 156.303 347.218 260.055 500.736 12.288 17.981 23.511 35.963 34.57 51.2 11.059-15.196 22.118-33.219 34.57-51.2 103.752-154.911 260.055-384.532 260.055-500.736-0.071-81.393-32.719-155.146-85.606-208.937l0.041 0.041zM726.221 330.258c-0.583 0.034-1.266 0.054-1.952 0.054-18.817 0-34.211-14.651-35.398-33.168l-0.005-0.104c-1.661-31.436-11.229-60.327-26.732-85.126l0.436 0.748c-15.55-25.633-36.968-46.277-62.469-60.47l-0.856-0.437c-11.159-6.396-18.555-18.237-18.555-31.805 0-20.179 16.358-36.537 36.537-36.537 6.61 0 12.81 1.755 18.16 4.825l-0.178-0.094c36.765 20.808 66.669 49.834 87.916 84.713l0.598 1.057c21.494 33.736 34.723 74.595 35.956 118.455l0.007 0.329c0.041 0.64 0.065 1.389 0.065 2.142 0 18.907-14.793 34.359-33.436 35.414l-0.093 0.004z" />
<glyph unicode="&#xe903;" glyph-name="tennis-ball" d="M872.681 808.68c-91.759 93.49-219.453 151.435-360.681 151.435s-268.922-57.945-360.604-151.356l-0.076-0.078c-93.49-91.759-151.435-219.453-151.435-360.681s57.945-268.922 151.356-360.604l0.078-0.076c91.759-93.49 219.453-151.435 360.681-151.435s268.922 57.945 360.604 151.356l0.076 0.078c93.49 91.759 151.435 219.453 151.435 360.681s-57.945 268.922-151.356 360.604l-0.078 0.076zM566.749 896.661c-9.707-135.349-69.419-255.133-160.55-342.359l-0.193-0.183c-87.407-91.327-207.193-151.040-340.854-160.645l-1.688-0.097c-2.168 16.421-3.406 35.41-3.406 54.687 0 1.751 0.010 3.5 0.031 5.247l-0.002-0.265c50.82 2.251 98.368 13.844 141.766 33.096l-2.497-0.989c63.811 27.712 118.286 65.26 164.185 111.355l0.018 0.018c46.115 45.916 83.664 100.392 110.068 160.849l1.305 3.354c18.264 40.9 29.857 88.45 32.077 138.436l0.029 0.833h5.004c0.011 0 0.024 0 0.036 0 19.272 0 38.253-1.242 56.869-3.652l-2.199 0.232zM193.851 766.232c66.197 66.982 153.134 113.337 250.383 128.639l2.553 0.331c-11.025-101.38-57.023-190.35-125.493-256.095l-0.141-0.135c-65.874-68.626-154.844-114.639-254.376-125.511l-1.853-0.164c15.614 99.798 61.956 186.737 128.885 252.893l0.043 0.043zM75.139 333.832c147.452 13.042 277.507 78.631 373.151 177.667l0.165 0.171c99.211 95.806 164.8 225.862 177.678 371.070l0.161 2.245c157.126-44.33 278.365-165.569 321.907-319.438l0.788-3.256c-147.498-12.941-277.621-78.484-373.322-177.505l-0.16-0.167c-99.223-95.803-164.826-225.858-177.719-371.068l-0.161-2.247c-156.999 44.371-278.135 165.521-321.697 319.27l-0.789 3.257zM457.377-0.538c9.711 135.348 69.423 255.132 160.551 342.36l0.192 0.182c87.408 91.323 207.193 151.036 340.852 160.645l1.69 0.098c2.168-16.426 3.406-35.42 3.406-54.702 0-1.761-0.010-3.519-0.031-5.275l0.002 0.267c-50.819-2.25-98.368-13.843-141.765-33.096l2.496 0.989c-124.131-54.397-221.18-151.446-274.252-272.196l-1.325-3.381c-18.267-40.9-29.861-88.45-32.078-138.437l-0.029-0.831c-1.489-0.018-3.249-0.028-5.010-0.028-19.282 0-38.275 1.238-56.903 3.638l2.203-0.232zM830.233 129.85c-66.21-66.936-153.146-113.248-250.386-128.515l-2.549-0.33c11.036 101.385 57.050 190.355 125.533 256.094l0.142 0.135c65.868 68.563 154.806 114.529 254.294 125.386l1.852 0.164c-15.632-99.802-61.987-186.738-128.926-252.892l-0.044-0.043z" />
<glyph unicode="&#xe904;" glyph-name="teddy-bear" d="M652.036 654.079c0-16.561-13.426-29.987-29.987-29.987s-29.987 13.426-29.987 29.987c0 16.561 13.426 29.987 29.987 29.987v0c16.561 0 29.987-13.426 29.987-29.987v0zM432.012 654.079c0-16.561-13.426-29.987-29.987-29.987s-29.987 13.426-29.987 29.987c0 16.561 13.426 29.987 29.987 29.987v0c16.561 0 29.987-13.426 29.987-29.987v0zM883.983 516.067h-127.294c22.224 39.241 35.321 86.183 35.321 136.185 0 24.565-3.162 48.393-9.099 71.097l0.433-1.95c35.296 23.616 58.224 63.32 58.224 108.38 0 71.787-58.196 129.983-129.983 129.983-39.794 0-75.41-17.882-99.253-46.048l-0.157-0.191c-29.782 11.732-64.275 18.532-100.358 18.532s-70.575-6.8-102.269-19.191l1.912 0.658c-24.005 28.496-59.708 46.476-99.61 46.476-71.787 0-129.983-58.196-129.983-129.983 0-45.211 23.083-85.032 58.106-108.319l0.478-0.299c-5.457-20.666-8.59-44.393-8.59-68.85 0-50.121 13.16-97.168 36.212-137.875l-0.726 1.393h-127.334c-71.799 0-130.003-58.205-130.003-130.003s58.205-130.003 130.003-130.003v0h62.021v-68.243c-24.779-26.662-39.986-62.517-39.986-101.924 0-82.784 67.11-149.894 149.894-149.894 0.030 0 0.059 0 0.088 0h399.981c0.024 0 0.054 0 0.084 0 82.784 0 149.894 67.11 149.894 149.894 0 39.407-15.206 75.261-40.071 102.017l0.086-0.094v68.243h61.981c71.799 0 130.003 58.205 130.003 130.003s-58.205 130.003-130.003 130.003v0zM242.015 830.067c0.031 38.642 31.364 69.956 70.010 69.956 26.914 0 50.28-15.187 61.998-37.459l0.183-0.383c5.090-9.727 15.112-16.251 26.656-16.251 4.919 0 9.561 1.184 13.656 3.283l-0.169-0.078c28.525 14.446 62.189 22.908 97.828 22.908s69.303-8.462 99.092-23.486l-1.263 0.578c3.927-2.020 8.569-3.205 13.487-3.205 11.544 0 21.565 6.524 26.577 16.086l0.078 0.165c11.858 22.793 35.298 38.091 62.31 38.091 38.666 0 70.010-31.344 70.010-70.010 0-29.993-18.86-55.581-45.369-65.551l-0.482-0.159c-11.426-4.406-19.384-15.299-19.384-28.050 0-3.632 0.645-7.112 1.829-10.334l-0.067 0.208c8.154-22.076 12.872-47.574 12.872-74.173 0-110.944-82.069-202.72-188.809-217.932l-1.173-0.138v67.401l23.403 11.721c9.915 5.033 16.59 15.155 16.59 26.836 0 16.568-13.431 29.999-29.999 29.999-4.887 0-9.502-1.169-13.579-3.241l0.17 0.078-26.575-13.287-26.575 13.287c-3.907 1.995-8.521 3.163-13.407 3.163-16.568 0-29.999-13.431-29.999-29.999 0-11.681 6.676-21.802 16.42-26.757l0.17-0.078 23.403-11.721v-67.36c-107.914 15.348-189.984 107.124-189.984 218.068 0 26.6 4.717 52.097 13.361 75.701l-0.489-1.529c1.116 3.014 1.761 6.495 1.761 10.126 0 12.751-7.958 23.644-19.179 27.981l-0.205 0.069c-26.568 10.399-45.062 35.765-45.161 65.461v0.012zM221.943 86.095c0 49.706 40.294 90.001 90.001 90.001s90.001-40.294 90.001-90.001c0-49.706-40.294-90.001-90.001-90.001v0c-49.653 0.092-89.875 40.341-89.921 89.996v0.004zM711.93-3.907c-49.706 0-90.001 40.294-90.001 90.001s40.294 90.001 90.001 90.001c49.706 0 90.001-40.294 90.001-90.001v0c-0.046-49.659-40.268-89.91-89.912-90.001h-0.009zM883.943 316.074h-91.928c-16.561 0-29.987-13.426-29.987-29.987v0-58.609c-14.901 5.448-32.105 8.598-50.045 8.598-82.807 0-149.935-67.128-149.935-149.935 0-33.962 11.291-65.286 30.325-90.424l-0.272 0.375h-160.171c18.761 24.763 30.053 56.087 30.053 90.048 0 82.807-67.128 149.935-149.935 149.935-17.94 0-35.143-3.151-51.088-8.929l1.044 0.33v58.609c0 16.561-13.426 29.987-29.987 29.987v0h-92.008c-0.499-0.013-1.087-0.020-1.677-0.020-38.666 0-70.010 31.344-70.010 70.010s31.344 70.010 70.010 70.010c0.589 0 1.177-0.007 1.763-0.021l-0.087 0.002h172.254c50.778-51.861 121.511-84.012 199.752-84.012s148.973 32.151 199.704 83.963l0.048 0.049h172.254c0.499 0.013 1.087 0.020 1.677 0.020 38.666 0 70.010-31.344 70.010-70.010s-31.344-70.010-70.010-70.010c-0.589 0-1.177 0.007-1.763 0.021l0.087-0.002z" />
<glyph unicode="&#xe905;" glyph-name="ico-facebook" d="M576 607.983v128c0.019 35.338 28.662 63.981 63.998 64h64.002v160.017h-128c-106.039 0-192-85.961-192-192v0-160.017h-128v-159.983h128v-512h192v512h128l64 159.983z" />
<glyph unicode="&#xe906;" glyph-name="ico-instagram" d="M131.476 959.96h761.115c0.926 0.024 2.017 0.038 3.111 0.038 70.857 0 128.297-57.441 128.297-128.297 0-1.106-0.014-2.208-0.042-3.307l0.003 0.163v-761.115c0.025-0.936 0.039-2.039 0.039-3.145 0-70.857-57.441-128.297-128.297-128.297-1.106 0-2.208 0.014-3.307 0.042l0.163-0.003h-761.081c-0.947-0.025-2.061-0.039-3.179-0.039-70.857 0-128.297 57.441-128.297 128.297 0 1.106 0.014 2.209 0.042 3.308l-0.003-0.163v761.115c-0.025 0.937-0.039 2.039-0.039 3.146 0 70.857 57.441 128.297 128.297 128.297 1.118 0 2.232-0.014 3.343-0.043l-0.164 0.003zM745.829 846.203c-25.443-0.058-46.052-20.667-46.11-46.105v-110.351c0.058-25.431 20.648-46.033 46.069-46.11h115.744c0.041 0 0.089 0 0.137 0 25.494 0 46.169 20.627 46.246 46.103v110.352c-0.058 25.443-20.667 46.052-46.105 46.11h-0.006zM908.156 526.943h-90.105c8.336-26.246 13.14-56.432 13.14-87.74 0-0.040 0-0.079 0-0.119v0.006c-2.766-170.991-142.028-308.545-313.418-308.545-1.682 0-3.361 0.013-5.036 0.040l0.253-0.003c-1.494-0.026-3.256-0.040-5.021-0.040-171.385 0-310.64 137.56-313.381 308.291l-0.003 0.257c0 0.056 0 0.123 0 0.189 0 31.282 4.804 61.441 13.715 89.782l-0.574-2.118h-93.894v-432.539c0.135-22.433 18.285-40.583 40.705-40.718h713.004c22.433 0.135 40.583 18.285 40.718 40.705v432.552zM512.956 649.371c-0.963 0.016-2.098 0.026-3.236 0.026-110.677 0-200.618-88.775-202.502-199.002l-0.002-0.177c1.83-110.448 91.794-199.28 202.506-199.28 1.101 0 2.201 0.009 3.298 0.026l-0.166-0.002c0.942-0.016 2.053-0.025 3.166-0.025 110.712 0 200.676 88.832 202.504 199.109l0.002 0.171c-1.888 110.403-91.829 199.176-202.504 199.176-1.078 0-2.154-0.008-3.228-0.025l0.162 0.002z" />
<glyph unicode="&#xe907;" glyph-name="ico-lokalizacja-autobus" d="M736-64c-17.673 0-32 14.327-32 32v0 32h-384v-32c0-17.673-14.327-32-32-32v0h-128c-17.673 0-32 14.327-32 32v0 37.888c-37.512 13.489-63.876 48.706-64 90.097v416.015h-32c-17.673 0-32 14.327-32 32v0 192c0 17.673 14.327 32 32 32v0h32v32c0.097 88.326 71.674 159.903 159.991 160h576.009c88.326-0.097 159.903-71.674 160-159.991v-32.009h32c17.673 0 32-14.327 32-32v0-192c0-17.673-14.327-32-32-32v0h-32v-416c-0.124-41.406-26.488-76.622-63.332-89.902l-0.668-0.21v-37.888c0-17.673-14.327-32-32-32v0zM128 96c0.024-17.663 14.337-31.976 31.998-32h704.002c17.663 0.024 31.976 14.337 32 31.998v288.002h-768zM544 448h352v352c-0.049 53-43 95.951-95.995 96h-256.005zM128 800v-352h352v448h-256c-53-0.049-95.951-43-96-95.995v-0.005zM658.731 205.269c0 53.019 42.981 96 96 96s96-42.981 96-96c0-53.019-42.981-96-96-96v0c-53 0.049-95.951 43-96 95.995v0.005zM722.731 205.269c0-17.673 14.327-32 32-32s32 14.327 32 32c0 17.673-14.327 32-32 32v0c-17.663-0.024-31.976-14.337-32-31.998v-0.002zM197.632 205.269c0 53.019 42.981 96 96 96s96-42.981 96-96c0-53.019-42.981-96-96-96v0c-53 0.049-95.951 43-96 95.995v0.005zM261.632 205.269c0-17.673 14.327-32 32-32s32 14.327 32 32c0 17.673-14.327 32-32 32v0c-17.663-0.024-31.976-14.337-32-31.998v-0.002z" />
<glyph unicode="&#xe908;" glyph-name="ico-lokalizacja-bank" d="M29.868-63.998c-16.495 0-29.867 13.372-29.867 29.867v0 124.117c0 16.495 13.372 29.867 29.867 29.867v0h12.117v90.155c0 16.495 13.372 29.867 29.867 29.867h9.984v340.138h-51.968c0 0-0.001 0-0.001 0-16.495 0-29.867 13.372-29.867 29.867 0 0.090 0 0.18 0.001 0.27v-0.014 119.851c0 0.019 0 0.042 0 0.064 0 12.402 7.559 23.038 18.321 27.553l0.197 0.073 482.004 200.021c3.396 1.456 7.349 2.302 11.499 2.302s8.102-0.846 11.694-2.376l-0.195 0.074 482.132-200.021c10.867-4.629 18.347-15.219 18.347-27.556 0-0.047 0-0.095 0-0.142v0.007-119.851c0-16.495-13.372-29.867-29.867-29.867h-52.139v-340.010h9.984c16.495 0 29.867-13.372 29.867-29.867v0-89.984h12.288c16.495 0 29.867-13.372 29.867-29.867v0-124.672c0-16.495-13.372-29.867-29.867-29.867v0zM59.734-4.009h904.275v64h-904.019zM781.738 119.981h139.989v60.032h-139.733zM262.017 240.001h9.984c16.495 0 29.867-13.372 29.867-29.867v0-89.984h420.010v89.856c0 16.495 13.372 29.867 29.867 29.867v0h9.984v340.138h-499.711zM102.017 119.981h139.989v60.032h-139.989zM822.015 240.001h59.989v340.010h-59.989zM141.996 240.001h59.989v340.010h-59.989zM59.99 709.973v-69.973h904.019v69.973l-452.010 187.563zM482.133 189.997v15.147c-35.319 12.745-60.112 45.972-60.117 84.991v0.001c0 16.566 13.429 29.995 29.995 29.995s29.995-13.429 29.995-29.995v0c0-16.495 13.372-29.866 29.867-29.866s29.867 13.372 29.867 29.867c0 16.45-13.299 29.794-29.732 29.866h-0.007c-0.056 0-0.123 0-0.19 0-49.697 0-89.984 40.287-89.984 89.984 0 39.064 24.892 72.313 59.679 84.753l0.628 0.196v15.147c0 16.566 13.429 29.995 29.995 29.995s29.995-13.429 29.995-29.995v0-15.147c35.213-12.767 59.928-45.9 59.989-84.814v-0.007c0-16.566-13.429-29.995-29.995-29.995s-29.995 13.429-29.995 29.995v0c0 16.495-13.372 29.867-29.867 29.867s-29.867-13.372-29.867-29.867c0-16.495 13.372-29.867 29.867-29.867v0c0.056 0 0.123 0 0.19 0 49.697 0 89.984-40.287 89.984-89.984 0-39.064-24.892-72.313-59.679-84.753l-0.628-0.196v-15.147c0-16.566-13.429-29.995-29.995-29.995s-29.995 13.429-29.995 29.995v0zM331.989 699.989c-16.566 0-29.995 13.429-29.995 29.995s13.429 29.995 29.995 29.995h360.020c16.566 0 29.995-13.429 29.995-29.995s-13.429-29.995-29.995-29.995v0z" />
<glyph unicode="&#xe909;" glyph-name="ico-lokalizacja-lotnisko" d="M1024.112 865.734c-0.049 52.049-42.241 94.226-94.291 94.251h-0.002c-0.149 0-0.325 0.001-0.501 0.001-50.964 0-97.086-20.732-130.392-54.222l-167.688-167.645-417.237 98.133c-13.477 3.277-28.949 5.156-44.86 5.156-68.128 0-128.208-34.457-163.763-86.895l-0.443-0.693c-3.162-4.666-5.047-10.419-5.047-16.614 0-11.413 6.401-21.331 15.81-26.358l0.16-0.078 382.208-205.824-187.733-187.733h-116.011c-51.985-0.073-94.111-42.183-94.208-94.156v-0.009c0.015-10.825 5.786-20.298 14.416-25.525l0.133-0.075 154.24-92.544 92.544-154.24c5.302-8.763 14.775-14.534 25.598-14.549h0.002c0.025 0 0.055 0 0.085 0 52.032 0 94.22 42.144 94.293 94.158v116.103l187.733 187.733 205.824-382.251c5.127-9.499 15.007-15.844 26.37-15.844 6.223 0 12.001 1.903 16.784 5.159l-0.104-0.067c53.131 35.999 87.588 96.079 87.588 164.206 0 15.911-1.879 31.383-5.429 46.207l0.272-1.347-98.219 416.939 167.68 167.68c33.473 33.323 54.187 79.439 54.187 130.393 0 0.194 0 0.387-0.001 0.581v-0.030zM76.912 745.969c24.29 21.975 56.655 35.423 92.161 35.423 11.016 0 21.729-1.294 31.996-3.739l-0.936 0.188 381.056-89.6-138.795-139.008zM841.968 136.134c2.259-9.335 3.555-20.052 3.555-31.072 0-35.503-13.45-67.864-35.532-92.267l0.105 0.118-196.736 365.355 138.923 138.923zM927.301 777.201l-597.333-597.333c-5.43-5.409-8.79-12.893-8.79-21.161 0-0.061 0-0.121 0.001-0.182v0.009-128.256c-0.027-13.485-7.812-25.145-19.128-30.758l-0.2-0.090-85.376 142.677c-2.572 4.247-6.035 7.71-10.15 10.208l-0.133 0.075-142.677 85.589c5.643 11.529 17.288 19.328 30.755 19.328 0.018 0 0.035 0 0.053 0h128.594c0.051 0 0.112 0 0.172 0 8.268 0 15.752 3.36 21.16 8.789l597.334 597.334c22.523 22.64 53.7 36.651 88.15 36.651 0.12 0 0.24 0 0.359-0.001h-0.019c18.851 0 34.133-15.282 34.133-34.133v0c0-0.101 0-0.221 0-0.341 0-34.45-14.011-65.627-36.646-88.145l-0.005-0.005z" />
<glyph unicode="&#xe90a;" glyph-name="ico-lokalizacja-poznan" d="M756.009 429.395l262.017 152.473-70.327 119.487-256.64-151.065v302.983h-138.69v-304.862l-262.743 154.138-70.113-119.487 264.023-154.778-483.536-284.42h265.943l286.469 166.897v-268.034h138.647v263.937l262.743-154.138 70.199 119.487-268.12 157.21z" />
<glyph unicode="&#xe90b;" glyph-name="ico-lokalizacja-sklep" d="M724.008 88.002c0 49.705 40.294 89.999 89.999 89.999s89.999-40.294 89.999-89.999c0-49.705-40.294-89.999-89.999-89.999v0c-49.705 0-89.999 40.294-89.999 89.999v0zM784.008 88.002c0-16.569 13.431-30 30-30s30 13.431 30 30c0 16.569-13.431 30-30 30v0c-16.569 0-30-13.431-30-30v0zM299.998 88.002c0 49.705 40.294 89.999 89.999 89.999s89.999-40.294 89.999-89.999c0-49.705-40.294-89.999-89.999-89.999v0c-49.705 0-89.999 40.294-89.999 89.999v0zM359.999 88.002c0-16.569 13.431-30 30-30s30 13.431 30 30c0 16.569-13.431 30-30 30v0c-16.569 0-30-13.431-30-30v0zM329.998 178.002c-49.606 0.132-89.769 40.375-89.769 89.999 0 36.696 21.961 68.262 53.458 82.272l0.572 0.227-108.337 487.496h-155.924c-16.569 0-30 13.431-30 30s13.431 30 30 30h179.998c0.002 0 0.004 0 0.006 0 14.256 0 26.189-9.944 29.243-23.273l0.039-0.202 21.45-96.524h733.27c16.566-0.003 29.994-13.433 29.994-30 0-2.939-0.422-5.778-1.21-8.462l0.053 0.213-119.999-419.997c-3.706-12.658-15.21-21.747-28.837-21.75h-544.009c-16.569 0-30-13.431-30-30s13.431-30 30-30h544.008c16.569 0 30-13.431 30-30s-13.431-30-30-30v0zM354.074 358.001h497.172l102.862 359.998h-680.058z" />
<glyph unicode="&#xe90c;" glyph-name="ico-lokalizacja-szkola" d="M959.724 352.295v273.955l11.387 3.399c43.71 13.119 52.887 35.349 52.887 51.664s-9.177 38.544-52.887 51.664l-374.087 112.165c-24.172 6.818-51.93 10.738-80.605 10.738-1.535 0-3.069-0.011-4.6-0.034l0.231 0.003c-1.297 0.020-2.827 0.031-4.36 0.031-28.678 0-56.439-3.919-82.78-11.252l2.166 0.515-374.087-112.165c-43.813-13.154-52.99-35.349-52.99-51.63s9.177-38.544 52.887-51.664l139.901-41.977v-147.378c0-28.075 18.253-67.639 105.367-96.632 60.669-18.951 130.427-29.868 202.735-29.868 4.008 0 8.008 0.034 12 0.101l-0.601-0.008c3.391-0.059 7.391-0.093 11.399-0.093 72.308 0 142.067 10.917 207.717 31.192l-4.982-1.324c86.979 28.993 105.367 68.557 105.367 96.632v147.344l68.523 20.394v-255.941c-37.832-12.749-64.632-47.811-64.851-89.163v-128.574c0-52.064 42.206-94.27 94.27-94.27s94.27 42.206 94.27 94.27v0 128.548c-0.055 41.31-26.63 76.399-63.611 89.16l-0.663 0.199zM444.206 787.7c19.123 5.223 41.081 8.224 63.739 8.224 1.419 0 2.836-0.012 4.249-0.035l-0.213 0.003c1.199 0.021 2.614 0.033 4.032 0.033 22.659 0 44.618-3.001 65.5-8.626l-1.758 0.403 354.713-106.353-354.68-106.353c-19.124-5.223-41.083-8.224-63.743-8.224-1.418 0-2.832 0.012-4.244 0.035l0.212-0.003c-1.198-0.021-2.612-0.032-4.028-0.032-22.661 0-44.621 3.001-65.505 8.626l1.758-0.403-354.713 106.353zM771.184 440.294c0-3.875-10.911-21.923-64.206-39.7-54.944-16.995-118.109-26.784-183.56-26.784-4.022 0-8.035 0.037-12.039 0.111l0.601-0.009c-3.403-0.065-7.416-0.102-11.438-0.102-65.451 0-128.616 9.789-188.111 27.981l4.551-1.197c-53.295 17.777-64.206 35.825-64.206 39.7v129.363l174.162-52.242c24.173-6.818 51.933-10.738 80.61-10.738 1.535 0 3.066 0.011 4.596 0.034l-0.231-0.003c1.298-0.020 2.83-0.031 4.365-0.031 28.676 0 56.436 3.919 82.775 11.252l-2.166-0.515 174.162 52.242zM963.972 134.389c0-18.922-15.339-34.261-34.261-34.261s-34.261 15.339-34.261 34.261v0 128.548c0 18.922 15.339 34.261 34.261 34.261s34.261-15.339 34.261-34.261v0z" />
<glyph unicode="&#xe90d;" glyph-name="ico-lokalizacja-szpital" d="M490.973-60.485c-94.594 31.249-175.859 80.315-243.558 143.693l0.363-0.336c-54.057 52.889-96.487 117.429-123.253 189.576l-1.161 3.572c-50.516 136.018-47.53 285.819-45.226 406.221 0.512 25.6 0.939 50.132 0.939 73.855 0.169 35.127 28.611 63.556 63.729 63.7h0.014c6.381-0.333 13.854-0.523 21.37-0.523 117.923 0 224.933 46.723 303.527 122.667l-0.125-0.12c11.433 11.24 27.124 18.179 44.436 18.179s33.003-6.939 44.445-18.187l-0.009 0.009c78.476-75.824 185.492-122.547 303.419-122.547 7.511 0 14.978 0.19 22.396 0.564l-1.042-0.042c35.112-0.169 63.532-28.587 63.7-63.684v-0.016c0-23.211 0.469-47.316 0.939-72.831v-1.024c2.304-120.403 5.163-270.203-45.14-406.221-27.926-75.72-70.357-140.259-124.321-193.057l-0.093-0.091c-67.418-63.075-148.786-112.147-238.903-142.037l-4.592-1.32c-6.217-2.228-13.39-3.516-20.864-3.516s-14.647 1.288-21.309 3.654l0.445-0.138zM509.234 898.815c-88.741-86.305-210.048-139.524-343.786-139.524-7.959 0-15.874 0.188-23.741 0.561l1.112-0.042c-2.074 0-3.755-1.681-3.755-3.755v0c0-24.277-0.469-48.895-0.981-74.964-2.304-121.342-4.949-258.896 41.386-384.249 53.034-143.4 161.362-241.745 331.258-300.623 0.362-0.13 0.78-0.205 1.216-0.205s0.854 0.075 1.242 0.213l-0.026-0.008c169.938 58.879 278.267 157.224 331.301 300.666 46.378 125.395 43.732 262.907 41.428 384.249v0.981c-0.512 25.813-0.939 50.218-0.939 73.983 0 2.074-1.681 3.755-3.755 3.755v0c-6.806-0.336-14.781-0.527-22.8-0.527-133.753 0-255.074 53.222-343.943 139.643l0.114-0.111c-0.669 0.659-1.589 1.065-2.603 1.065s-1.933-0.407-2.603-1.066v0zM452.019 241.76c-16.495 0-29.866 13.372-29.866 29.866v0 96.467h-96.51c-16.495 0-29.866 13.372-29.866 29.866v0 119.849c0 16.495 13.372 29.866 29.866 29.866h96.553v96.595c0 16.495 13.372 29.866 29.866 29.866v0h119.977c16.495 0 29.866-13.372 29.866-29.866v0-96.467h96.51c16.495 0 29.866-13.372 29.866-29.866v0-119.849c0-16.495-13.372-29.866-29.866-29.866v0h-96.51v-96.51c0-16.495-13.372-29.866-29.866-29.866v0zM355.637 428.082h96.553c16.495 0 29.866-13.372 29.866-29.866v0-96.51h59.732v96.382c0 16.495 13.372 29.866 29.866 29.866v0h96.51v59.732h-96.126c-16.495 0-29.866 13.372-29.866 29.866v0 96.851h-59.732v-96.51c0-16.495-13.372-29.866-29.866-29.866v0h-96.937z" />
<glyph unicode="&#xe90e;" glyph-name="ico-youtube" d="M929.073 441.827c-10.17 45.015-47.118 79.082-92.876 84.829l-0.537 0.055c-80.619 7.952-174.261 12.487-268.961 12.487-19.177 0-38.311-0.186-57.399-0.556l2.861 0.044c-16.235 0.327-35.376 0.513-54.561 0.513-94.716 0-188.373-4.535-280.767-13.4l11.759 0.912c-46.267-5.829-83.183-39.888-93.206-84.153l-0.139-0.731c-10.089-51.288-15.863-110.259-15.863-170.579 0-11.833 0.222-23.615 0.663-35.34l-0.050 1.692c-0.412-10.311-0.647-22.415-0.647-34.575 0-59.989 5.711-118.643 16.619-175.449l-0.927 5.797c10.166-45.005 47.098-79.069 92.841-84.829l0.538-0.055c80.622-7.952 174.269-12.488 268.975-12.488 19.184 0 38.325 0.186 57.42 0.557l-2.862-0.044c16.256-0.328 35.424-0.515 54.635-0.515 94.679 0 188.3 4.536 280.656 13.402l-11.756-0.913c46.281 5.815 83.213 39.879 93.24 84.153l0.139 0.731c10.015 51.116 15.747 109.893 15.747 170.010 0 12.033-0.23 24.012-0.685 35.933l0.052-1.717c0.424 10.464 0.665 22.745 0.665 35.083 0 59.806-5.667 118.287-16.495 174.937l0.922-5.795zM326.461 391.129h-62.537v-332.268h-58v332.268h-61.411v54.587h181.947zM484.219 58.827h-52.233v31.422c-13.618-19.398-34.866-32.645-59.291-35.379l-0.38-0.035c-1.006-0.112-2.17-0.176-3.35-0.176-13.956 0-25.828 8.924-30.22 21.377l-0.069 0.224c-3 11.095-4.724 23.834-4.724 36.975 0 2.067 0.043 4.124 0.127 6.17l-0.010-0.293v227.87h52.199v-212.141c-0.082-1.924-0.128-4.182-0.128-6.451 0-4.935 0.22-9.818 0.651-14.642l-0.045 0.623c1.262-8.12 5.22-12.214 12.214-12.214 10.474 0 21.426 8.086 32.991 24.462v220.363h52.233v-288.154zM682.577 145.314c0.095-2.466 0.149-5.361 0.149-8.269 0-17.624-1.981-34.785-5.732-51.273l0.295 1.543c-4.246-18.671-20.705-32.399-40.37-32.399-0.465 0-0.928 0.008-1.389 0.023l0.067-0.002c-22.61 1.803-42.056 13.925-53.81 31.604l-0.164 0.262v-27.942h-52.199v386.685h52.199v-126.233c11.987 17.747 31.44 29.666 53.75 31.238l0.224 0.013c0.393 0.013 0.856 0.021 1.319 0.021 19.707 0 36.192-13.797 40.32-32.26l0.052-0.276c3.479-14.699 5.474-31.575 5.474-48.918 0-3.194-0.068-6.372-0.202-9.534l0.015 0.452zM879.501 193.385h-104.297v-51.176c0-26.679 8.734-39.985 26.679-39.985 0.279-0.012 0.607-0.020 0.936-0.020 11.877 0 21.6 9.224 22.396 20.898l0.004 0.069c0.786 8.521 1.233 18.427 1.233 28.44 0 2.44-0.027 4.875-0.080 7.302l0.006-0.362h53.121v-7.608c0-16.82-0.649-28.42-1.125-33.639-1.754-11.839-6.059-22.422-12.343-31.535l0.163 0.25c-13.205-19.034-34.944-31.341-59.558-31.341-1.263 0-2.52 0.032-3.768 0.097l0.175-0.007c-1.078-0.056-2.342-0.087-3.612-0.087-24.239 0-45.782 11.537-59.441 29.418l-0.133 0.181c-10.711 16.826-17.071 37.329-17.071 59.319 0 2.97 0.116 5.912 0.344 8.823l-0.024-0.385v100.953c-0.246 2.786-0.387 6.027-0.387 9.302 0 21.676 6.15 41.916 16.8 59.070l-0.276-0.478c13.691 18.065 35.161 29.615 59.331 29.615 1.127 0 2.25-0.025 3.364-0.075l-0.159 0.006c0.929 0.043 2.017 0.067 3.111 0.067 23.911 0 45.119-11.57 58.332-29.416l0.139-0.197c10.359-16.771 16.498-37.102 16.498-58.866 0-3.178-0.131-6.324-0.388-9.436l0.027 0.408v-59.671zM801.44 303.481q-26.168 0-26.202-39.985v-26.645h52.199v26.645c0 26.645-8.734 39.985-25.998 39.985zM607.655 303.481c-10.403-0.617-19.585-5.382-25.996-12.651l-0.035-0.041v-175.635c6.405-7.398 15.598-12.231 25.928-12.857l0.104-0.005c15.046 0 22.722 12.862 22.722 38.894v122.822c0 26.134-7.642 39.473-22.722 39.473zM636.723 565.229c25.048 2.823 46.503 16.188 60.106 35.487l0.179 0.268v-31.763h52.779v291.225h-52.677v-222.581c-11.702-16.513-22.79-24.701-33.332-24.701-7.063 0-11.225 4.162-12.384 12.35-0.519 4.231-0.815 9.129-0.815 14.095 0 2.243 0.060 4.471 0.18 6.684l-0.013-0.309v214.461h-52.574v-230.257c-0.079-1.799-0.124-3.91-0.124-6.031 0-13.246 1.75-26.084 5.034-38.293l-0.236 1.030c4.522-12.812 16.525-21.827 30.635-21.827 1.142 0 2.271 0.059 3.383 0.175l-0.139-0.012zM269.484 727.49v-158.27h58.511v158.27l70.384 232.509h-59.193l-39.917-153.528-41.52 153.528h-61.411c12.35-36.233 25.178-72.636 37.529-108.868 12.696-33.444 24.956-74.81 34.418-117.232l1.2-6.409zM476.884 565.229c0.912-0.041 1.981-0.065 3.056-0.065 23.935 0 45.139 11.692 58.213 29.676l0.143 0.207c10.507 16.921 16.735 37.452 16.735 59.437 0 3.18-0.13 6.33-0.386 9.445l0.027-0.409v101.977c0.232 2.727 0.364 5.901 0.364 9.107 0 22.008-6.23 42.561-17.022 59.992l0.282-0.489c-14.454 18.2-36.582 29.767-61.411 29.767s-46.957-11.567-61.288-29.606l-0.123-0.161c-10.597-16.906-16.883-37.451-16.883-59.465 0-3.218 0.134-6.406 0.398-9.556l-0.028 0.412v-101.977c-0.234-2.723-0.367-5.891-0.367-9.091 0-21.986 6.285-42.503 17.156-59.855l-0.276 0.473c13.217-18.191 34.421-29.884 58.355-29.884 1.074 0 2.144 0.024 3.206 0.070l-0.151-0.005zM451.705 776.073c0 26.952 8.188 40.361 25.178 40.361s25.144-13.408 25.144-40.361v-122.481c0-26.952-8.154-40.429-25.144-40.429s-25.178 13.647-25.178 40.429z" />
<glyph unicode="&#xe90f;" glyph-name="ico-pdf" d="M298.286 435.308c0 27.549-19.157 44.015-52.775 44.015-0.966 0.029-2.102 0.045-3.242 0.045-8.781 0-17.334-0.978-25.555-2.831l0.773 0.147v-88.557c5.811-1.141 12.493-1.794 19.328-1.794 1.165 0 2.325 0.019 3.481 0.057l-0.169-0.004c35.94 0.106 58.158 18.207 58.158 48.923zM507.435 478.478c-0.922 0.022-2.009 0.034-3.098 0.034-9.773 0-19.314-0.992-28.528-2.882l0.911 0.156v-196.166c5.683-0.93 12.232-1.461 18.906-1.461 1.648 0 3.288 0.032 4.919 0.097l-0.235-0.007c2.802-0.3 6.052-0.471 9.342-0.471 51.328 0 92.937 41.609 92.937 92.937 0 4.41-0.307 8.747-0.901 12.993l0.056-0.49c0.353 2.926 0.555 6.314 0.555 9.75 0 47.48-38.491 85.971-85.971 85.971-3.132 0-6.226-0.168-9.271-0.494l0.378 0.033zM908.158 593.739h-24.593v118.639c0.023 0.331 0.036 0.718 0.036 1.108s-0.013 0.777-0.038 1.16l0.003-0.052c0 0.047 0.001 0.103 0.001 0.159 0 4.911-1.798 9.401-4.772 12.85l0.021-0.025-197.591 225.562c-1.225 1.33-2.612 2.483-4.138 3.434l-0.084 0.049-1.056 0.792c-1.206 0.643-2.609 1.201-4.077 1.602l-0.145 0.034-1.056 0.369c-1.391 0.357-2.99 0.568-4.636 0.58h-485.225c-22.169-0.030-40.132-17.993-40.162-40.159v-326.102h-24.593c-0.047 0-0.103 0-0.158 0-31.712 0-57.42-25.708-57.42-57.42 0 0 0 0 0 0v0-298.497c0.030-31.689 25.726-57.367 57.42-57.367 0 0 0 0 0 0h24.593v-204.293c0.030-22.169 17.993-40.132 40.159-40.162h662.756c22.169 0.030 40.132 17.993 40.162 40.159v204.296h24.593c31.671 0.030 57.337 25.696 57.367 57.364v298.5c0 31.693-25.678 57.39-57.364 57.42h-0.003zM180.808 919.838h465.162v-205.454c0.030-11.064 8.991-20.025 20.052-20.055h177.381v-100.643h-662.594zM673.783 385.488c0.155-2.566 0.243-5.567 0.243-8.588 0-44.687-19.285-84.87-49.987-112.681l-0.129-0.115c-34.463-24.506-77.405-39.177-123.774-39.177-5.12 0-10.197 0.179-15.228 0.531l0.678-0.038c-1.38-0.012-3.012-0.018-4.645-0.018-25.485 0-50.592 1.617-75.224 4.755l2.923-0.304v294.434c26.099 3.976 56.21 6.247 86.852 6.247 1.694 0 3.387-0.007 5.078-0.021l-0.259 0.002c4.593 0.389 9.939 0.61 15.337 0.61 40.052 0 77.255-12.197 108.097-33.079l-0.679 0.434c31.159-24.509 50.986-62.212 50.986-104.546 0-2.972-0.098-5.92-0.29-8.843l0.021 0.397zM150.146 228.428v295.859c25.090 4.002 54.018 6.288 83.479 6.288 2.88 0 5.755-0.022 8.625-0.065l-0.434 0.005c3.412 0.288 7.385 0.452 11.395 0.452 29.923 0 57.712-9.142 80.724-24.786l-0.501 0.321c19.601-16.187 31.998-40.494 31.998-67.695 0-0.599-0.006-1.197-0.018-1.793l0.001 0.089c0.051-1.168 0.080-2.537 0.080-3.913 0-26.231-10.55-49.998-27.638-67.29l0.009 0.009c-23.87-19.877-54.855-31.942-88.658-31.942-3.084 0-6.145 0.1-9.178 0.298l0.413-0.022c-0.566-0.007-1.236-0.011-1.906-0.011-7.477 0-14.841 0.483-22.062 1.42l0.852-0.090v-107.239h-67.183zM843.403-12.966h-662.594v193.422h662.594v-193.422zM901.455 472.567h-115.103v-68.608h107.662v-55.15h-107.662v-120.539h-68.186v300.028h183.289z" />
<glyph unicode="&#xe910;" glyph-name="ico-search" d="M730.861 318.314h-46.699l-16.132 16.132c56.046 65.673 90.146 151.554 90.146 245.399 0 209.365-169.723 379.088-379.088 379.088s-379.088-169.723-379.088-379.088c0-209.365 169.723-379.088 379.088-379.088 94.833 0 181.533 34.822 248.011 92.378l-0.477-0.403 16.132-16.132v-46.236l293.91-293.294 87.336 87.336zM378.385 318.314c-146.007 0-264.37 118.363-264.37 264.37s118.363 264.37 264.37 264.37c146.007 0 264.37-118.363 264.37-264.37v0c0-146.007-118.363-264.37-264.37-264.37v0z" />
<glyph unicode="&#xe911;" glyph-name="arrow-up" d="M120 110.667l-120 120 512 512 512-512-120-120-392 392z" />
<glyph unicode="&#xe912;" glyph-name="arrow-down" d="M120 742.667l392-392 392 392 120-120-512-512-512 512z" />
<glyph unicode="&#xe913;" glyph-name="mute" d="M1024 333.708v-90.509h-90.509l-114.291 114.291-114.291-114.291h-90.509v90.509l114.291 114.291-114.291 114.291v90.509h90.509l114.291-114.291 114.291 114.291h90.509v-90.509l-114.291-114.291 114.291-114.291zM443.74-29.868c-8.883 0-17.613 3.467-24.143 9.999l-263.068 263.068h-122.396c-18.85 0-34.133 15.281-34.133 34.133v341.333c0 18.85 15.283 34.133 34.133 34.133h122.396l263.068 263.070c9.764 9.764 24.444 12.683 37.199 7.398 12.755-5.282 21.071-17.73 21.071-31.535v-887.467c0-13.807-8.316-26.253-21.071-31.535-4.222-1.749-8.659-2.598-13.056-2.598z" />
<glyph unicode="&#xe914;" glyph-name="unmute" d="M731.435-64c-9.518 0-18.871 3.714-25.867 10.713l-281.858 281.858h-131.138c-20.197 0-36.571 16.373-36.571 36.571v365.714c0 20.197 16.375 36.571 36.571 36.571h131.138l281.858 281.86c10.462 10.462 26.19 13.589 39.856 7.927 13.666-5.659 22.576-18.997 22.576-33.787v-950.855c0-14.793-8.91-28.128-22.576-33.787-4.523-1.874-9.278-2.784-13.989-2.784z" />
<glyph unicode="&#xe917;" glyph-name="arrow-right" d="M200.713 830.498l110.573 108.169 512-512-512-512-110.573 108.169 406.235 403.831z" />
<glyph unicode="&#xe918;" glyph-name="arrow-left" d="M814.104 846.458l-419.791-419.791 419.791-419.791-92.209-92.209-512 512 512 512z" />
</font>
</defs>
</svg>
